<svg width="63" height="56" viewBox="0 0 63 56" fill="none" xmlns="http://www.w3.org/2000/svg">
<path d="M61.2227 53.7695C63.1043 51.5393 63.1428 48.1214 61.6847 45.2734C61.5793 45.0681 61.4668 44.8565 61.3435 44.6303C62.3777 43.8869 62.6007 42.1974 62.2116 40.7283C62.0551 40.1395 61.7944 39.4363 61.4288 38.5813C61.3278 38.3448 61.2191 38.0976 61.0985 37.8293C60.9387 37.4736 60.4005 36.3041 60.3072 36.0966C59.8745 35.1324 59.4261 34.1542 58.7752 32.7487C58.7125 32.6133 58.6467 32.4714 58.5714 32.3089C57.6375 30.2944 57.6026 30.2188 57.2619 29.4758C56.2726 27.3188 54.7084 24.252 53.5016 22.0971C53.1627 21.4942 52.5776 20.4806 51.8139 19.1699L51.7837 19.1183C51.3389 18.3549 50.8622 17.5404 50.3856 16.728C50.2188 16.4436 50.0639 16.1799 49.9249 15.9433C49.8948 15.892 49.8721 15.8537 49.8471 15.8111C50.0314 15.4673 50.3982 14.783 50.5202 14.5549C50.8352 13.9663 51.0961 13.4765 51.3466 13.0031C51.4248 12.8551 51.5011 12.7106 51.5757 12.5689C52.2747 11.2406 52.8314 10.1488 53.2644 9.2457C54.3363 7.01334 54.6999 6.1038 54.8752 4.90738C54.9866 4.14776 54.9587 3.42459 54.7764 2.71079C54.3495 1.03771 52.3622 0.421867 50.659 1.41931C49.6493 2.01147 48.822 2.75423 47.389 4.23651C47.3789 4.24707 46.9639 4.67706 46.845 4.79971C46.6394 5.01164 46.4699 5.18421 46.3074 5.34639C46.15 5.50329 46.0028 5.64673 45.8611 5.78114C45.7178 5.91624 44.9162 6.67859 44.6822 6.89852C42.4645 8.98284 40.9675 10.06 39.2529 10.5653C36.5374 11.3648 33.7958 11.5583 28.5894 11.5583C27.1817 11.5583 23.8125 11.5929 19.0757 11.6523C18.5192 11.6593 17.9485 11.6667 17.3652 11.6741C15.4045 11.6995 4.87067 11.7266 2.91104 11.7539C2.22518 11.7632 1.59537 11.7721 1.03558 11.7801C0.839664 11.7828 0.666412 11.7852 0.517692 11.7874C0.367267 11.7895 0.367267 11.7895 0.33575 11.79C0.149551 11.7927 -2.33693e-05 11.9445 -2.33774e-05 12.1307L-2.46681e-05 41.6588C-2.46764e-05 41.8489 0.155508 42.0022 0.345629 41.9995C0.477823 41.9976 0.477827 41.9976 1.07271 41.9891C1.65108 41.9807 2.29554 41.9715 2.98958 41.9615C4.97254 41.933 15.4734 41.9046 17.3241 41.878L17.3768 41.8773C20.6996 41.8295 23.2156 41.7932 24.6028 41.7729C26.0425 41.7492 27.5514 41.7025 29.256 41.6324C30.566 41.5784 31.6565 41.5266 33.9444 41.4128C36.6931 41.2763 37.8873 41.2199 39.3381 41.1639C39.3863 41.2175 39.4399 41.2775 39.4989 41.3433C39.7123 41.5813 39.9512 41.8465 40.2096 42.132C40.9481 42.9479 41.6962 43.7637 42.4082 44.5255C42.4944 44.6179 42.5798 44.709 42.6643 44.7988C43.9278 46.1436 44.9089 47.1346 45.5082 47.6511C45.8926 47.9821 46.2927 48.3438 46.7536 48.7737C46.9687 48.9746 47.1919 49.1853 47.4716 49.4511C47.5915 49.5651 48.0738 50.0245 48.1953 50.14C50.5938 52.4199 51.9948 53.5707 53.7212 54.4972C54.7704 55.0633 56.0505 54.9731 56.8399 54.2516C58.2115 55.371 60.1244 55.0708 61.2227 53.7695Z" fill="#FCB7A0"/>
<path d="M35.9648 24.0781C35.972 24.206 35.9795 24.2992 36.0011 24.5464C36.0141 24.6946 36.0204 24.7716 36.0267 24.8586C36.0551 25.2586 36.0485 25.5387 35.9947 25.7808C35.9538 25.9644 36.0694 26.1464 36.2531 26.1872C36.4369 26.2281 36.6188 26.1125 36.6597 25.9288C36.7311 25.6082 36.7391 25.2707 36.7064 24.8104C36.6998 24.7184 36.6931 24.6387 36.6798 24.4869C36.6589 24.2474 36.6517 24.1583 36.6453 24.0402C36.6349 23.8523 36.474 23.7085 36.2861 23.7189C36.0982 23.7293 35.9545 23.8901 35.9648 24.0781Z" fill="#2D2721"/>
<path d="M48.8528 23.067C49.1501 24.3065 48.8812 25.8315 47.9949 27.3284C47.1864 28.6939 46.0583 29.4899 44.4434 30.1017C44.2675 30.1683 44.1787 30.3649 44.2455 30.5409C44.3121 30.7169 44.5089 30.8054 44.6847 30.7388C46.4312 30.0773 47.6816 29.1951 48.5813 27.6756C49.555 26.0312 49.8555 24.3261 49.5155 22.9082C49.4715 22.7251 49.2877 22.6123 49.1048 22.6562C48.9218 22.7002 48.809 22.884 48.8528 23.067Z" fill="#2D2721"/>
<path d="M54.7375 31.8598C54.7375 35.795 53.4213 40.0732 51.2276 43.3587C51.123 43.5153 51.1653 43.7269 51.3217 43.8313C51.4782 43.9359 51.6898 43.8937 51.7942 43.7373C54.0622 40.3405 55.4189 35.9306 55.4189 31.8598C55.4189 31.6715 55.2665 31.5191 55.0782 31.5191C54.89 31.5191 54.7375 31.6715 54.7375 31.8598Z" fill="#2D2721"/>
<path d="M53.6229 38.8105C53.8062 39.1036 53.9936 39.3973 54.1857 39.6927C55.3292 41.4518 58.8924 46.3986 59.051 46.631C60.6005 48.9005 61.3663 50.4615 61.5479 51.9322C61.5709 52.1189 61.7411 52.2516 61.9278 52.2286C62.1145 52.2056 62.2472 52.0354 62.2242 51.8487C62.0257 50.2419 61.2201 48.5995 59.6138 46.2468C59.4465 46.0018 55.8896 41.0639 54.7569 39.3213C54.567 39.0291 54.3818 38.7388 54.2004 38.449C54.1006 38.2896 53.8903 38.2412 53.7309 38.341C53.5714 38.4409 53.523 38.6511 53.6229 38.8105Z" fill="#2D2721"/>
<path d="M54.6792 34.769C54.79 34.9233 54.8929 35.0662 55.0688 35.3109C56.6537 37.5144 57.322 38.4586 58.1896 39.7437C59.6797 41.9509 60.2063 42.7918 61.0308 44.3606C61.1182 44.5272 61.3244 44.5913 61.4908 44.5037C61.6574 44.4161 61.7215 44.2102 61.6339 44.0436C60.7951 42.4473 60.2574 41.5889 58.7545 39.3625C57.8818 38.0698 57.2109 37.1221 55.622 34.9131C55.4462 34.6685 55.3433 34.5255 55.2325 34.3714C55.1228 34.2185 54.9099 34.1836 54.7571 34.2933C54.6043 34.4032 54.5693 34.6162 54.6792 34.769Z" fill="#2D2721"/>
<path d="M56.9516 53.7022C56.8562 53.8643 56.9103 54.0732 57.0723 54.1686C57.2345 54.2642 57.4434 54.21 57.539 54.0478C57.874 53.4783 58.0655 52.8357 58.0967 52.1756L58.097 52.1538C58.088 51.625 57.9085 51.0534 57.5815 50.4144C57.3565 49.9746 57.0759 49.5258 56.6887 48.9645C56.6768 48.9471 55.964 47.935 55.8032 47.6887C54.1042 45.0923 53.3357 43.8954 52.417 42.3877C52.319 42.227 52.1095 42.1761 51.9487 42.2741C51.788 42.3718 51.7371 42.5816 51.835 42.7422C52.7587 44.2582 53.5301 45.4594 55.2327 48.0616C55.4011 48.3194 56.1221 49.343 56.1277 49.3514C56.4996 49.8904 56.766 50.3165 56.9749 50.7246C57.2562 51.2744 57.4061 51.749 57.4154 52.1546C57.388 52.7003 57.2289 53.2313 56.9516 53.7022Z" fill="#2D2721"/>
<path d="M61.4498 53.9637C63.6082 51.4083 63.2573 47.6894 61.9507 45.1392C61.8808 45.0029 61.8076 44.8615 61.7258 44.7099C62.8127 43.7201 62.8076 41.8036 62.5026 40.6536C62.1909 39.4748 61.4941 37.9603 60.9336 36.7354C60.8076 36.4628 60.6883 36.2056 60.5827 35.9705C59.937 34.5276 59.2471 33.0421 58.5793 31.6043L58.535 31.5089L57.535 29.347C56.5282 27.1562 54.9404 24.0438 53.7616 21.945C52.9677 20.5344 50.8655 16.9535 50.1841 15.8002L50.4004 15.3982C51.4123 13.5089 52.6713 11.1563 53.5282 9.37091L53.5469 9.33173C54.6764 6.97739 55.6508 4.94503 55.0614 2.63328C54.8617 1.82987 54.2881 1.17127 53.5197 0.863265C52.5878 0.47485 51.4873 0.582174 50.5026 1.15969C49.196 1.92629 48.0614 3.10176 46.9609 4.24315C46.5095 4.70993 46.0836 5.15116 45.6509 5.56002L45.1534 6.03361C43.3885 7.71504 41.3902 9.61963 39.1636 10.2755C35.8349 11.2568 31.6441 11.2568 28.5844 11.2568C28.4141 11.2568 28.2216 11.2568 27.9984 11.2568C27.7437 10.9046 27.4138 10.6137 27.0325 10.405C26.8163 10.2833 26.5736 10.2166 26.3255 10.2108C25.8613 9.88454 25.2744 9.78624 24.7293 9.94331C23.5504 10.2431 22.5027 11.4169 22.1739 12.3794C21.0972 15.4799 20.2063 19.8274 19.8451 23.7201C19.748 24.7661 19.7054 25.8189 19.7054 26.8666C19.7054 30.1511 20.1194 33.3964 20.5572 36.2584C20.8996 38.3974 21.7482 40.4237 23.0325 42.1681C23.6662 43.0369 24.5163 43.5156 25.3085 43.4458C25.848 43.3904 26.3369 43.1039 26.6492 42.6604C26.8744 42.8032 27.1456 42.8543 27.4073 42.8035C27.857 42.7167 28.2301 42.3606 28.5061 41.9518C30.38 41.8802 32.2539 41.7814 34.0717 41.6962C35.7565 41.6127 37.4958 41.5259 39.2113 41.4577C40.2335 42.6042 43.811 46.5685 45.317 47.87C46.087 48.5327 46.8348 49.2465 47.6304 50.0046C49.4669 51.7524 51.3663 53.5616 53.5827 54.7507C54.6679 55.3333 55.9677 55.2618 56.8484 54.6229C57.435 55.0471 58.1474 55.2608 58.8706 55.2294C59.8677 55.18 60.8006 54.7221 61.4498 53.9637Z" fill="black"/>
<path fill-rule="evenodd" clip-rule="evenodd" d="M53.9383 38.4972C53.9322 38.5121 53.9269 38.5272 53.9228 38.5427C53.3342 40.265 52.537 41.9087 51.5686 43.3587C51.464 43.5153 51.5063 43.7269 51.6627 43.8313C51.8192 43.9359 52.0308 43.8937 52.1353 43.7373C52.2487 43.5674 52.3598 43.395 52.4686 43.2202C53.2755 44.5313 54.0533 45.738 55.5736 48.0616C55.6893 48.2386 55.8211 48.4243 56.0031 48.6695C56.0184 48.6902 56.0652 48.7529 56.1245 48.8321C56.2427 48.9902 56.41 49.2141 56.4748 49.302C57.346 50.4851 57.7441 51.2924 57.7565 52.1643C57.7656 52.7165 57.4192 53.8539 57.1555 54.1664C57.0341 54.3102 57.0523 54.525 57.1961 54.6464C57.3398 54.7679 57.5547 54.7497 57.6761 54.6059C58.0543 54.158 58.4496 52.8604 58.438 52.154C58.423 51.0991 57.9736 50.1884 57.0235 48.8979C56.9567 48.8073 56.7857 48.5785 56.6674 48.4204C56.6099 48.3434 56.5649 48.2833 56.5502 48.2635C56.3758 48.0284 56.2509 47.8524 56.1441 47.6887C54.5102 45.1914 53.7366 43.9891 52.8627 42.5594C53.4312 41.5632 53.9262 40.5012 54.3387 39.402C54.4361 39.5536 54.5347 39.7056 54.6346 39.8581C55.4605 41.1184 57.5789 44.0747 58.7163 45.6621L58.7167 45.6627C59.1097 46.2112 59.3855 46.596 59.4502 46.6908C60.9749 48.9235 61.7257 50.4715 61.888 51.9282C61.909 52.1151 62.0775 52.2499 62.2645 52.2291C62.4514 52.2081 62.5862 52.0396 62.5654 51.8526C62.3874 50.2565 61.5959 48.6245 60.0131 46.3066C59.945 46.2069 59.6599 45.809 59.2562 45.2454C58.1129 43.6499 56.018 40.7259 55.2046 39.4845C55.0073 39.1834 54.815 38.8845 54.6272 38.5863C54.9787 37.5301 55.254 36.4468 55.4451 35.3606C57.0046 37.5288 57.6693 38.4683 58.5303 39.7438C60.0204 41.9509 60.547 42.7918 61.3715 44.3606C61.4589 44.5272 61.665 44.5913 61.8315 44.5037C61.9981 44.4163 62.0622 44.2102 61.9746 44.0437C61.1357 42.4473 60.5981 41.5889 59.0952 39.3625C58.2225 38.0698 57.5516 37.1221 55.9627 34.9131C55.7969 34.6826 55.6961 34.5424 55.5923 34.3978C55.7027 33.5453 55.76 32.6954 55.76 31.8598C55.76 31.6715 55.6075 31.5191 55.4192 31.5191C55.231 31.5191 55.0785 31.6715 55.0785 31.8598C55.0785 34.0427 54.6736 36.3312 53.9383 38.4972ZM48.9692 27.3395C49.8063 25.817 50.0264 24.2794 49.6903 23.0538C49.6405 22.8724 49.7474 22.6848 49.9288 22.6351C50.1102 22.5854 50.2978 22.6922 50.3475 22.8736C50.7322 24.2762 50.4862 25.9951 49.5661 27.668C48.7155 29.2146 47.4952 30.1363 45.7702 30.8557C45.5964 30.9281 45.3969 30.846 45.3245 30.6724C45.2521 30.4986 45.3342 30.2991 45.5078 30.2267C47.1034 29.5615 48.2046 28.7296 48.9692 27.3395ZM28.2605 41.2439C28.121 40.9727 28.0648 40.7282 27.982 40.148L27.9721 40.0792C27.9447 39.8889 27.9252 39.7669 27.9 39.6392C27.8639 39.4545 27.6847 39.3342 27.5 39.3705C27.3155 39.4066 27.1953 39.5858 27.2314 39.7705C27.2539 39.8841 27.2718 39.9966 27.2977 40.1761L27.3074 40.2443C27.4007 40.8989 27.4689 41.1945 27.6547 41.5557C27.7408 41.723 27.9462 41.7889 28.1135 41.7027C28.2808 41.6167 28.3467 41.4112 28.2605 41.2439ZM27.5159 11.2338C26.9115 11.277 26.422 11.9039 25.9488 12.9552C25.6414 13.6377 25.3656 14.4649 25.1869 15.1445C24.8343 16.4751 24.7191 17.7438 24.7191 19.6605C24.7191 19.8487 24.8716 20.0012 25.0598 20.0012C25.2481 20.0012 25.4006 19.8487 25.4006 19.6605C25.4006 17.7976 25.5109 16.5821 25.8457 15.3184C26.2895 13.6312 27.0462 11.9506 27.5646 11.9135C27.7523 11.9 27.8936 11.737 27.8801 11.5493C27.8667 11.3615 27.7036 11.2203 27.5159 11.2338ZM24.1978 22.4032L24.1978 22.9262C24.1978 23.1145 24.3503 23.267 24.5385 23.267C24.7268 23.267 24.8793 23.1145 24.8793 22.9262L24.8793 22.4032C24.8793 22.215 24.7268 22.0625 24.5385 22.0625C24.3503 22.0625 24.1978 22.215 24.1978 22.4032ZM25.9917 42.3611C24.4401 41.1018 23.4021 38.0233 23.3767 35.4901C23.3748 35.3019 23.5258 35.1479 23.714 35.146C23.9023 35.1441 24.0563 35.295 24.0581 35.4833C24.0816 37.8335 25.0564 40.7243 26.421 41.832C26.5672 41.9506 26.5895 42.1652 26.4709 42.3112C26.3523 42.4574 26.1377 42.4797 25.9917 42.3611Z" fill="white"/>
</svg>
