<?xml version="1.0" encoding="UTF-8"?>
<svg id="_レイヤー_1" data-name="レイヤー_1" xmlns="http://www.w3.org/2000/svg" version="1.1" viewBox="0 0 303.2 45.5">
  <!-- Generator: Adobe Illustrator 29.5.1, SVG Export Plug-In . SVG Version: 2.1.0 Build 141)  -->
  <path d="M111.8,23.7v4.6c2.2,0,4.3.1,6.5.1,6.1,0,12.2-.4,18.1-1v16c-5.8.6-11.8.9-18.1.9s-16-.5-23.4-1.5V1.2h17v6.7h24.5v15.9h-24.5ZM123.4,1.3h5.7v4.4h-5.7V1.3ZM130.6,1.3h5.7v4.4h-5.7V1.3Z"/>
  <path d="M303.2,43.8h-43l5.1-42.6h17l-3.3,27.6h6.5c-.7-6.3-1.8-12.7-2.1-13.7h16.5c.8,1.9,3.3,21,3.3,28.7Z"/>
  <g>
    <path d="M21.1,9v7.3h-6.2l-.7,4.9H5.9l.7-4.9H0v-7.3h21.1ZM20.5,8H.6V.8h13.3v2.4h6.6v4.9ZM17.5,2.4h-2.8V.2h2.8v2.2ZM21.1,2.4h-2.8V.2h2.8v2.2Z"/>
    <path d="M43.2,4.5v7.5h-1.5c0,3.3-.6,8.1-.9,9.2h-7.7c.4-1.5.8-7.4.8-9.2h-2.5v5.6h-7.7v-5.6h-1.7v-7.5h1.7V.2h7.7v4.3h2.4V.2h2.1v2.9h5.7v1.3h1.5ZM39.6,2.4h-2.8V.2h2.8v2.2ZM40.4,2.4V.2h2.8v2.2h-2.8Z"/>
    <path d="M65.4,8.3l-5.5,1.1v11.9h-9v-10.1l-6.6,1.3V4.2L65.4,0v8.3Z"/>
    <path d="M81.3,8l-14.8-.7V0l14.8.7v7.2ZM87.6,8.8v7.9c-4.9,1.9-9.4,2.9-9.4,2.9,0,0-4.5,1-11.7,1.8v-7.9c6.5-.5,11.7-1.8,11.7-1.8,0,0,5.1-1.3,9.4-2.9Z"/>
    <path d="M14.5,45.3c0-1.7-.4-2.9-1.1-3.8l-3.3,3.8H.4l11.5-13H.8v-7.5h20.5v7.5l-2.7,3.2c2.8,2.9,3.5,5.6,3.5,9.8h-7.6Z"/>
    <path d="M44,24.8c-1,9.2-1.3,11.3-1.3,11.3-.2,2.2-1.3,8.5-1.7,9.2h-8.4c.3-.6.9-3.4,1.4-5.9h-3.9l-.3,1.9h-7l2.2-16.5h19.1ZM31,33.1h3.9c0-.4.1-.9.2-1.4h-3.8l-.2,1.4Z"/>
    <path d="M59.8,30.5l-14.8-.7v-5.7l13.3.7v2.5h1.5v3.3ZM66.1,33.6v7.2c-4.9,1.9-9.4,2.9-9.4,2.9,0,0-4.5,1-11.7,1.8v-7.2c5.3-.4,10.1-1.4,10.1-1.4l-10.1-.5v-5.7l14.8.7v4.3s3.6-1.1,6.3-2.1ZM59.2,26.5v-2.2h2.8v2.2h-2.8ZM65.6,26.5h-2.8v-2.2h2.8v2.2Z"/>
    <path d="M88.3,34h-1.7v11.3h-8.1v-10.9l-3.2,10.9h-8.3l3.6-11.3h-3.4v-7.5h11.2v-2.3h8.1v2.3h1.7v7.5Z"/>
  </g>
  <g>
    <path d="M145.3,19.8c7.8,0,7.8,6,15.6,6s7.8-6,15.6-6,7.8,6,15.6,6,7.8-6,15.6-6,7.8,6,15.6,6,7.8-6,15.6-6,7.8,6,15.6,6"/>
    <path d="M254.7,33.8c-6.6,0-10.4-2.9-12.7-4.7-1.6-1.2-1.8-1.3-2.9-1.3s-1.4.1-2.9,1.3c-2.3,1.7-6.1,4.7-12.7,4.7s-10.4-2.9-12.7-4.7c-1.6-1.2-1.8-1.3-2.9-1.3s-1.4.1-2.9,1.3c-2.3,1.7-6.1,4.7-12.7,4.7s-10.4-2.9-12.7-4.7c-1.6-1.2-1.7-1.3-2.9-1.3s-1.4.1-2.9,1.3c-2.3,1.7-6.1,4.7-12.7,4.7s-10.4-2.9-12.7-4.7c-1.6-1.2-1.8-1.3-2.9-1.3V11.8c6.6,0,10.4,2.9,12.7,4.7,1.6,1.2,1.8,1.3,2.9,1.3s1.4-.1,2.9-1.3c2.3-1.7,6.1-4.7,12.7-4.7s10.4,2.9,12.7,4.7c1.6,1.2,1.7,1.3,2.9,1.3s1.4-.1,2.9-1.3c2.3-1.7,6.1-4.7,12.7-4.7s10.4,2.9,12.7,4.7c1.6,1.2,1.8,1.3,2.9,1.3s1.4-.1,2.9-1.3c2.3-1.7,6.1-4.7,12.7-4.7s10.4,2.9,12.7,4.7c1.6,1.2,1.8,1.3,2.9,1.3v16Z"/>
  </g>
</svg>