<svg width="21" height="21" viewBox="0 0 21 21" fill="none" xmlns="http://www.w3.org/2000/svg">
<path d="M19.6532 7.39189C19.6411 7.19783 19.488 7.04219 19.2941 7.02698C19.268 7.02503 19.2185 7.02113 19.1484 7.01587C19.0318 7.00709 18.8996 6.99714 18.7545 6.98661C18.3402 6.95618 17.9059 6.92576 17.4725 6.89748C17.2211 6.88109 16.9769 6.86569 16.7425 6.85184C15.9331 6.80386 15.2764 6.77422 14.8243 6.76837C14.7045 6.7668 14.6022 6.76544 14.3981 6.76251C13.5076 6.75003 13.1273 6.74555 12.6401 6.74321C11.4948 6.73794 10.5487 6.75549 9.62542 6.80601C8.63074 6.86003 7.83519 6.86081 6.0551 6.83058C5.03233 6.81322 4.58043 6.80816 4.0119 6.81167C2.91034 6.81869 1.97671 6.86667 1.0772 6.97394C0.903424 6.9948 0.764751 7.12879 0.738031 7.30179C0.596045 8.22119 0.50399 9.21411 0.420515 10.562C0.399451 10.9016 0.38833 11.0943 0.348543 11.8081C0.297444 12.7224 0.26897 13.1876 0.229378 13.7013C0.182959 14.3044 0.151557 15.0921 0.132443 16.0216C0.110794 17.0836 0.107285 18.2082 0.114111 19.2228C0.114891 19.3191 0.115479 19.4051 0.11626 19.4794C0.11665 19.5241 0.117041 19.5549 0.117236 19.5713C0.119576 19.779 0.284379 19.9483 0.491898 19.9565C0.522518 19.9577 0.580445 19.9598 0.66275 19.9629C0.79986 19.9682 0.954913 19.974 1.12498 19.9803C1.61101 19.9982 2.11947 20.0162 2.62598 20.0329C2.90507 20.0421 3.17637 20.0509 3.43733 20.0587C4.38032 20.0872 5.14272 20.1049 5.66113 20.1088C6.43522 20.1143 7.24423 20.1028 8.18411 20.0759C8.7462 20.0599 9.19693 20.0441 10.2045 20.0062C11.7039 19.9502 12.3668 19.9286 13.1956 19.9138C13.7978 19.9027 14.5846 19.8588 15.5136 19.7886C15.8997 19.7593 16.3042 19.726 16.7212 19.6893C17.2843 19.6399 17.8421 19.5869 18.3699 19.5338C18.5546 19.5153 18.7223 19.498 18.8699 19.4826C18.9587 19.4732 19.0213 19.4666 19.0542 19.463C19.2227 19.4447 19.36 19.3197 19.3942 19.1537C19.6413 17.9531 19.7708 16.2348 19.8055 14.1257C19.8322 12.5061 19.8014 10.7724 19.7341 9.06979C19.7164 8.62315 19.6975 8.21339 19.6785 7.84906C19.6719 7.72131 19.6657 7.60838 19.6602 7.51145C19.6569 7.45314 19.6544 7.41296 19.6532 7.39189Z" fill="white"/>
<path fill-rule="evenodd" clip-rule="evenodd" d="M7.82721 6.92928C7.62905 6.79685 7.29964 6.58191 6.95053 6.35392H6.95033C6.43836 6.01963 5.88349 5.65744 5.63677 5.48698C3.74901 4.18161 2.68041 3.06269 2.53082 1.84859C2.33325 0.252611 3.13407 -0.343223 4.35324 0.191371C5.18448 0.555893 6.23279 1.45501 6.83194 2.26519C7.5881 3.28756 8.05735 4.12993 8.32767 5.11154C8.37624 4.97267 8.42285 4.84395 8.4681 4.7242C8.58805 4.40727 8.69629 4.15918 8.79771 3.97897C9.39608 2.91875 10.3317 1.69978 11.025 1.21102C11.5571 0.835768 12.1972 0.520398 12.7595 0.421514C13.6299 0.268411 14.288 0.646584 14.4616 1.59407C14.5716 2.19224 14.2967 2.78437 13.7516 3.38411C13.3937 3.77789 13.0054 4.09911 12.4152 4.53346C11.5155 5.18078 10.5899 5.78734 9.63987 6.35216C11.0845 6.71551 12.1469 8.07063 12.4802 9.67909C12.5239 9.89011 12.3883 10.0965 12.1775 10.1403C11.9665 10.184 11.7601 10.0485 11.7162 9.83745C11.3761 8.19564 10.153 6.91192 8.61594 7.04942C8.61984 7.12373 8.62335 7.1992 8.62627 7.27605C8.62725 7.29828 8.62608 7.32071 8.62316 7.34275C8.34582 9.41579 8.20305 11.5046 8.19563 13.596C8.21065 16.3985 8.27423 17.9593 8.49131 19.7638C8.51686 19.9778 8.36434 20.172 8.15058 20.1978C7.93663 20.2235 7.74237 20.071 7.71663 19.857C7.49526 18.0159 7.4307 16.4302 7.41549 13.5968C7.4229 11.4795 7.56665 9.3682 7.84555 7.27293C7.84067 7.15513 7.83462 7.04084 7.82721 6.92928ZM6.20471 2.72898C5.68162 2.02198 4.73667 1.21141 4.04 0.905982C3.37454 0.614209 3.18185 0.757559 3.30511 1.75283C3.41726 2.66345 4.37391 3.66516 6.08047 4.84532C6.31256 5.00564 6.84287 5.35182 7.34567 5.68026L7.34625 5.68046C7.47068 5.76179 7.59356 5.84195 7.7098 5.91802C7.50326 4.75307 7.05682 3.88125 6.20471 2.72898ZM13.6943 1.73488C13.8004 2.31219 13.1611 3.01569 11.9563 3.90271C10.9669 4.61439 9.94355 5.27693 8.88938 5.88798C8.93131 5.76042 8.96837 5.64809 8.99372 5.57339C9.06628 5.35924 9.13376 5.16927 9.19773 5.00037C9.3048 4.71718 9.39939 4.50049 9.47741 4.36221C10.0233 3.39444 10.8981 2.25504 11.4746 1.84859C11.9212 1.5338 12.4659 1.26524 12.8944 1.18976C13.3694 1.10628 13.6038 1.24105 13.6943 1.73488Z" fill="#FC6E47"/>
<path d="M8.06606 6.9519C7.33351 6.85067 6.25945 6.93922 5.83427 7.16975C4.71437 7.81747 3.80961 8.79732 3.24868 9.97476C3.15604 10.1694 2.92317 10.2519 2.72871 10.1593C2.53426 10.0666 2.45157 9.83374 2.54421 9.63929C3.17301 8.31929 4.18739 7.22104 5.45317 6.48927C6.06266 6.15849 7.29099 6.05727 8.17294 6.17916C8.38631 6.20861 8.53532 6.4056 8.50587 6.61897C8.47642 6.83234 8.27943 6.98154 8.06606 6.9519Z" fill="#FC6E47"/>
<path d="M19.6275 12.9871C18.8415 12.9295 18.2585 12.8839 16.7696 12.7645C13.7329 12.5209 12.3134 12.4199 10.5914 12.3427C9.31006 12.2851 8.12151 12.2594 6.98153 12.2684C3.8986 12.2939 2.40462 12.3579 0.437685 12.599C0.223731 12.6253 0.029285 12.4732 0.00295521 12.2592C-0.0231796 12.0455 0.128943 11.8508 0.342703 11.8247C2.3465 11.5791 3.86447 11.514 6.97529 11.4882C8.1301 11.4793 9.3319 11.5052 10.6266 11.5633C12.3606 11.6411 13.7863 11.7426 16.832 11.9867C18.319 12.1061 18.9008 12.1517 19.6842 12.2089C19.8991 12.2247 20.0606 12.4115 20.0448 12.6265C20.0292 12.8414 19.8422 13.0027 19.6275 12.9871Z" fill="#FC6E47"/>
</svg>
