<svg width="400" height="200" viewBox="0 0 400 200" fill="none" xmlns="http://www.w3.org/2000/svg">
<rect width="400" height="200" fill="white"/>
<path d="M137.821 46.2685C138.453 46.274 139.08 46.1704 139.676 45.9629C146.641 43.4661 161.949 41.1068 175.509 41.4827C178.547 41.5671 181.078 39.1726 181.163 36.1346C181.247 33.0965 178.853 30.5653 175.815 30.4809C164.311 30.1753 146.436 31.85 135.966 35.6059C133.473 36.5242 131.993 39.0932 132.448 41.7107C132.904 44.3282 135.165 46.2462 137.821 46.2685Z" fill="#EFEFED"/>
<path d="M177.352 47.9678C174.318 47.7988 171.722 50.1214 171.553 53.1555C171.384 56.1892 173.707 58.7854 176.741 58.9544C181.691 59.2233 186.584 58.9544 191.321 58.6946C199.132 58.2667 206.51 57.8633 213.563 59.8009C214.039 59.9299 214.53 59.9956 215.024 59.9965C217.778 59.9953 220.107 57.9575 220.474 55.2278C220.84 52.4981 219.132 49.9178 216.476 49.1902C207.699 46.782 199.056 47.2526 190.719 47.711C186.086 47.9647 181.701 48.2061 177.352 47.9678Z" fill="#EFEFED"/>
<path d="M223.08 42.2711C225.846 42.4148 228.624 42.6256 231.567 42.8487C236.829 43.2491 242.226 43.6616 247.602 43.6616C249.378 43.6616 251.153 43.6158 252.916 43.5119C254.881 43.3951 256.633 42.239 257.514 40.4796C258.395 38.7203 258.271 36.6245 257.187 34.9818C256.104 33.3392 254.227 32.3992 252.262 32.5161C245.903 32.895 239.039 32.3724 232.398 31.8682C229.522 31.6481 226.549 31.422 223.648 31.257C221.683 31.1549 219.813 32.109 218.742 33.76C217.67 35.4109 217.562 37.5079 218.456 39.2609C219.35 41.0139 221.112 42.1568 223.077 42.2589L223.08 42.2711Z" fill="#EFEFED"/>
<path d="M243.806 82.6603C246.469 82.6588 248.749 80.7496 249.218 78.1281C249.687 75.5063 248.21 72.9254 245.713 72.0007C238.974 69.51 229.461 69.5711 221.066 69.6261C217.704 69.6475 214.535 69.6689 211.953 69.5222C209.943 69.3232 207.986 70.2413 206.855 71.9136C205.723 73.5859 205.599 75.7438 206.531 77.5352C207.463 79.3264 209.301 80.4633 211.32 80.4966C214.251 80.6647 217.591 80.6433 221.13 80.6188C228.587 80.5699 237.037 80.5149 241.893 82.3088C242.505 82.5387 243.153 82.6575 243.806 82.6603Z" fill="#EFEFED"/>
<path d="M251.596 62.9179C251.513 64.3775 252.014 65.8102 252.988 66.8997C253.963 67.9892 255.332 68.6459 256.791 68.7245C259.148 68.8498 261.507 69.1187 264.007 69.4029C267.598 69.8124 271.302 70.2342 275.146 70.2342H275.672C278.71 70.2192 281.161 67.7441 281.145 64.7057C281.13 61.6677 278.655 59.2173 275.617 59.2323H275.559C272.197 59.2628 268.835 58.8808 265.254 58.4744C262.702 58.184 260.058 57.8815 257.384 57.7379C254.357 57.5747 251.768 59.8915 251.596 62.9179Z" fill="#EFEFED"/>
<path d="M144.178 107.39C152.637 109.404 162.175 111.669 170.54 111.669C170.913 111.669 171.282 111.669 171.649 111.669C174.687 111.631 177.119 109.137 177.081 106.099C177.043 103.061 174.55 100.629 171.512 100.667H171.377C164.186 100.847 154.911 98.6378 146.727 96.6941C143.83 96.0034 141.091 95.3525 138.439 94.7963C135.509 94.2648 132.689 96.1602 132.074 99.0729C131.459 101.986 133.274 104.859 136.168 105.557C138.677 106.067 141.348 106.703 144.178 107.39Z" fill="#EFEFED"/>
<path d="M234.855 107.842C242.226 110.348 252.745 112.209 260.272 113.328C260.543 113.367 260.816 113.386 261.088 113.386C263.965 113.379 266.35 111.157 266.561 108.288C266.772 105.419 264.736 102.873 261.892 102.445C254.811 101.391 244.989 99.6673 238.397 97.4272C236.529 96.764 234.448 97.158 232.951 98.4577C231.454 99.7575 230.772 101.762 231.166 103.705C231.561 105.648 232.97 107.229 234.855 107.842Z" fill="#EFEFED"/>
<path d="M246.004 142.324C245.938 139.287 243.424 136.878 240.386 136.942C235.497 137.046 230.506 136.927 225.675 136.811C219.978 136.674 214.086 136.53 208.185 136.744C205.147 136.798 202.727 139.304 202.781 142.343C202.835 145.381 205.342 147.8 208.38 147.746H208.582C214.153 147.544 219.874 147.682 225.409 147.816C229.009 147.902 232.697 147.99 236.41 147.99C237.807 147.99 239.213 147.99 240.616 147.947C242.076 147.918 243.465 147.308 244.476 146.253C245.487 145.198 246.036 143.785 246.004 142.324Z" fill="#EFEFED"/>
<path d="M278.034 125.332L264.416 125.659C261.378 125.696 258.945 128.188 258.981 131.226C259.017 134.264 261.51 136.698 264.548 136.661H264.682L278.297 136.334C280.262 136.288 282.053 135.196 282.995 133.47C283.937 131.745 283.887 129.648 282.864 127.969C281.841 126.29 280 125.286 278.034 125.332Z" fill="#EFEFED"/>
<path d="M271.094 157.024C264.982 154.784 257.473 155.383 250.854 155.915C248.644 156.092 246.557 156.257 244.741 156.303C241.703 156.338 239.269 158.83 239.305 161.868C239.34 164.906 241.832 167.34 244.87 167.305H245.004C247.143 167.253 249.377 167.072 251.743 166.883C257.244 166.443 263.469 165.945 267.329 167.356C270.175 168.38 273.314 166.914 274.356 164.074C275.397 161.233 273.949 158.085 271.115 157.027L271.094 157.024Z" fill="#EFEFED"/>
<path d="M197.815 157.479C196.389 157.32 194.994 157.16 193.629 156.999C184.839 155.981 176.539 155.019 166.848 155.254C163.81 155.327 161.407 157.85 161.48 160.888C161.553 163.926 164.076 166.329 167.114 166.256C176.038 166.039 183.602 166.916 192.36 167.931L196.59 168.417C196.793 168.44 196.997 168.451 197.201 168.45C200.122 168.452 202.535 166.172 202.697 163.256C202.86 160.339 200.715 157.804 197.812 157.482L197.815 157.479Z" fill="#EFEFED"/>
<path d="M170.46 148.647C173.266 148.654 175.627 146.549 175.94 143.761C176.254 140.974 174.419 138.396 171.683 137.78C167.536 136.839 163.251 136.124 159.107 135.43C152.958 134.4 147.152 133.428 141.739 131.793C138.83 130.915 135.761 132.562 134.883 135.471C134.005 138.38 135.652 141.45 138.561 142.327C144.646 144.161 151.072 145.24 157.292 146.279C161.466 146.979 165.409 147.639 169.25 148.51C169.647 148.6 170.053 148.646 170.46 148.647Z" fill="#EFEFED"/>
<path d="M175.124 117.811C172.251 117.958 169.773 118.083 167.416 117.487C164.466 116.743 161.471 118.531 160.727 121.482C159.982 124.432 161.771 127.427 164.721 128.172C168.679 129.171 172.398 128.981 175.683 128.813C179.017 128.645 181.899 128.508 184.729 129.486C186.585 130.133 188.645 129.74 190.134 128.456C191.622 127.172 192.312 125.192 191.944 123.261C191.577 121.33 190.206 119.742 188.351 119.095C183.485 117.387 179.042 117.613 175.124 117.811Z" fill="#EFEFED"/>
<path d="M162.881 72.5967C165.913 72.806 168.54 70.5186 168.749 67.4869C168.958 64.4556 166.67 61.8286 163.639 61.6193C155.999 61.0906 148.334 61.7079 140.923 62.3069C137.626 62.5697 134.2 62.8447 130.933 63.0037C127.895 63.0755 125.49 65.5964 125.562 68.6345C125.634 71.6728 128.155 74.0774 131.193 74.0055H131.462C134.918 73.8375 138.42 73.5563 141.806 73.2843C148.814 72.7067 156.057 72.123 162.881 72.5967Z" fill="#EFEFED"/>
<path d="M200.817 99.0257C203.6 99.0221 205.942 96.9397 206.271 94.1757C206.601 91.4118 204.814 88.8377 202.109 88.1797C195.997 86.6945 190.829 86.1413 185.848 86.4377C183.886 86.5545 182.135 87.7091 181.256 89.4669C180.376 91.2245 180.5 93.3179 181.583 94.9587C182.665 96.5992 184.54 97.538 186.502 97.4213C190.362 97.1921 194.497 97.6505 199.515 98.8699C199.941 98.9741 200.378 99.0266 200.817 99.0257Z" fill="#EFEFED"/>
<path d="M210.8 126.274H210.935L222.606 125.993C225.644 125.956 228.078 123.464 228.041 120.426C228.005 117.388 225.513 114.955 222.475 114.991H222.34L210.669 115.272C207.631 115.308 205.197 117.8 205.234 120.838C205.27 123.877 207.762 126.31 210.8 126.274Z" fill="#EFEFED"/>
<path d="M28.5519 78.2571C28.5519 78.2571 32.7838 89.4128 35.9803 93.2273C38.7347 96.5088 43.3896 98.1247 44.6442 101.837C45.8004 105.251 41.9697 112.957 42.9575 119.77C44.2983 128.98 50.2841 137.219 50.2841 137.219L97.8809 117.3C97.8809 117.3 90.4651 114.347 86.955 108.298C84.0541 103.298 84.9886 95.199 84.6347 93.6382C83.0448 86.6036 76.7722 81.5155 73.3123 77.2486C67.5442 70.1376 67.6309 63.0093 67.6309 63.0093L28.5519 78.2571Z" fill="white" stroke="black" stroke-width="0.8"/>
<path d="M50.3826 137.629C50.1562 137.683 49.9241 137.621 49.8104 137.465C49.7509 137.382 43.7599 129.053 42.423 119.867C41.8888 116.178 42.7281 112.301 43.4693 108.881C44.094 105.995 44.6342 103.501 44.1241 101.992C43.4052 99.8669 41.4913 98.4416 39.4641 96.9334C38.0823 95.904 36.6525 94.8393 35.5236 93.4933C32.3244 89.6772 28.2081 78.8824 28.0349 78.4246C27.9564 78.2183 28.0989 77.9792 28.3623 77.8761L67.4415 62.6277C67.6066 62.5646 67.7934 62.5645 67.9385 62.6316C68.0836 62.6986 68.17 62.8226 68.1684 62.9636C68.1679 63.033 68.1578 70.0635 73.7742 76.9878C74.5974 78.0037 75.587 79.0713 76.6353 80.2023C80.0579 83.8964 83.9358 88.0833 85.1641 93.5157C85.2633 93.9504 85.2687 94.7777 85.2767 95.9223C85.2993 99.1089 85.337 104.444 87.4471 108.082C90.8462 113.939 98.0914 116.882 98.1642 116.912C98.336 116.981 98.4337 117.124 98.4172 117.285C98.4006 117.446 98.2722 117.596 98.0857 117.675L50.4888 137.594C50.4541 137.608 50.4187 137.62 50.3826 137.629ZM29.2085 78.4564C29.9682 80.4068 33.6389 89.6221 36.4393 92.9613C37.5109 94.2385 38.9008 95.2742 40.2469 96.2754C42.3705 97.8562 44.3772 99.35 45.1651 101.681C45.7341 103.363 45.175 105.943 44.5284 108.929C43.7998 112.292 42.9747 116.102 43.4919 119.672C44.6593 127.692 49.4416 135.055 50.535 136.653L96.7487 117.313C94.6704 116.337 89.3303 113.458 86.4615 108.514C84.262 104.724 84.2244 99.2796 84.2005 96.0271C84.1941 94.9657 84.1873 94.1275 84.1045 93.7612C82.9172 88.5045 79.1057 84.3913 75.7435 80.7622C74.6877 79.6218 73.6893 78.5451 72.8495 77.5097C67.9775 71.503 67.2267 65.5605 67.112 63.6659L29.2085 78.4564Z" fill="black" stroke="black" stroke-width="0.8"/>
<path d="M39.3279 84.8158C39.1326 84.8628 38.9245 84.8241 38.7975 84.7007C38.6205 84.5283 38.6697 84.2566 38.9083 84.0942C42.5742 81.5966 46.8768 79.804 51.0396 78.0706C55.158 76.3549 59.4174 74.5799 63.0113 72.1332C63.2517 71.9725 63.588 71.9813 63.7643 72.1509C63.9414 72.3234 63.8909 72.5954 63.6535 72.7574C59.9498 75.2784 55.6268 77.0789 51.4463 78.8207C47.3458 80.529 43.1067 82.2951 39.5506 84.7185C39.4826 84.7643 39.4063 84.797 39.3279 84.8158Z" fill="black" stroke="black" stroke-width="0.8"/>
<path d="M45.708 92.0438C45.4505 92.1057 45.1901 92.0134 45.1027 91.8194C45.0054 91.6063 45.1557 91.35 45.4364 91.2479C46.519 90.8521 47.3461 90.3567 48.2213 89.8314C48.5249 89.6494 48.8343 89.4639 49.1631 89.2768C50.0181 88.788 50.9358 88.5929 51.8265 88.4062C52.5614 88.25 53.252 88.1064 53.8691 87.8051C55.3399 87.0969 56.7884 86.2962 58.1891 85.5212C59.5981 84.7423 61.0549 83.9375 62.5521 83.2138L62.9826 83.0063C66.6272 81.2578 68.6547 80.1447 69.0081 79.6989C69.1754 79.4916 69.5106 79.4079 69.7551 79.5163C70.0011 79.6253 70.0646 79.8842 69.898 80.0944C69.2891 80.8625 66.441 82.2952 63.4547 83.7275L63.0277 83.9331C61.5622 84.6411 60.1219 85.4378 58.7292 86.2077C57.312 86.9908 55.8474 87.8014 54.3447 88.5245C53.5779 88.8984 52.7662 89.069 51.9846 89.2335C51.157 89.409 50.3875 89.5695 49.7194 89.9543C49.3974 90.1367 49.0963 90.3182 48.8006 90.4952C47.8702 91.0532 46.9903 91.5806 45.7852 92.0201C45.76 92.0303 45.7341 92.0375 45.708 92.0438Z" fill="black" stroke="black" stroke-width="0.8"/>
<path d="M51.226 101.104C50.9697 101.166 50.7084 101.075 50.6209 100.881C50.5236 100.668 50.6727 100.412 50.9532 100.309C54.9425 98.8443 58.8948 97.2154 62.7167 95.6403C66.5206 94.0726 70.4551 92.4511 74.3952 91.0066C74.6713 90.9015 74.9812 90.9921 75.0788 91.2061C75.176 91.4191 75.0272 91.6761 74.7465 91.7782C70.8318 93.2136 66.9106 94.8298 63.1187 96.3926C59.2848 97.9726 55.3194 99.6077 51.3045 101.08C51.2791 101.09 51.2521 101.098 51.226 101.104Z" fill="black" stroke="black" stroke-width="0.8"/>
<path d="M51.0079 111.08C50.1209 111.294 49.2572 111.418 48.443 111.408C48.1489 111.406 47.9416 111.211 47.9805 110.973C48.0184 110.737 48.2915 110.548 48.5843 110.551C51.2577 110.581 54.7716 108.897 57.5966 107.543C58.1537 107.276 58.6833 107.022 59.174 106.797C61.974 105.514 64.9557 104.462 67.8389 103.444C71.0195 102.321 74.3069 101.161 77.3526 99.6912C77.6279 99.5609 77.9433 99.6195 78.0726 99.8178C78.2045 100.016 78.0947 100.282 77.8282 100.411C74.7142 101.914 71.3905 103.087 68.1747 104.222C65.3204 105.229 62.3679 106.271 59.6249 107.528C59.1401 107.751 58.6173 108.001 58.0674 108.264C55.9165 109.296 53.3828 110.509 51.0079 111.08Z" fill="black" stroke="black" stroke-width="0.8"/>
<path d="M52.5355 123.061C52.2792 123.123 52.0178 123.032 51.9304 122.837C51.8331 122.624 51.9821 122.368 52.2626 122.265C57.628 120.296 62.9644 118.047 68.1264 115.871C73.2848 113.698 78.6177 111.451 83.9724 109.486C84.2501 109.387 84.5597 109.471 84.656 109.685C84.7532 109.898 84.6042 110.154 84.3237 110.257C79.0007 112.212 73.682 114.452 68.538 116.62C63.3629 118.801 58.0097 121.057 52.6139 123.037C52.5885 123.046 52.5616 123.055 52.5355 123.061Z" fill="black" stroke="black" stroke-width="0.8"/>
<path d="M60.967 128.591C60.7356 128.647 60.4959 128.58 60.3864 128.415C60.2544 128.216 60.3642 127.95 60.6308 127.822C64.2629 126.065 67.834 124.892 71.6161 123.649L72.8819 123.233C73.1634 123.161 73.4651 123.24 73.5517 123.457C73.6368 123.674 73.4749 123.926 73.1898 124.021L71.9227 124.438C68.1857 125.665 64.6561 126.825 61.1064 128.541C61.0616 128.563 61.0143 128.58 60.967 128.591Z" fill="black" stroke="black" stroke-width="0.8"/>
<path d="M117.749 45.0025C117.749 45.0025 119.051 56.8627 117.937 61.7134C116.975 65.8882 113.558 69.4445 114.128 73.3212C114.655 76.8865 121.565 82.0111 123.781 88.5281C126.779 97.3405 125.191 107.399 125.191 107.399L73.7363 111.292C73.7363 111.292 79.0048 105.29 79.382 98.3061C79.6936 92.5346 75.1748 85.7461 74.7806 84.1949C73.0043 77.2051 76.2731 69.8192 77.4164 64.4499C79.3273 55.4929 76.01 49.1829 76.01 49.1829L117.749 45.0025Z" fill="white" stroke="black" stroke-width="0.8"/>
<path d="M125.289 107.81C125.254 107.819 125.215 107.824 125.179 107.827L73.7242 111.719C73.5202 111.735 73.3386 111.659 73.2507 111.523C73.1628 111.387 73.1845 111.215 73.3063 111.075C73.3579 111.016 78.4788 105.101 78.8453 98.3374C79.0705 94.1394 76.6768 89.3714 75.2472 86.5231C74.7326 85.4993 74.3627 84.7596 74.253 84.3253C72.881 78.9245 74.4313 73.4286 75.8026 68.579C76.2183 67.1002 76.614 65.7026 76.8862 64.4264C78.7456 55.706 75.5411 49.4483 75.5079 49.387C75.4436 49.2618 75.463 49.1124 75.5617 48.9867C75.6632 48.8615 75.8299 48.7776 76.004 48.7571L117.744 44.5771C118.024 44.5495 118.26 44.6977 118.284 44.9172C118.337 45.4036 119.58 56.8893 118.465 61.7426C118.071 63.4546 117.281 65.0519 116.516 66.5975C115.394 68.8636 114.335 71.0027 114.663 73.222C114.894 74.798 116.509 76.7723 118.377 79.0596C120.589 81.7697 123.099 84.8424 124.3 88.3723C127.289 97.1604 125.74 107.302 125.723 107.404C125.694 107.593 125.515 107.756 125.289 107.81ZM74.7509 110.789L124.709 107.01C124.956 105.09 125.869 96.3523 123.259 88.6837C122.099 85.2683 119.631 82.2488 117.453 79.5844C115.521 77.2186 113.853 75.1756 113.595 73.4197C113.235 70.9846 114.346 68.7415 115.521 66.3669C116.264 64.8632 117.033 63.3087 117.408 61.6846C118.383 57.438 117.464 47.5612 117.253 45.4789L76.7693 49.5322C77.5296 51.2715 79.5605 56.9063 77.945 64.4735C77.6702 65.7717 77.2718 67.1802 76.8488 68.672C75.5044 73.4366 73.981 78.8364 75.3062 84.064C75.3989 84.428 75.7766 85.178 76.2523 86.1276C77.7116 89.034 80.155 93.8991 79.9198 98.2747C79.6103 103.983 76.1597 108.975 74.7509 110.789Z" fill="black" stroke="black" stroke-width="0.8"/>
<path d="M111.132 55.7424C111.052 55.7616 110.972 55.7666 110.891 55.7566C106.62 55.2147 102.042 55.5684 97.6128 55.9105C93.0989 56.2598 88.4296 56.6199 83.986 56.0575C83.6984 56.0217 83.5323 55.8017 83.6103 55.5679C83.6886 55.3351 83.9874 55.1766 84.2718 55.2101C88.5853 55.757 93.1872 55.4008 97.6341 55.0574C102.13 54.7104 106.776 54.3518 111.176 54.9093C111.464 54.9451 111.63 55.1651 111.552 55.3989C111.495 55.5655 111.326 55.6958 111.132 55.7424Z" fill="black" stroke="black" stroke-width="0.8"/>
<path d="M108.727 65.0822C108.702 65.0882 108.674 65.0938 108.649 65.0959C107.383 65.2513 106.369 65.1823 105.293 65.1096C104.943 65.0858 104.584 65.0609 104.209 65.0441C103.434 65.0052 102.673 65.2126 101.865 65.4303C101.092 65.6407 100.298 65.8548 99.4391 65.8718C97.7745 65.9102 96.1002 65.854 94.482 65.8008C92.8927 65.7476 91.2477 65.6926 89.6217 65.7278L89.1403 65.7396C85.8277 65.8205 82.6399 65.8398 81.7499 65.433C81.5047 65.3218 81.4449 65.062 81.6157 64.8528C81.784 64.6442 82.1228 64.5648 82.3628 64.6762C82.8802 64.9126 85.1893 64.9823 89.2317 64.8829L89.7184 64.8709C91.381 64.835 93.0444 64.8897 94.6522 64.9435C96.2522 64.9971 97.9076 65.0516 99.5358 65.0149C100.224 65.0002 100.904 64.8145 101.628 64.6219C102.513 64.3818 103.415 64.1394 104.396 64.189C104.779 64.206 105.148 64.2304 105.507 64.2553C106.518 64.323 107.473 64.3879 108.608 64.2495C108.905 64.2129 109.154 64.3732 109.165 64.6069C109.177 64.8191 108.986 65.02 108.727 65.0822Z" fill="black" stroke="black" stroke-width="0.8"/>
<path d="M107.935 75.6597C107.91 75.6657 107.883 75.6713 107.854 75.674C103.609 76.1871 99.3362 76.5334 95.2031 76.8686C91.1137 77.1994 86.885 77.5423 82.7444 78.0434C82.4455 78.0806 82.1961 77.9194 82.1872 77.6851C82.1787 77.4527 82.4121 77.2193 82.7042 77.197C86.8753 76.6916 91.1168 76.3477 95.2216 76.0152C99.3393 75.6816 103.599 75.3354 107.819 74.8264C108.116 74.7907 108.365 74.951 108.374 75.1853C108.383 75.3982 108.194 75.5975 107.935 75.6597Z" fill="black" stroke="black" stroke-width="0.8"/>
<path d="M112.663 84.4465C110.287 85.0177 107.475 85.0884 105.089 85.1483C104.479 85.1634 103.901 85.178 103.369 85.1998C100.357 85.3267 97.2539 85.7405 94.2547 86.1394C90.8759 86.5909 87.3822 87.0567 83.9287 87.1317C83.633 87.1386 83.4143 86.9517 83.4391 86.7154C83.4669 86.4804 83.7322 86.2811 84.0229 86.2754C87.4028 86.2008 90.8583 85.7401 94.199 85.2947C97.231 84.8899 100.365 84.4728 103.437 84.3437C103.977 84.3211 104.563 84.3066 105.18 84.2907C108.314 84.2129 112.212 84.1136 114.578 82.8744C114.845 82.7378 115.169 82.7832 115.307 82.9762C115.449 83.1695 115.352 83.4372 115.093 83.5739C114.373 83.9518 113.549 84.2336 112.663 84.4465Z" fill="black" stroke="black" stroke-width="0.8"/>
<path d="M116.744 95.8145C116.719 95.8205 116.691 95.8251 116.663 95.8278C110.964 96.5149 105.175 96.9383 99.576 97.3487C94.0074 97.7559 88.2497 98.1759 82.6151 98.8557C82.3186 98.8924 82.069 98.7302 82.0601 98.4959C82.0516 98.2635 82.2561 98.0411 82.5798 98.0082C88.2452 97.325 94.0178 96.9014 99.6022 96.4945C105.186 96.0857 110.959 95.664 116.627 94.9802C116.924 94.9436 117.173 95.1058 117.182 95.3401C117.191 95.552 117.002 95.7523 116.744 95.8145Z" fill="black" stroke="black" stroke-width="0.8"/>
<path d="M111.753 104.57C111.706 104.582 111.657 104.587 111.605 104.589C107.664 104.673 103.988 105.246 100.099 105.851L98.782 106.056C98.4878 106.102 98.2276 105.95 98.2058 105.717C98.1819 105.486 98.376 105.264 98.7009 105.215L100.013 105.012C103.95 104.397 107.669 103.817 111.704 103.73C111.999 103.724 112.216 103.913 112.191 104.149C112.167 104.344 111.984 104.515 111.753 104.57Z" fill="black" stroke="black" stroke-width="0.8"/>
<path d="M85.4879 76.3699C85.4879 76.3699 86.5915 86.4338 85.6476 90.5506C84.8319 94.0922 81.9346 97.107 82.4178 100.402C82.8626 103.426 88.7333 107.774 90.6113 113.303C93.1496 120.782 91.8034 129.319 91.8034 129.319L48.143 132.621C48.143 132.621 52.6127 127.528 52.93 121.603C53.1958 116.704 49.366 110.942 49.028 109.625C47.5219 103.692 50.2932 97.4285 51.2645 92.8719C52.8837 85.2721 50.072 79.913 50.072 79.913L85.4879 76.3699Z" fill="white" stroke="black" stroke-width="0.8"/>
<path d="M91.9016 129.73C91.8655 129.739 91.8285 129.744 91.791 129.747L48.1303 133.047C47.9288 133.063 47.7459 132.987 47.658 132.851C47.5701 132.715 47.5918 132.543 47.7136 132.404C47.7571 132.354 52.0866 127.351 52.3926 121.634C52.5856 118.079 50.5569 114.036 49.3451 111.622C48.9101 110.755 48.5965 110.129 48.5005 109.756C47.333 105.157 48.6521 100.484 49.8167 96.3624C50.1708 95.1093 50.5049 93.9262 50.7339 92.848C52.3068 85.4704 49.5995 80.1694 49.5723 80.1168C49.5068 79.9919 49.5274 79.8422 49.6262 79.7166C49.7244 79.589 49.8884 79.5047 50.0674 79.4882L85.4834 75.9458C85.7647 75.9169 86.0001 76.0642 86.0242 76.2846C86.0695 76.6977 87.1218 86.4507 86.1772 90.5791C85.8409 92.0378 85.1686 93.3959 84.5185 94.7099C83.5722 96.6251 82.6775 98.4321 82.9525 100.304C83.1464 101.626 84.511 103.295 86.0913 105.227C87.9758 107.531 90.1103 110.143 91.1316 113.148C93.6665 120.617 92.3502 129.237 92.3368 129.324C92.3059 129.513 92.128 129.676 91.9016 129.73ZM49.1532 132.119L91.3223 128.93C91.5408 127.19 92.2713 119.882 90.0905 113.46C89.1087 110.569 87.0159 108.011 85.17 105.752C83.5245 103.74 82.104 102.002 81.8837 100.5C81.5768 98.4134 82.5228 96.5024 83.5245 94.478C84.1535 93.2078 84.8035 91.8938 85.1197 90.5214C85.9341 86.9625 85.1806 78.7316 84.992 76.8467L50.8287 80.2632C51.4994 81.8325 53.1407 86.5744 51.7952 92.8945C51.5589 93.997 51.2221 95.1908 50.8653 96.4547C49.7254 100.493 48.4316 105.069 49.5561 109.495C49.6342 109.798 49.95 110.427 50.3512 111.226C51.592 113.699 53.6701 117.839 53.4671 121.571C53.2118 126.322 50.3988 130.49 49.1532 132.119Z" fill="black" stroke="black" stroke-width="0.8"/>
<path d="M79.8901 85.5454C79.8118 85.5643 79.7289 85.5699 79.6473 85.559C76.0382 85.1017 72.1608 85.3999 68.4115 85.6897C64.572 85.9869 60.6004 86.2935 56.8161 85.8131C56.5295 85.776 56.3624 85.5573 56.4419 85.3242C56.5218 85.0869 56.8174 84.9261 57.1044 84.9652C60.7587 85.4299 64.6603 85.128 68.4328 84.8366C72.2495 84.5428 76.1948 84.2365 79.9356 84.711C80.2222 84.7481 80.3893 84.9668 80.3098 85.2C80.2529 85.3685 80.0854 85.4985 79.8901 85.5454Z" fill="black" stroke="black" stroke-width="0.8"/>
<path d="M77.8557 93.4722C77.8283 93.4788 77.8017 93.4832 77.7734 93.4859C76.6796 93.6163 75.8049 93.5576 74.8787 93.4928C74.5896 93.4726 74.2943 93.454 73.9853 93.4386C73.3452 93.409 72.7029 93.5838 72.0253 93.765C71.3672 93.9395 70.6843 94.1261 69.9441 94.145C68.533 94.1765 67.1176 94.1295 65.7485 94.0835C64.3952 94.0379 62.9944 93.9914 61.6126 94.024L61.1728 94.0339C57.9302 94.1102 55.6234 94.094 54.899 93.7627C54.6565 93.6518 54.5952 93.3913 54.7662 93.1831C54.933 92.9738 55.2699 92.8969 55.5148 93.0072C55.9365 93.2014 57.8715 93.258 61.2653 93.176L61.7093 93.1671C63.1278 93.1339 64.5462 93.1822 65.9178 93.2275C67.2693 93.2716 68.6664 93.3189 70.039 93.2865C70.6126 93.275 71.1882 93.1183 71.7899 92.9553C72.5466 92.753 73.3248 92.5415 74.1729 92.5822C74.4911 92.5975 74.796 92.6179 75.0943 92.6379C75.9937 92.7009 76.7712 92.7546 77.7381 92.6383C78.0346 92.6017 78.2829 92.7642 78.2931 92.9982C78.3019 93.2101 78.112 93.4106 77.8557 93.4722Z" fill="black" stroke="black" stroke-width="0.8"/>
<path d="M77.1787 102.447C77.1525 102.453 77.1247 102.458 77.0977 102.46C73.475 102.899 69.8285 103.194 66.3024 103.482C62.8507 103.761 59.2804 104.051 55.7867 104.473C55.4902 104.509 55.2406 104.347 55.2304 104.113C55.2202 103.879 55.4529 103.648 55.7489 103.626C59.2709 103.201 62.8529 102.91 66.3182 102.628C69.8319 102.344 73.4643 102.049 77.0599 101.613C77.3564 101.576 77.6054 101.737 77.6156 101.971C77.6262 102.184 77.4349 102.385 77.1787 102.447Z" fill="black" stroke="black" stroke-width="0.8"/>
<path d="M81.1876 109.905C79.1572 110.393 76.7622 110.453 74.7276 110.502C74.2162 110.515 73.731 110.528 73.2827 110.546C70.7265 110.653 68.0919 111.003 65.5442 111.342C62.6793 111.725 59.7146 112.12 56.7787 112.185C56.4827 112.191 56.2643 112.005 56.2916 111.768C56.3176 111.532 56.5741 111.34 56.8749 111.326C59.7354 111.265 62.6606 110.875 65.4897 110.497C68.0682 110.154 70.7344 109.799 73.3531 109.689C73.8081 109.671 74.3012 109.659 74.8205 109.646C77.4712 109.582 80.7758 109.501 82.7627 108.454C83.0294 108.321 83.3511 108.362 83.4925 108.556C83.6352 108.75 83.539 109.018 83.2783 109.154C82.6575 109.478 81.9489 109.722 81.1876 109.905Z" fill="black" stroke="black" stroke-width="0.8"/>
<path d="M84.6567 119.546C84.6306 119.552 84.6028 119.557 84.5757 119.559C79.7304 120.145 74.8126 120.506 70.055 120.855C65.3345 121.199 60.4529 121.557 55.6803 122.133C55.3838 122.17 55.1348 122.01 55.1246 121.776C55.1127 121.54 55.3458 121.311 55.6425 121.286C60.4466 120.704 65.3454 120.346 70.0825 120C74.8234 119.653 79.7259 119.294 84.5379 118.712C84.8344 118.676 85.0835 118.836 85.0937 119.07C85.1042 119.283 84.913 119.484 84.6567 119.546Z" fill="black" stroke="black" stroke-width="0.8"/>
<path d="M80.4181 126.979C80.3708 126.991 80.3221 126.996 80.2713 126.998C76.9406 127.069 73.8378 127.552 70.5527 128.065L69.4004 128.242C69.105 128.288 68.8461 128.137 68.823 127.904C68.8012 127.671 69.0255 127.443 69.3194 127.401L70.4675 127.223C73.8 126.705 76.9468 126.214 80.3675 126.14C80.6635 126.134 80.8819 126.32 80.8546 126.556C80.8335 126.753 80.6494 126.924 80.4181 126.979Z" fill="black" stroke="black" stroke-width="0.8"/>
<path d="M89.7965 70.0699C89.7965 70.0699 88.0606 85.5601 94.6537 92.6461C101.248 99.736 103.957 105.8 101.129 115.947C98.2991 126.09 102.048 132.045 102.048 132.045L140.647 120.807C140.647 120.807 137.529 116.189 137.845 109.328C138.159 102.549 141.92 93.5517 139.154 89.1838C133.588 80.3866 129.162 76.2654 129.042 70.6924C128.921 65.1156 128.043 55.6122 128.043 55.6122L89.7965 70.0699Z" fill="white" stroke="black" stroke-width="0.8"/>
<path d="M102.146 132.454C101.908 132.511 101.666 132.438 101.56 132.272C101.406 132.023 97.7652 126.075 100.605 115.902C103.491 105.541 100.444 99.632 94.2078 92.927C87.5824 85.807 89.1905 70.7203 89.2607 70.0817C89.2811 69.9148 89.4178 69.7607 89.6158 69.6866L127.861 55.2287C128.015 55.1683 128.197 55.1675 128.335 55.228C128.478 55.2874 128.568 55.3992 128.579 55.5312C128.589 55.6267 129.46 65.1102 129.58 70.6357C129.664 74.5068 131.863 77.6357 135.192 82.3726C136.525 84.2709 138.037 86.4226 139.638 88.9575C141.512 91.913 140.553 96.6828 139.54 101.732C139.023 104.3 138.49 106.955 138.381 109.294C138.075 115.955 141.097 120.525 141.127 120.571C141.2 120.68 141.204 120.815 141.136 120.939C141.066 121.063 140.934 121.162 140.777 121.208L102.179 132.445C102.169 132.449 102.156 132.452 102.146 132.454ZM90.3073 70.3295C90.1205 72.4209 89.1629 85.9876 95.0994 92.3662C101.502 99.2493 104.625 105.323 101.653 115.992C99.2474 124.609 101.681 130.187 102.365 131.513L139.886 120.589C139.113 119.255 137.041 115.105 137.308 109.362C137.418 106.971 137.957 104.288 138.478 101.693C139.421 96.9978 140.396 92.1426 138.668 89.4118C137.073 86.8917 135.565 84.7481 134.237 82.8559C130.96 78.1922 128.592 74.8225 128.503 70.7501C128.402 66.0198 127.744 58.3634 127.556 56.2488L90.3073 70.3295Z" fill="black" stroke="black" stroke-width="0.8"/>
<path d="M108.086 107.271C107.838 107.331 107.586 107.248 107.49 107.066C107.379 106.857 107.514 106.597 107.789 106.484L108.051 106.377C109.404 105.823 110.573 105.344 112.133 104.848C113.092 104.545 114.122 104.372 115.121 104.205C116.012 104.057 116.936 103.903 117.771 103.656C120.373 102.884 122.915 101.822 125.371 100.795C127.084 100.079 128.856 99.3387 130.646 98.6953C130.922 98.5943 131.234 98.6856 131.327 98.9005C131.423 99.1139 131.272 99.3695 130.991 99.4706C129.231 100.101 127.476 100.835 125.781 101.545C123.288 102.586 120.713 103.663 118.037 104.457C117.121 104.727 116.154 104.887 115.22 105.043C114.226 105.21 113.292 105.365 112.429 105.639C110.923 106.118 109.777 106.587 108.45 107.13L108.186 107.239C108.153 107.252 108.119 107.263 108.086 107.271Z" fill="black" stroke="black" stroke-width="0.8"/>
<path d="M104.769 119.276C104.527 119.334 104.28 119.258 104.178 119.083C104.057 118.878 104.184 118.615 104.455 118.496C105.262 118.142 106.098 117.886 106.904 117.638C107.451 117.471 108 117.303 108.539 117.104C110.19 116.492 111.835 115.868 113.477 115.245C115.868 114.338 118.256 113.433 120.662 112.563C121.743 112.175 122.814 111.825 123.876 111.479C126.163 110.734 128.323 110.03 130.445 108.983C130.705 108.848 131.034 108.905 131.169 109.103C131.303 109.301 131.196 109.567 130.933 109.697C128.721 110.789 126.412 111.54 124.179 112.268C123.129 112.61 122.073 112.954 121.007 113.338C118.61 114.205 116.226 115.108 113.843 116.012C112.196 116.636 110.548 117.261 108.893 117.875C108.33 118.083 107.756 118.259 107.185 118.434C106.379 118.682 105.619 118.914 104.886 119.237C104.848 119.254 104.809 119.266 104.769 119.276Z" fill="black" stroke="black" stroke-width="0.8"/>
<path d="M111.678 125.047C111.432 125.107 111.181 125.026 111.082 124.846C110.969 124.639 111.101 124.378 111.374 124.264C113.985 123.17 116.733 122.283 119.39 121.426L120.484 121.073C120.777 120.989 121.066 121.083 121.15 121.301C121.234 121.518 121.07 121.769 120.785 121.863L119.691 122.216C117.06 123.065 114.341 123.941 111.785 125.012C111.749 125.027 111.713 125.039 111.678 125.047Z" fill="black" stroke="black" stroke-width="0.8"/>
<path d="M114.09 68.8995C113.836 68.9605 113.581 68.8741 113.489 68.6854C113.383 68.4754 113.526 68.2168 113.803 68.1085L114.537 67.8239C117.281 66.7586 120.03 65.6911 122.795 64.6546C123.067 64.5514 123.38 64.6372 123.481 64.8494C123.58 65.0621 123.433 65.3194 123.153 65.4245C120.396 66.4582 117.652 67.5235 114.913 68.5877L114.181 68.8716C114.149 68.8833 114.12 68.8924 114.09 68.8995Z" fill="black" stroke="black" stroke-width="0.8"/>
<path d="M113.262 73.8717C113.065 73.919 112.855 73.8796 112.731 73.7547C112.555 73.581 112.605 73.3099 112.845 73.1482C114.179 72.2487 115.784 71.7641 117.335 71.2945C117.83 71.1448 118.326 70.9951 118.808 70.8333C119.101 70.7384 119.393 70.8363 119.48 71.0531C119.568 71.2692 119.408 71.5217 119.123 71.6177C118.629 71.7844 118.119 71.9387 117.611 72.0924C116.089 72.5519 114.652 72.9872 113.481 73.7762C113.415 73.8205 113.339 73.8532 113.262 73.8717Z" fill="black" stroke="black" stroke-width="0.8"/>
<path d="M114.73 79.7843C114.511 79.8369 114.282 79.781 114.164 79.6299C114.018 79.4397 114.106 79.1709 114.365 79.0303C115.93 78.1731 117.938 77.7473 119.707 77.3742C120.168 77.2766 120.616 77.1821 121.045 77.0821C121.336 77.0141 121.617 77.1422 121.667 77.3698C121.718 77.5949 121.525 77.8329 121.237 77.9023L121.232 77.9034C120.796 78.0052 120.337 78.1022 119.866 78.2011C118.115 78.571 116.295 78.9567 114.899 79.7193C114.845 79.7485 114.788 79.7705 114.73 79.7843Z" fill="black" stroke="black" stroke-width="0.8"/>
<path d="M102.04 93.4615C101.791 93.5214 101.54 93.4391 101.443 93.2564C101.333 93.0486 101.465 92.7885 101.743 92.6748C103.257 92.055 104.847 91.573 106.385 91.1074C107.42 90.7933 108.458 90.4786 109.473 90.1236C114.773 88.2697 119.93 86.0004 124.919 83.8055L127.404 82.7137C127.672 82.5893 127.993 82.6641 128.113 82.8686C128.23 83.0727 128.106 83.3348 127.835 83.4541L125.35 84.5458C120.337 86.7506 115.155 89.0307 109.805 90.902C108.766 91.2668 107.696 91.5912 106.661 91.9043C105.155 92.3612 103.594 92.8331 102.14 93.4293C102.106 93.4425 102.075 93.4532 102.04 93.4615Z" fill="black" stroke="black" stroke-width="0.8"/>
<path d="M105.959 97.4032C105.71 97.463 105.456 97.3813 105.362 97.1971C105.252 96.9893 105.386 96.7286 105.662 96.6165C108.152 95.6009 110.843 94.8827 113.445 94.189C115.649 93.6001 117.929 92.9918 120.047 92.2106C121.168 91.7953 122.285 91.2965 123.367 90.8143C124.439 90.3354 125.549 89.8393 126.686 89.4141C126.962 89.3131 127.272 89.3976 127.373 89.6098C127.471 89.8225 127.325 90.0789 127.045 90.1839C125.948 90.5932 124.857 91.0807 123.805 91.5509C122.704 92.0427 121.566 92.5508 120.401 92.9817C118.223 93.7855 115.91 94.4026 113.674 94.9992C111.114 95.6818 108.468 96.3883 106.059 97.3709C106.025 97.3841 105.991 97.3954 105.959 97.4032Z" fill="black" stroke="black" stroke-width="0.8"/>
<path d="M105.811 68.8021C107.415 71.1722 107.703 76.6924 108.274 79.4221C108.582 80.8824 108.681 81.626 108.821 83.0939C105.387 83.0326 102.872 85.6666 99.2737 85.8758C97.1101 86.0039 98.0262 82.7023 97.5893 81.0624C97.2675 79.857 94.8779 74.2149 95.4113 73.7525C97.4206 72.0072 103.158 70.4382 105.811 68.8021Z" fill="black" stroke="black" stroke-width="0.8"/>
<path d="M66.1126 91.595C66.1126 91.595 60.9 106.285 65.709 114.684C70.518 123.084 71.7776 129.609 66.7158 138.847C61.654 148.081 63.9501 154.732 63.9501 154.732L104.094 152.566C104.094 152.566 102.107 147.36 103.975 140.75C105.823 134.221 111.531 126.314 109.831 121.428C106.411 111.599 103.038 106.58 104.188 101.121C105.339 95.6671 106.644 86.2129 106.644 86.2129L66.1126 91.595Z" fill="white" stroke="black" stroke-width="0.8"/>
<path d="M63.9528 155.153C63.7071 155.155 63.4888 155.029 63.4236 154.844C63.3297 154.567 61.1394 147.946 66.2151 138.685C71.3843 129.251 69.7608 122.803 65.2102 114.856C60.3799 106.416 65.374 92.0906 65.5875 91.4848C65.6454 91.3258 65.8135 91.2078 66.0231 91.1787L106.554 85.7973C106.72 85.7724 106.895 85.8149 107.016 85.9053C107.142 85.9956 107.204 86.126 107.184 86.2569C107.172 86.3502 105.864 95.7845 104.725 101.187C103.926 104.983 105.356 108.533 107.526 113.908C108.392 116.056 109.372 118.49 110.356 121.317C111.506 124.626 109.487 129.052 107.353 133.74C106.266 136.123 105.143 138.586 104.505 140.839C102.694 147.257 104.596 152.393 104.614 152.445C104.661 152.567 104.633 152.7 104.539 152.804C104.443 152.909 104.292 152.976 104.129 152.985L63.986 155.153L63.9528 155.153ZM66.5503 91.964C65.8928 93.9562 61.8779 106.95 66.2059 114.512C70.8782 122.671 72.5413 129.295 67.2153 139.011C62.9261 146.838 64.017 152.838 64.3822 154.288L103.402 152.181C102.954 150.703 101.881 146.194 103.444 140.662C104.095 138.357 105.23 135.868 106.328 133.461C108.313 129.102 110.369 124.593 109.308 121.538C108.327 118.728 107.349 116.301 106.486 114.16C104.353 108.869 102.81 105.046 103.649 101.055C104.627 96.4287 105.727 88.825 106.025 86.7223L66.5503 91.964Z" fill="black" stroke="black" stroke-width="0.8"/>
<path d="M75.4661 131.977C75.2102 131.979 74.9841 131.842 74.9316 131.64C74.8712 131.412 75.0592 131.189 75.3557 131.144L75.5807 131.107C77.0429 130.871 78.3058 130.667 79.9606 130.539C80.9505 130.465 81.995 130.53 83.0037 130.594C83.91 130.652 84.8521 130.713 85.7116 130.662C88.4206 130.502 91.1328 130.046 93.7555 129.605C95.5909 129.296 97.4877 128.976 99.3825 128.758C99.6739 128.706 99.9565 128.881 99.999 129.11C100.044 129.342 99.8381 129.555 99.5415 129.589C97.6799 129.805 95.801 130.121 93.9836 130.428C91.3225 130.875 88.5745 131.337 85.7888 131.502C84.8525 131.561 83.8592 131.495 82.9094 131.433C81.9058 131.369 80.956 131.303 80.0659 131.379C78.4673 131.502 77.23 131.7 75.7985 131.932L75.5709 131.967C75.5351 131.973 75.5019 131.977 75.4661 131.977Z" fill="black" stroke="black" stroke-width="0.8"/>
<path d="M69.5028 142.917C69.2546 142.918 69.0311 142.787 68.9709 142.593C68.9029 142.366 69.0831 142.138 69.3745 142.085C70.241 141.925 71.1107 141.866 71.9497 141.809C72.5227 141.769 73.0982 141.73 73.6684 141.659C75.3892 141.441 77.11 141.21 78.8307 140.981C81.3875 140.637 83.9444 140.296 86.5066 139.995C87.6624 139.857 88.8031 139.76 89.9336 139.662C92.3121 139.458 94.5603 139.265 96.8472 138.731C97.1333 138.658 97.4387 138.789 97.5246 139.012C97.6105 139.235 97.4457 139.47 97.1595 139.538C94.7755 140.094 92.3739 140.3 90.0516 140.499C88.9339 140.596 87.8086 140.692 86.6656 140.827C84.111 141.127 81.5619 141.468 79.0101 141.81C77.2868 142.041 75.5636 142.273 73.8376 142.49C73.2418 142.565 72.6407 142.607 72.0422 142.646C71.2032 142.703 70.4128 142.758 69.6255 142.904C69.5846 142.912 69.5437 142.916 69.5028 142.917Z" fill="black" stroke="black" stroke-width="0.8"/>
<path d="M74.9161 150.109C74.6628 150.111 74.4367 149.975 74.3817 149.778C74.3188 149.55 74.5041 149.325 74.7981 149.276C77.5818 148.802 80.449 148.565 83.2189 148.333L84.3929 148.236C84.6947 148.21 84.9568 148.377 84.989 148.609C85.0212 148.838 84.8051 149.048 84.5058 149.072L83.3319 149.17C80.59 149.398 77.7536 149.635 75.0286 150.098C74.9903 150.105 74.9519 150.109 74.9161 150.109Z" fill="black" stroke="black" stroke-width="0.8"/>
<path d="M74.0763 97.8288C73.8153 97.8305 73.5866 97.6873 73.5392 97.4815C73.4865 97.2539 73.6822 97.0346 73.9787 96.993C75.3926 96.7916 79.8023 96.0751 84.4727 95.3134C90.4162 94.3451 96.5642 93.3439 98.3336 93.1143C98.6173 93.0669 98.9076 93.2295 98.9577 93.461C99.0053 93.6886 98.8045 93.906 98.5079 93.9456C96.7616 94.173 90.3502 95.2156 84.6931 96.1384C80.015 96.9002 75.5976 97.6187 74.1684 97.8202C74.1377 97.8244 74.107 97.8286 74.0763 97.8288Z" fill="black" stroke="black" stroke-width="0.8"/>
<path d="M74.6234 102.839C74.4213 102.841 74.2262 102.753 74.1305 102.603C74.0012 102.393 74.1122 102.141 74.3828 102.038C76.4556 101.252 95.369 99.2001 96.5173 99.0935C96.8192 99.0737 97.0863 99.2305 97.1211 99.4601C97.1559 99.6918 96.9423 99.9013 96.6456 99.929C94.2927 100.15 76.5791 102.143 74.8586 102.796C74.782 102.824 74.7028 102.839 74.6234 102.839Z" fill="black" stroke="black" stroke-width="0.8"/>
<path d="M75.6382 121.889C75.3823 121.89 75.1562 121.753 75.1037 121.551C75.0433 121.324 75.2338 121.1 75.5278 121.055C78.1864 120.627 80.9701 120.542 83.6643 120.457C85.9414 120.387 88.2978 120.314 90.5377 120.034C91.7292 119.885 92.9305 119.651 94.0934 119.426C95.2435 119.204 96.432 118.974 97.6363 118.818C97.9226 118.776 98.2103 118.935 98.2604 119.165C98.3079 119.394 98.1072 119.61 97.8106 119.649C96.6523 119.799 95.4843 120.025 94.3546 120.244C93.1687 120.472 91.9445 120.71 90.7069 120.865C88.4031 121.153 86.0134 121.226 83.7056 121.299C81.0549 121.382 78.3147 121.467 75.743 121.878C75.7072 121.884 75.6714 121.888 75.6382 121.889Z" fill="black" stroke="black" stroke-width="0.8"/>
<path d="M73.716 108.387L75.0874 116.966L96.2985 113.478L96.9982 105.616L73.716 108.387Z" fill="black" stroke="black" stroke-width="0.8"/>
<path d="M356.552 67.3846L356.552 67.3841C356.009 66.7913 355.501 66.4255 354.825 66.1463C354.122 65.8557 353.215 65.6493 351.844 65.4204C351.514 65.3654 351.36 65.3393 351.173 65.306M356.552 67.3846L318.829 60.9891C319.12 61.0253 319.418 61.0626 319.733 61.102C320.242 61.166 321.674 61.3477 322.929 61.5069C323.784 61.6154 324.557 61.7135 324.899 61.7567C327.415 62.0744 329.937 62.3882 333.002 62.7633L333.003 62.7634C339.479 63.5485 347.045 64.5862 351.173 65.306M356.552 67.3846C358.127 69.1008 358.45 71.5465 358.086 76.2378M356.552 67.3846L358.086 76.2378M351.173 65.306C351.173 65.3059 351.172 65.3059 351.172 65.3058L351.303 64.5674L351.174 65.3062C351.174 65.3062 351.173 65.3061 351.173 65.306ZM358.086 76.2378C357.885 78.7776 357.581 81.475 357.149 84.693C356.924 86.3701 356.752 87.5762 356.289 90.7642L356.289 90.7643L356.203 91.3546C356.133 91.8374 356.081 92.1969 356.027 92.5721L356.027 92.5727C355.452 96.5859 355.073 99.8435 354.303 107.023C353.319 116.188 352.836 120.17 352.016 125.154L352.016 125.155C351.726 126.93 351.568 127.584 351.221 128.33C350.759 129.32 350.05 130 348.949 130.408C347.403 130.977 345.334 131.108 342.59 130.871L342.59 130.871C341.271 130.757 340.398 130.639 337.989 130.276L337.989 130.276C337.883 130.26 337.79 130.246 337.703 130.233C337.588 130.216 337.485 130.2 337.385 130.186C337.385 130.186 337.385 130.186 337.385 130.186L337.277 130.928M358.086 76.2378L331.257 129.527C328.422 129.277 327.146 129.148 325.559 128.928L325.556 128.928C323.095 128.595 320.633 128.383 314.672 127.94L314.672 127.94L314.587 127.934L314.531 128.682M337.277 130.928C335.899 130.726 334.506 130.573 332.554 130.395M337.277 130.928C337.449 130.953 337.63 130.98 337.877 131.017M337.277 130.928L337.877 131.017M332.554 130.395L332.622 129.649C332.622 129.649 332.622 129.649 332.622 129.649L332.554 130.395ZM332.554 130.395C332.178 130.361 331.893 130.336 331.191 130.274C328.355 130.024 327.062 129.894 325.456 129.671C323.02 129.342 320.581 129.132 314.617 128.688L314.531 128.682M314.531 128.682C309.059 128.275 306.654 128.069 304.223 127.764M314.531 128.682L314.586 127.934M304.223 127.764L314.586 127.934M304.223 127.764L304.316 127.02C304.317 127.02 304.317 127.02 304.318 127.02M304.223 127.764L304.318 127.02M314.586 127.934C309.115 127.527 306.727 127.323 304.318 127.02M314.586 127.934L304.318 127.02M337.877 131.017C340.288 131.381 341.181 131.502 342.526 131.618L337.877 131.017ZM258.471 113.385L259.21 113.513C259.211 113.512 259.211 113.512 259.211 113.512C259.211 113.511 259.211 113.511 259.211 113.511L258.471 113.385ZM260.304 103.658C260.739 95.7593 261.307 88.8078 262.096 82.192L262.096 82.1917C262.372 79.8644 262.809 76.2168 263.57 69.8734L263.57 69.8722L263.576 69.8238C263.576 69.8236 263.576 69.8233 263.576 69.8231C263.652 69.192 264.104 65.4272 264.228 64.3932C264.228 64.3931 264.228 64.3931 264.228 64.393L264.298 63.8047C264.502 62.108 264.659 60.7962 264.794 59.6762L264.794 59.6757C265.094 57.1528 267.357 55.3344 269.883 55.5841L269.885 55.5844C275.099 56.0844 281.256 56.6854 285.103 57.0729C288.005 57.3671 290.343 57.6453 295.535 58.2938L295.535 58.2938L295.576 58.2989C300.112 58.8655 302.133 59.109 304.659 59.3798C311.77 60.1477 315.257 60.5453 318.829 60.9891L260.304 103.658Z" fill="white" stroke="black" stroke-width="1.5"/>
<path d="M268.888 64.3424C276.077 65.5412 286.145 66.8753 295.605 67.9384C299.761 68.4064 302.146 68.6975 317.057 70.5381C317.763 70.6253 318.404 70.7046 319.017 70.7797C330.302 72.1705 336.636 72.9206 340.532 73.3023C344.324 73.6736 350.467 74.3064 352.689 74.5647C353.146 74.6181 353.559 74.2905 353.613 73.8337C353.666 73.3764 353.339 72.9628 352.881 72.9098C350.646 72.6497 344.496 72.016 340.694 71.6439C336.818 71.2644 330.49 70.5148 319.22 69.1261C318.608 69.0506 317.967 68.9717 317.261 68.8846C302.34 67.0426 299.956 66.7517 295.791 66.2825C286.358 65.2225 276.317 63.892 269.162 62.6987C268.708 62.623 268.279 62.9296 268.204 63.3837C268.128 63.8373 268.434 64.2667 268.888 64.3424Z" fill="black"/>
<path d="M270.576 59.6051L270.615 59.3159C270.676 58.8601 270.356 58.4409 269.9 58.3797C269.444 58.3185 269.024 58.6386 268.963 59.0949L268.925 59.3841C268.863 59.8399 269.184 60.2591 269.639 60.3203C270.096 60.3815 270.515 60.0614 270.576 59.6051Z" fill="#F97560"/>
<path d="M274.776 59.9937L274.815 59.7003C274.877 59.2441 274.557 58.8246 274.101 58.7633C273.645 58.7017 273.225 59.0218 273.164 59.4776L273.124 59.771C273.063 60.2272 273.383 60.6466 273.839 60.7079C274.295 60.7696 274.714 60.4494 274.776 59.9937Z" fill="#FCD400"/>
<path d="M278.976 60.3814L279.016 60.088C279.077 59.6318 278.757 59.2123 278.301 59.151C277.845 59.0893 277.426 59.4095 277.364 59.8653L277.325 60.1586C277.264 60.6149 277.583 61.0343 278.039 61.0956C278.496 61.1573 278.915 60.8371 278.976 60.3814Z" fill="black"/>
<path d="M372.004 72.2103L367.644 71.4347C367.191 71.3541 366.759 71.656 366.678 72.1091C366.598 72.5621 366.899 72.9946 367.353 73.0752L371.712 73.8508C372.165 73.9314 372.598 73.6295 372.678 73.1765C372.759 72.7234 372.457 72.2908 372.004 72.2103Z" fill="black"/>
<path d="M369.196 69.9215C369.198 69.9532 369.199 70.02 369.198 70.1171C369.199 70.2829 369.195 70.4695 369.187 70.6719C369.157 71.3962 369.077 72.1203 368.931 72.7713C368.785 73.4288 368.581 73.9585 368.332 74.3145C368.068 74.6913 368.16 75.2107 368.536 75.4749C368.913 75.7388 369.433 75.6471 369.697 75.2705C370.09 74.7084 370.367 73.9864 370.557 73.1342C370.727 72.3739 370.818 71.5559 370.852 70.7404C370.867 70.3516 370.867 70.0491 370.862 69.8699C370.848 69.41 370.463 69.0487 370.003 69.063C369.543 69.0772 369.182 69.4616 369.196 69.9215Z" fill="black"/>
<path d="M360.877 58.2908L362.038 58.4973C362.491 58.5779 362.924 58.276 363.004 57.823C363.085 57.3699 362.783 56.9374 362.33 56.8568L361.169 56.6503C360.716 56.5698 360.284 56.8716 360.203 57.3246C360.122 57.7777 360.425 58.2103 360.877 58.2908Z" fill="black"/>
<path d="M366.379 59.0918L367.544 59.299C367.997 59.3797 368.429 59.0777 368.51 58.6247C368.591 58.1717 368.289 57.7392 367.836 57.6585L366.671 57.4513C366.218 57.3707 365.785 57.6726 365.705 58.1257C365.624 58.5787 365.926 59.0112 366.379 59.0918Z" fill="black"/>
<path d="M364.244 54.4428L364.037 55.6076C363.956 56.0606 364.258 56.4931 364.711 56.5737C365.165 56.6544 365.597 56.3524 365.678 55.8994L365.885 54.7347C365.965 54.2816 365.664 53.8491 365.21 53.7685C364.757 53.6879 364.325 53.9898 364.244 54.4428Z" fill="black"/>
<path d="M363.261 59.9716L363.053 61.1364C362.973 61.5894 363.275 62.0219 363.728 62.1026C364.181 62.1832 364.613 61.8812 364.694 61.4282L364.901 60.2635C364.982 59.8104 364.68 59.3779 364.227 59.2973C363.774 59.2167 363.341 59.5186 363.261 59.9716Z" fill="black"/>
<path d="M333.692 49.0503C335.28 49.3137 336.88 49.4964 338.487 49.5975C338.946 49.6264 339.342 49.2776 339.371 48.8183C339.399 48.3591 339.051 47.9635 338.592 47.9345C337.041 47.837 335.497 47.6607 333.965 47.4065C333.511 47.3312 333.082 47.6381 333.006 48.092C332.931 48.5459 333.238 48.975 333.692 49.0503Z" fill="black"/>
<path d="M335.701 45.9911C335.767 46.4719 335.763 47.1448 335.697 47.9475C335.615 48.9342 335.459 49.9617 335.297 50.8084C335.286 50.8655 335.278 50.9044 335.274 50.9234C335.182 51.3743 335.474 51.8141 335.925 51.9055C336.376 51.997 336.816 51.7056 336.907 51.2547C336.912 51.2299 336.921 51.185 336.933 51.1219C337.105 50.2217 337.27 49.141 337.357 48.0845C337.433 47.171 337.438 46.3888 337.352 45.7645C337.29 45.3087 336.87 44.9899 336.413 45.0524C335.957 45.115 335.639 45.5353 335.701 45.9911Z" fill="black"/>
<path d="M252.595 49.8807C252.602 49.9174 252.611 50.0551 252.612 50.2515C252.615 50.6069 252.596 51.1142 252.56 51.7541C252.536 52.1754 252.42 53.8674 252.425 53.9836C252.44 54.4433 252.826 54.803 253.286 54.7871C253.746 54.7708 254.106 54.385 254.09 53.9251C254.089 53.9098 254.192 52.4043 254.224 51.8479C254.261 51.1757 254.281 50.6389 254.279 50.24C254.276 49.9401 254.263 49.7183 254.227 49.5444C254.134 49.0937 253.693 48.8037 253.243 48.8966C252.792 48.9894 252.502 49.4301 252.595 49.8807Z" fill="black"/>
<path d="M250.534 52.8211C250.587 52.8222 250.685 52.8243 250.823 52.8269C251.051 52.8312 251.306 52.8355 251.581 52.8396C252.365 52.8512 253.15 52.8584 253.886 52.859C254.17 52.8593 254.442 52.8584 254.7 52.8565C255.077 52.8537 255.421 52.8487 255.728 52.841C256.187 52.8294 256.551 52.4471 256.54 51.9872C256.528 51.5272 256.146 51.1637 255.686 51.1752C255.39 51.1826 255.056 51.1876 254.688 51.1903C254.435 51.1922 254.167 51.193 253.887 51.1927C253.16 51.1922 252.383 51.1851 251.605 51.1735C251.333 51.1694 251.081 51.1652 250.854 51.1609C250.719 51.1584 250.622 51.1563 250.571 51.1552C250.111 51.1452 249.729 51.5099 249.72 51.9699C249.709 52.4299 250.074 52.811 250.534 52.8211Z" fill="black"/>
<path d="M270.713 39.0734L270.454 40.5294C270.374 40.9824 270.676 41.415 271.129 41.4955C271.582 41.5762 272.014 41.2742 272.095 40.8212L272.354 39.3653C272.435 38.9122 272.133 38.4797 271.68 38.3991C271.227 38.3185 270.794 38.6204 270.713 39.0734Z" fill="black"/>
<path d="M269.779 44.3271L269.571 45.4919C269.491 45.9449 269.793 46.3775 270.246 46.458C270.699 46.5386 271.131 46.2367 271.212 45.7837L271.419 44.6189C271.5 44.1659 271.198 43.7334 270.745 43.6528C270.292 43.5722 269.859 43.8741 269.779 44.3271Z" fill="black"/>
<path d="M268.584 41.5029L266.789 41.4841C266.329 41.4792 265.952 41.8482 265.947 42.3084C265.942 42.7684 266.312 43.1454 266.772 43.1503L268.567 43.1691C269.027 43.174 269.404 42.8049 269.409 42.3448C269.413 41.8847 269.044 41.5078 268.584 41.5029Z" fill="black"/>
<path d="M273.002 43.8813L274.792 44.0261C275.25 44.0633 275.652 43.7216 275.689 43.2629C275.727 42.8044 275.385 42.4024 274.926 42.3654L273.137 42.2205C272.678 42.1834 272.276 42.525 272.239 42.9837C272.202 43.4423 272.544 43.8442 273.002 43.8813Z" fill="black"/>
<path fill-rule="evenodd" clip-rule="evenodd" d="M321.156 110.413C321.166 110.843 321.597 111.134 322 110.984C322.025 110.974 322.073 110.957 322.139 110.932C322.249 110.89 322.372 110.843 322.504 110.793C322.676 110.727 322.848 110.66 323.017 110.593L323.941 112.628C324.13 113.048 324.625 113.233 325.044 113.043C325.462 112.853 325.648 112.359 325.458 111.94L324.558 109.956C324.671 109.905 324.774 109.858 324.865 109.814C325.029 109.734 325.157 109.665 325.255 109.601C325.332 109.551 325.396 109.501 325.453 109.438C325.639 109.237 325.738 108.963 325.541 108.643C325.291 108.237 324.892 107.718 324.368 107.103C324.242 106.956 324.11 106.804 323.972 106.648C323.567 106.189 323.13 105.717 322.691 105.256C322.538 105.095 322.395 104.947 322.267 104.815C322.19 104.736 322.134 104.679 322.104 104.648C321.706 104.247 321.022 104.538 321.035 105.102L321.156 110.413Z" fill="black"/>
<path d="M367.69 142.475L367.689 142.475C365.735 142.818 360.033 143.105 357.495 143.048C357.235 143.043 356.974 143.04 356.6 143.038C356.536 143.037 356.485 143.037 356.37 143.036C353.886 143.023 352.833 142.934 351.676 142.502C350.108 141.916 349.097 140.749 348.66 138.818C348.192 136.75 347.857 134.522 347.556 131.702C347.443 130.651 347.385 130.04 347.181 127.849C347.139 127.401 347.11 127.085 347.08 126.772C346.814 123.966 346.574 120.867 346.23 115.998C346.262 116.46 345.905 111.371 345.81 110.047C345.677 108.202 345.563 106.694 345.452 105.336C345.178 101.914 345.137 98.4914 345.595 97.1192C346.151 95.4061 347.649 94.1697 349.427 93.9483C353.947 93.2703 359.627 92.7576 362.64 92.8204C362.91 92.826 363.148 92.8285 363.665 92.8319C365.191 92.8421 365.902 92.8603 366.801 92.9339C369.647 93.1671 371.634 93.897 372.776 95.4661C373.399 96.3232 373.768 97.5608 373.998 99.2292C374.056 99.6469 374.104 100.083 374.15 100.59C374.168 100.784 374.185 100.979 374.206 101.232C374.202 101.185 374.245 101.7 374.256 101.831C374.27 101.995 374.282 102.132 374.295 102.259C374.304 102.36 374.304 102.36 374.313 102.46C374.693 106.614 374.704 106.734 374.861 108.286C374.968 109.343 375.074 110.321 375.183 111.255C376.172 119.622 376.765 126.681 376.986 133.527C377.087 136.617 376.626 138.718 375.024 140.093C374.264 140.742 373.026 141.263 371.402 141.701C370.734 141.882 370.028 142.041 369.262 142.19C368.974 142.246 368.69 142.298 368.37 142.355C368.238 142.379 367.783 142.458 367.69 142.475Z" fill="black"/>
<path d="M366.849 140.895C364.606 141.144 362.35 141.254 360.093 141.224C356.799 141.152 354.027 141.591 353.132 137.639C352.336 134.12 352.042 129.562 351.7 125.956C351.144 120.091 350.697 111.955 350.219 106.06C350.09 104.471 349.717 99.0087 350.332 97.5764C350.947 96.1442 352.455 95.6996 353.539 95.4953C356.144 94.992 359.319 94.6004 362.299 94.6628C365.01 94.7196 369.445 94.4377 371.254 96.9332C372.317 98.3976 372.406 101.973 372.578 103.705C372.835 106.397 373.076 109.172 373.399 111.904C374.194 118.628 374.818 126.283 375.039 133.094C375.102 134.986 374.983 137.419 373.373 138.801C371.868 140.085 368.149 140.736 366.849 140.895Z" fill="white"/>
<path d="M348.875 95.092C347.949 95.7117 347.651 97.291 347.693 99.784C347.704 100.417 347.734 101.042 347.789 101.911C347.797 102.034 347.831 102.545 347.839 102.673C347.856 102.944 347.867 103.146 347.875 103.323C347.95 104.939 348.063 106.814 348.235 109.401C348.259 109.765 348.285 110.146 348.314 110.58C348.334 110.865 348.449 112.563 348.481 113.039C348.543 113.958 348.591 114.678 348.632 115.336C349.022 121.529 349.61 128.135 350.399 135.455C350.615 137.477 351.067 139.372 351.75 140.696C351.846 140.882 352.074 140.955 352.26 140.859C352.446 140.763 352.518 140.535 352.423 140.349C351.791 139.124 351.359 137.312 351.152 135.374C350.364 128.064 349.776 121.469 349.388 115.288C349.346 114.629 349.298 113.908 349.236 112.988C349.204 112.511 349.089 110.814 349.069 110.529C349.04 110.095 349.015 109.715 348.99 109.351C348.818 106.769 348.706 104.898 348.631 103.288C348.623 103.106 348.611 102.901 348.594 102.625C348.586 102.497 348.552 101.985 348.545 101.862C348.49 101.005 348.46 100.389 348.45 99.7712C348.412 97.5555 348.681 96.1327 349.296 95.721C349.47 95.6049 349.516 95.3699 349.4 95.1962C349.284 95.0224 349.049 94.9758 348.875 95.092Z" fill="white"/>
<path d="M347.251 108.157C347.179 107.098 347.125 106.047 347.089 105.014C347.082 104.805 346.907 104.642 346.698 104.649C346.489 104.656 346.326 104.831 346.333 105.04C346.369 106.081 346.424 107.141 346.496 108.209C346.511 108.417 346.691 108.575 346.9 108.561C347.108 108.546 347.266 108.366 347.251 108.157Z" fill="white"/>
<path d="M347.635 113.368C347.541 112.356 347.468 111.281 347.413 110.129C347.403 109.92 347.225 109.759 347.017 109.769C346.808 109.779 346.647 109.956 346.657 110.165C346.713 111.328 346.787 112.414 346.881 113.438C346.901 113.646 347.085 113.799 347.293 113.78C347.501 113.761 347.654 113.576 347.635 113.368Z" fill="white"/>
</svg>
