<svg width="400" height="200" viewBox="0 0 400 200" fill="none" xmlns="http://www.w3.org/2000/svg">
<rect width="400" height="200" fill="white"/>
<mask id="mask0_88_192" style="mask-type:alpha" maskUnits="userSpaceOnUse" x="35" y="13" width="330" height="187">
<rect x="35" y="13" width="329.025" height="187" fill="#D9D9D9"/>
</mask>
<g mask="url(#mask0_88_192)">
<path fill-rule="evenodd" clip-rule="evenodd" d="M141.218 24.9213C141.218 24.2202 141.789 23.6519 142.494 23.6519H199.625C200.329 23.6519 200.901 24.2202 200.901 24.9213V100.109C200.901 100.81 200.329 101.378 199.625 101.378H142.494C141.789 101.378 141.218 100.81 141.218 100.109V24.9213ZM143.77 26.1907V98.8396H198.349V26.1907H143.77Z" fill="black"/>
<path d="M143.994 141.63H264.748V198.13C264.748 205.249 258.922 211.028 251.746 211.028H156.996C149.82 211.028 143.994 205.249 143.994 198.13V141.63Z" fill="#B7B7B7"/>
<path d="M270.959 93.0505H140.558C136.611 93.0505 133.643 96.0979 134.395 99.3787L144.077 141.63H265.294L277.067 99.5928C278.002 96.2538 275.012 93.0505 270.959 93.0505Z" fill="#B7B7B7"/>
<path d="M148.92 137.466L139.83 97.2146H271.688L260.476 137.466H148.92Z" fill="#F6F0D8"/>
<path fill-rule="evenodd" clip-rule="evenodd" d="M163.426 108.318C163.426 107.552 164.01 106.93 164.731 106.93H173.224C173.945 106.93 174.529 107.552 174.529 108.318C174.529 109.085 173.945 109.706 173.224 109.706H164.731C164.01 109.706 163.426 109.085 163.426 108.318Z" fill="black"/>
<path fill-rule="evenodd" clip-rule="evenodd" d="M200.901 108.318C200.901 107.552 201.485 106.93 202.206 106.93H210.699C211.42 106.93 212.005 107.552 212.005 108.318C212.005 109.085 211.42 109.706 210.699 109.706H202.206C201.485 109.706 200.901 109.085 200.901 108.318Z" fill="black"/>
<path fill-rule="evenodd" clip-rule="evenodd" d="M236.988 108.318C236.988 107.552 237.573 106.93 238.294 106.93H246.787C247.508 106.93 248.092 107.552 248.092 108.318C248.092 109.085 247.508 109.706 246.787 109.706H238.294C237.573 109.706 236.988 109.085 236.988 108.318Z" fill="black"/>
<path fill-rule="evenodd" clip-rule="evenodd" d="M167.589 127.75C167.589 126.983 168.134 126.362 168.805 126.362H176.089C176.761 126.362 177.305 126.983 177.305 127.75C177.305 128.517 176.761 129.138 176.089 129.138H168.805C168.134 129.138 167.589 128.517 167.589 127.75Z" fill="black"/>
<path fill-rule="evenodd" clip-rule="evenodd" d="M200.901 127.75C200.901 126.983 201.445 126.362 202.117 126.362H209.401C210.072 126.362 210.617 126.983 210.617 127.75C210.617 128.517 210.072 129.138 209.401 129.138H202.117C201.445 129.138 200.901 128.517 200.901 127.75Z" fill="black"/>
<path fill-rule="evenodd" clip-rule="evenodd" d="M234.212 127.75C234.212 126.983 234.834 126.362 235.602 126.362H243.927C244.694 126.362 245.316 126.983 245.316 127.75C245.316 128.517 244.694 129.138 243.927 129.138H235.602C234.834 129.138 234.212 128.517 234.212 127.75Z" fill="black"/>
<path d="M253.644 148.57H155.098V177.717H253.644V148.57Z" fill="black"/>
<path fill-rule="evenodd" clip-rule="evenodd" d="M211.938 112.671C212.437 112.374 213.062 112.431 213.502 112.814L220.206 118.64L228.79 113.102C229.254 112.803 229.847 112.818 230.296 113.14L238.527 119.05L246.775 112.759C247.296 112.361 248.016 112.396 248.499 112.842L255.964 119.735C256.527 120.255 256.575 121.147 256.071 121.728C255.568 122.309 254.703 122.358 254.14 121.838L247.505 115.711L239.364 121.922C238.893 122.281 238.252 122.291 237.77 121.945L229.475 115.989L220.811 121.578C220.308 121.903 219.659 121.855 219.205 121.461L212.474 115.611L203.09 121.198C202.626 121.475 202.048 121.446 201.612 121.124L194.071 115.565L183.044 122.015C182.574 122.289 181.991 122.253 181.557 121.922L173.228 115.568L163.39 121.209C162.974 121.448 162.467 121.446 162.053 121.204L153.017 115.933C152.359 115.55 152.127 114.689 152.499 114.01C152.871 113.331 153.705 113.092 154.363 113.476L162.732 118.358L172.669 112.66C173.138 112.391 173.715 112.43 174.146 112.759L182.468 119.107L193.482 112.666C193.945 112.395 194.518 112.426 194.951 112.745L202.485 118.299L211.938 112.671Z" fill="black"/>
<path fill-rule="evenodd" clip-rule="evenodd" d="M46.8354 76.2688C46.8354 75.5718 47.394 75.0068 48.0829 75.0068H114.987C115.676 75.0068 116.234 75.5718 116.234 76.2688V163.963C116.234 164.66 115.676 165.225 114.987 165.225H48.0829C47.394 165.225 46.8354 164.66 46.8354 163.963V76.2688ZM49.3304 77.5308V162.701H113.739V77.5308H49.3304Z" fill="black"/>
<path fill-rule="evenodd" clip-rule="evenodd" d="M217.556 29.0621C217.556 28.3737 218.123 27.8157 218.822 27.8157H264.87C265.569 27.8157 266.136 28.3737 266.136 29.0621V84.8642C266.136 85.5526 265.569 86.1106 264.87 86.1106H218.822C218.123 86.1106 217.556 85.5526 217.556 84.8642V29.0621ZM220.088 30.3084V83.6179H263.604V30.3084H220.088Z" fill="black"/>
<path fill-rule="evenodd" clip-rule="evenodd" d="M289.731 72.099C289.731 71.4053 290.295 70.843 290.991 70.843H350.93C351.626 70.843 352.19 71.4053 352.19 72.099V157.029C352.19 157.723 351.626 158.285 350.93 158.285H290.991C290.295 158.285 289.731 157.723 289.731 157.029V72.099ZM292.251 73.3549V155.774H349.67V73.3549H292.251Z" fill="black"/>
<path fill-rule="evenodd" clip-rule="evenodd" d="M84.3108 56.9632C84.3108 56.1966 85.1662 55.5752 86.2214 55.5752H125.427C126.483 55.5752 127.338 56.1966 127.338 56.9632C127.338 57.7297 126.483 58.3511 125.427 58.3511H86.2214C85.1662 58.3511 84.3108 57.7297 84.3108 56.9632Z" fill="#129ED8"/>
<path fill-rule="evenodd" clip-rule="evenodd" d="M53.7202 95.0158C58.914 90.29 67.023 90.5965 71.832 95.7003L101.718 127.418C106.527 132.522 106.215 140.491 101.021 145.216C95.8276 149.942 87.7187 149.636 82.9096 144.532L53.0236 112.814C48.2146 107.71 48.5264 99.7416 53.7202 95.0158Z" fill="#FC6E47"/>
<path fill-rule="evenodd" clip-rule="evenodd" d="M239.898 39.2265C242.934 45.5845 240.268 53.2127 233.942 56.2645L174.691 84.8503C168.365 87.9021 160.776 85.2219 157.739 78.864C154.703 72.506 157.37 64.8778 163.695 61.826L222.946 33.2402C229.272 30.1884 236.861 32.8685 239.898 39.2265Z" fill="#FC6E47"/>
<path fill-rule="evenodd" clip-rule="evenodd" d="M339.415 94.7365C344.72 99.3609 345.371 107.528 340.871 112.978L324.423 132.897C319.922 138.347 311.974 139.016 306.67 134.392C301.365 129.767 300.714 121.6 305.214 116.15L321.662 96.2318C326.163 90.7815 334.111 90.1121 339.415 94.7365Z" fill="#FC6E47"/>
</g>
</svg>
