<svg width="400" height="200" viewBox="0 0 400 200" fill="none" xmlns="http://www.w3.org/2000/svg">
<g clip-path="url(#clip0_88_193)">
<rect width="400" height="200" fill="white"/>
<mask id="mask0_88_193" style="mask-type:alpha" maskUnits="userSpaceOnUse" x="115" y="12" width="170" height="189">
<rect x="115.307" y="12" width="168.863" height="188.115" fill="#D9D9D9"/>
</mask>
<g mask="url(#mask0_88_193)">
<path d="M236.659 115.585C240.778 93.9215 242.429 81.8063 242.575 67.7314C242.607 63.4755 242.337 59.2254 241.767 55.0103C241.289 51.5959 238.411 47.6244 234.849 45.5135C233.897 44.9489 229.628 42.1815 228.771 41.6479C226.721 40.3701 224.957 39.3702 223.267 38.5613C219.352 36.6875 216.113 35.9917 213.475 36.7756C210.251 37.729 208.067 40.5682 206.148 45.2223C205.633 46.4721 204.118 50.6686 204.262 50.2859C202.991 53.6569 200.555 60.9747 198.88 66.4131C198.983 65.7438 199.096 65.0559 199.22 64.3464C199.574 62.3051 199.987 60.2169 200.567 57.468C200.545 57.5716 201.545 52.8718 201.8 51.6337C202.229 49.5394 202.527 47.9254 202.735 46.5126C202.794 46.1118 202.856 45.7132 202.946 45.144C203.571 41.1952 203.707 39.9322 203.524 38.2959C203.266 35.9872 202.16 34.4431 199.989 33.7269C196.179 32.4684 192.563 35.5644 189.549 42.2061C188.838 43.7724 188.09 45.5252 187.306 47.4531C186.489 49.4623 185.639 51.6466 184.757 53.9957C182.452 60.1292 177.452 74.5678 177.719 73.8531C177.032 75.6917 176.4 77.921 175.487 81.5366C175.55 81.2867 174.67 84.7979 174.437 85.7021C174.328 86.1245 174.224 86.5186 174.125 86.888C174.104 86.8185 174.084 86.7481 174.062 86.6763C174.085 86.7549 173.233 83.8476 172.977 83.0111C171.399 77.8363 169.962 74.6968 167.764 72.5016C166.476 71.2752 164.706 70.7298 162.97 71.0161C160.337 71.5051 159.226 72.6426 158.814 75.1964C158.489 77.1999 158.465 79.335 158.664 82.0267C158.731 82.9324 158.803 83.7096 158.958 85.2385C159.087 86.514 159.13 86.9463 159.185 87.5789C159.404 90.0457 159.559 92.0432 159.886 96.4601C160.217 100.944 160.369 102.901 160.588 105.38C160.99 109.915 161.432 113.548 162.496 121.577C162.687 123.014 162.764 123.595 162.865 124.365C163.698 130.713 164.179 134.885 164.525 139.174C165.015 145.166 165.28 152.409 165.09 156.119C165.015 157.588 153.273 229.819 153.273 229.819C153.187 230.284 153.544 230.712 154.017 230.712L209.043 230.712C209.402 230.712 209.712 230.46 209.784 230.109L220.522 180.748C222.178 174.455 234.863 125.024 236.659 115.585Z" fill="#FCB7A0"/>
<path d="M216.148 70.6219C216.16 70.5682 216.18 70.4676 216.209 70.3262C216.258 70.0906 216.312 69.827 216.37 69.5423C216.536 68.7281 216.702 67.9048 216.857 67.1235C216.881 67.0048 216.881 67.0048 216.904 66.8857C217.134 65.7232 217.315 64.7763 217.431 64.1179C217.737 62.3696 218.087 60.6792 218.671 58.0472C218.734 57.7617 218.781 57.5499 218.901 57.0114C219.462 54.4936 219.71 53.3478 219.992 51.927C220.25 50.6295 220.445 49.5665 220.855 47.2597C220.997 46.4633 221.051 46.1559 221.127 45.7365C221.266 44.962 221.387 44.3066 221.506 43.6808C221.885 41.6179 221.937 39.6597 221.532 38.104C221.427 37.6997 221.014 37.4573 220.61 37.5628C220.205 37.668 219.963 38.0809 220.068 38.4852C220.408 39.7883 220.361 41.5426 220.019 43.4032C219.9 44.0302 219.778 44.6897 219.638 45.4687C219.563 45.8896 219.507 46.1975 219.366 46.995C218.958 49.2916 218.764 50.3478 218.508 51.632C218.229 53.0381 217.983 54.176 217.425 56.6824C217.305 57.2217 217.257 57.4335 217.194 57.7197C216.606 60.3722 216.252 62.0811 215.941 63.8566C215.827 64.5013 215.649 65.4396 215.421 66.5922C215.397 66.7106 215.397 66.7106 215.374 66.829C215.219 67.6076 215.053 68.4282 214.888 69.2397C214.83 69.5237 214.776 69.7866 214.728 70.0214C214.699 70.1621 214.678 70.2623 214.667 70.3156C214.583 70.7244 214.845 71.1249 215.255 71.2092C215.663 71.2939 216.064 71.0311 216.148 70.6219Z" fill="#DC8173"/>
<path d="M227.702 74.8194C227.819 74.3066 227.951 73.75 228.134 72.9921C228.158 72.8927 228.509 71.4432 228.614 71.0056C228.756 70.415 228.877 69.9052 228.989 69.4177C229.483 67.2769 229.807 65.6153 229.984 64.1983C230.383 61.0062 230.851 57.8576 231.386 54.7798C231.45 54.4107 231.712 52.9252 231.773 52.5728C231.848 52.144 231.914 51.7639 231.974 51.4009C232.477 48.402 232.696 46.4624 232.589 45.2474C232.552 44.831 232.185 44.5236 231.769 44.5603C231.353 44.5969 231.045 44.9638 231.082 45.3797C231.173 46.417 230.962 48.2908 230.483 51.1509C230.422 51.5101 230.357 51.8872 230.283 52.313C230.222 52.6632 229.96 54.1494 229.895 54.5211C229.356 57.6228 228.884 60.7952 228.483 64.0107C228.314 65.3657 227.998 66.9835 227.515 69.0778C227.404 69.5603 227.284 70.0659 227.144 70.6521C227.039 71.0881 226.688 72.5361 226.663 72.637C226.479 73.4009 226.346 73.9629 226.227 74.4836C226.134 74.8909 226.389 75.2963 226.797 75.3889C227.204 75.4816 227.609 75.2267 227.702 74.8194Z" fill="#DC8173"/>
<path d="M201.807 134.95C200.65 134.711 199.499 134.851 197.658 135.292C197.252 135.39 197.002 135.798 197.099 136.204C197.196 136.61 197.604 136.86 198.011 136.763C199.641 136.372 200.632 136.252 201.501 136.432C201.909 136.516 202.31 136.253 202.394 135.844C202.479 135.435 202.216 135.035 201.807 134.95Z" fill="#DC8173"/>
<path d="M232.929 75.5858C232.089 75.4361 231.218 75.1978 228.835 74.4975L228.727 74.4661C226.53 73.8209 225.47 73.5369 224.521 73.3728C223.28 73.1576 222.207 72.843 220.342 72.1975C220.225 72.157 220.115 72.1188 219.888 72.0398C218.242 71.4684 217.413 71.2033 216.374 70.9484C215.909 70.8334 215.425 70.7298 214.841 70.6164C214.582 70.5664 214.391 70.5305 213.908 70.4409C211.778 70.0461 210.835 69.8215 209.722 69.3737C207.378 68.4298 205.356 67.8198 201.042 66.6611L200.868 66.6146C197.37 65.6753 195.816 65.2268 193.952 64.5706C193.558 64.4322 193.126 64.6391 192.987 65.0332C192.849 65.4272 193.056 65.8591 193.45 65.9978C195.363 66.6706 196.941 67.1263 200.476 68.0755L200.65 68.1224C204.906 69.2652 206.888 69.8631 209.158 70.7771C210.394 71.2744 211.404 71.5153 213.633 71.9282C214.111 72.0171 214.3 72.0522 214.552 72.1014C215.114 72.2103 215.575 72.309 216.013 72.4172C216.992 72.6577 217.789 72.9122 219.391 73.4688C219.619 73.5479 219.73 73.5861 219.847 73.6269C221.783 74.2974 222.92 74.6306 224.264 74.8635C225.133 75.0137 226.167 75.2908 228.301 75.9175L228.408 75.9489C230.86 76.6693 231.745 76.9109 232.662 77.075C233.074 77.1484 233.467 76.8746 233.54 76.4635C233.613 76.0521 233.34 75.6592 232.929 75.5858Z" fill="#DC8173"/>
<path d="M184.026 95.1848C187.604 94.1917 195.59 96.7126 198.002 99.4728C201.274 103.189 203.259 109.644 202.986 115.089C202.965 115.506 203.286 115.861 203.703 115.882C204.121 115.903 204.476 115.581 204.497 115.164C204.789 109.344 202.684 102.502 199.139 98.4752C196.352 95.2854 187.769 92.5762 183.621 93.7274C183.219 93.8389 182.983 94.256 183.095 94.6584C183.206 95.0608 183.623 95.2967 184.026 95.1848Z" fill="#DC8173"/>
<path d="M233.089 97.4728C230.698 97.6819 228.289 97.4944 225.959 96.9173C225.195 96.7388 224.492 96.586 223.264 96.3262C221.9 96.0381 221.783 96.0131 221.246 95.8959C217.573 95.0923 215.197 94.3673 213.03 93.257C208.256 90.813 203.853 87.5611 201.425 84.3592C201.172 84.0264 200.698 83.9614 200.365 84.2136C200.032 84.4662 199.967 84.9405 200.219 85.2736C202.808 88.6869 207.382 92.0647 212.34 94.6033C214.651 95.7873 217.132 96.544 220.923 97.3734C221.465 97.4921 221.583 97.5171 222.951 97.8064C224.17 98.0639 224.865 98.2152 225.605 98.388C228.087 99.0029 230.664 99.2037 233.221 98.9794C233.637 98.9431 233.945 98.5763 233.908 98.1599C233.872 97.744 233.505 97.4361 233.089 97.4728Z" fill="#DC8173"/>
<path d="M218.651 142.411C219.63 142.135 220.463 141.876 221.263 141.59C225.844 139.949 228.725 137.56 229.617 133.671C230.319 130.616 229.964 125.649 229.065 119.633C228.977 119.055 228.638 116.818 228.557 116.279C228.03 112.803 227.684 110.456 227.351 108.075C227.172 106.799 227.007 105.583 226.854 104.407C225.015 90.179 223.164 78.5557 220.817 67.1371C219.762 61.9721 218.276 58.6439 215.402 56.9183C214.101 56.14 212.235 55.7192 209.893 55.5539C208.33 55.4439 206.783 55.4533 204.865 55.538C204.662 55.5467 203.96 55.58 203.817 55.586C200.626 55.7271 189.832 57.5151 186.63 58.4037C186.237 58.513 185.853 58.6148 185.254 58.7702C185.111 58.8072 185.111 58.8072 184.968 58.8439C181.422 59.7613 179.905 60.3067 178.385 61.471C176.329 63.0453 175.325 65.3767 175.45 68.7431C175.562 71.7647 175.859 74.9851 176.343 78.7391C176.618 80.875 176.904 82.8539 177.413 86.22C177.449 86.4563 177.604 87.4796 177.645 87.7508C177.735 88.3415 177.806 88.8157 177.874 89.2706C178.584 94.0026 179.447 99.2345 180.833 107.341C180.907 107.773 180.984 108.223 181.067 108.706C183.152 120.872 183.233 121.348 183.885 125.372C184.736 130.63 186.415 137.834 187.738 140.453C189.343 143.632 193.116 145.692 196.494 145.557C203.567 145.322 211.718 144.306 216.321 143.043C216.462 143.004 218.119 142.56 218.651 142.411Z" fill="black"/>
<path d="M202.405 58.762C199.354 59.0986 192.573 60.0553 189.699 60.8381C184.813 62.1806 180.502 62.4756 180.733 69.3582C180.926 75.4806 182.283 83.1384 183.191 89.2382C184.666 99.1688 187.199 112.809 188.803 122.736C189.234 125.417 190.826 134.221 192.308 136.35C193.791 138.479 196.211 138.668 197.917 138.619C201.997 138.487 209.341 137.942 213.762 136.728C217.785 135.628 224.513 134.459 226.241 129.649C227.254 126.832 225.98 120.872 225.545 117.945C224.868 113.407 224.138 108.706 223.545 104.062C222.085 92.6342 220.05 79.9921 217.702 68.6283C217.036 65.4782 215.902 61.4999 212.949 59.8284C210.23 58.2401 204.406 58.5427 202.405 58.762Z" fill="white"/>
<path d="M178.604 62.6432C177.539 65.0548 177.427 67.0095 177.88 70.5404C179.192 80.6416 181.399 94.3852 183.755 107.573C184.112 109.578 185.503 117.617 185.478 117.477C185.696 118.729 185.893 119.843 186.08 120.894C186.557 123.569 186.973 125.808 187.358 127.751C187.405 127.987 187.589 128.935 187.577 128.868C187.671 129.353 187.747 129.734 187.825 130.116C188.032 131.12 188.229 131.997 188.441 132.835C189.363 136.464 190.478 138.933 192.076 140.142C194.973 142.342 199.377 142.716 205.28 141.76C205.833 141.67 209.034 141.202 210.021 141.048C212.389 140.679 214.45 140.308 216.42 139.873C222.846 138.457 227.174 136.623 228.897 134.005C229.126 133.657 229.029 133.187 228.68 132.958C228.332 132.728 227.863 132.825 227.633 133.174C226.208 135.339 222.136 137.065 216.095 138.396C214.159 138.822 212.127 139.189 209.788 139.553C208.812 139.706 205.606 140.174 205.038 140.267C199.509 141.163 195.469 140.819 192.99 138.936C191.756 138.003 190.748 135.77 189.908 132.463C189.701 131.65 189.509 130.794 189.307 129.812C189.23 129.435 189.155 129.058 189.061 128.578C189.074 128.646 188.889 127.695 188.842 127.457C188.459 125.525 188.044 123.295 187.569 120.628C187.382 119.579 187.186 118.467 186.968 117.217C186.993 117.36 185.602 109.318 185.244 107.307C182.892 94.1409 180.688 80.4192 179.381 70.3464C178.959 67.0655 179.057 65.3622 179.988 63.2544C180.157 62.8724 179.984 62.4258 179.602 62.2568C179.22 62.0881 178.773 62.2609 178.604 62.6432Z" fill="white"/>
<path d="M177.736 83.6002C178.008 85.3935 178.253 86.8506 178.402 87.5449C178.49 87.9529 178.892 88.2131 179.301 88.125C179.709 88.0372 179.969 87.6349 179.881 87.2268C179.74 86.5722 179.499 85.1363 179.231 83.3733C179.169 82.9604 178.783 82.6764 178.37 82.7392C177.957 82.8019 177.673 83.1873 177.736 83.6002Z" fill="white"/>
<path d="M176.712 76.465C176.812 77.2868 177.066 79.1356 177.338 81.0196C177.398 81.433 177.781 81.7196 178.194 81.6599C178.608 81.6001 178.894 81.2167 178.835 80.8033C178.564 78.9295 178.312 77.0901 178.213 76.282C178.163 75.8671 177.785 75.5722 177.371 75.6229C176.956 75.6731 176.661 76.0506 176.712 76.465Z" fill="white"/>
</g>
</g>
<defs>
<clipPath id="clip0_88_193">
<rect width="400" height="200" fill="white"/>
</clipPath>
</defs>
</svg>
