<svg width="400" height="200" viewBox="0 0 400 200" fill="none" xmlns="http://www.w3.org/2000/svg">
<rect width="400" height="200" fill="white"/>
<path d="M135.247 51.6277C135.871 51.6331 136.491 51.5308 137.08 51.3259C143.958 48.8599 159.077 46.5297 172.47 46.9009C175.471 46.9843 177.971 44.6194 178.054 41.6189C178.137 38.6183 175.772 36.1182 172.772 36.0349C161.411 35.7331 143.756 37.3871 133.415 41.0967C130.953 42.0036 129.491 44.5409 129.941 47.1261C130.39 49.7114 132.623 51.6057 135.247 51.6277Z" fill="#EFEFED"/>
<path d="M174.29 53.306C171.294 53.139 168.729 55.433 168.563 58.4296C168.396 61.426 170.69 63.9901 173.686 64.157C178.576 64.4226 183.409 64.157 188.087 63.9004C195.802 63.4779 203.088 63.0794 210.055 64.9931C210.525 65.1204 211.01 65.1853 211.497 65.1862C214.218 65.185 216.518 63.1724 216.88 60.4764C217.242 57.7804 215.555 55.232 212.931 54.5133C204.262 52.1348 195.727 52.5997 187.492 53.0524C182.917 53.3029 178.585 53.5414 174.29 53.306Z" fill="#EFEFED"/>
<path d="M219.454 47.6795C222.186 47.8214 224.929 48.0297 227.836 48.25C233.034 48.6454 238.364 49.0529 243.673 49.0529C245.427 49.0529 247.181 49.0076 248.922 48.905C250.862 48.7897 252.593 47.6479 253.463 45.9102C254.333 44.1725 254.21 42.1026 253.14 40.4802C252.07 38.8578 250.216 37.9295 248.276 38.0449C241.995 38.4191 235.216 37.903 228.657 37.405C225.817 37.1876 222.88 36.9643 220.015 36.8013C218.074 36.7005 216.227 37.6428 215.169 39.2734C214.111 40.904 214.004 42.9751 214.887 44.7065C215.77 46.4378 217.51 47.5667 219.451 47.6675L219.454 47.6795Z" fill="#EFEFED"/>
<path d="M239.924 87.5701C242.555 87.5686 244.806 85.683 245.27 83.0939C245.733 80.5044 244.274 77.9554 241.808 77.042C235.152 74.5821 225.756 74.6424 217.465 74.6968C214.144 74.7179 211.014 74.739 208.464 74.5941C206.479 74.3976 204.547 75.3044 203.429 76.956C202.311 78.6077 202.188 80.7389 203.109 82.5083C204.029 84.2774 205.845 85.4002 207.839 85.4331C210.734 85.5991 214.033 85.578 217.528 85.5538C224.893 85.5055 233.239 85.4512 238.035 87.223C238.639 87.45 239.279 87.5674 239.924 87.5701Z" fill="#EFEFED"/>
<path d="M247.618 68.0719C247.536 69.5135 248.031 70.9285 248.993 72.0045C249.956 73.0806 251.308 73.7292 252.749 73.8068C255.077 73.9306 257.407 74.1962 259.876 74.4769C263.422 74.8813 267.081 75.2979 270.878 75.2979H271.397C274.397 75.2831 276.818 72.8385 276.803 69.8376C276.788 66.8371 274.343 64.417 271.343 64.4318H271.285C267.965 64.4619 264.645 64.0846 261.107 63.6832C258.587 63.3965 255.976 63.0976 253.335 62.9558C250.345 62.7946 247.788 65.0828 247.618 68.0719Z" fill="#EFEFED"/>
<path d="M141.525 111.995C149.88 113.984 159.301 116.221 167.562 116.221C167.93 116.221 168.295 116.221 168.657 116.221C171.658 116.183 174.06 113.72 174.023 110.72C173.985 107.719 171.522 105.317 168.522 105.354H168.389C161.287 105.533 152.126 103.35 144.043 101.431C141.181 100.748 138.477 100.105 135.857 99.5561C132.964 99.0313 130.178 100.903 129.571 103.78C128.964 106.657 130.756 109.495 133.614 110.184C136.092 110.688 138.73 111.316 141.525 111.995Z" fill="#EFEFED"/>
<path d="M231.084 112.442C238.364 114.917 248.753 116.755 256.187 117.86C256.454 117.898 256.724 117.917 256.993 117.917C259.834 117.91 262.19 115.715 262.398 112.882C262.606 110.049 260.596 107.533 257.787 107.111C250.794 106.07 241.092 104.367 234.582 102.155C232.736 101.5 230.682 101.889 229.203 103.173C227.724 104.457 227.051 106.437 227.44 108.356C227.83 110.275 229.222 111.836 231.084 112.442Z" fill="#EFEFED"/>
<path d="M242.095 146.498C242.03 143.498 239.547 141.119 236.547 141.183C231.718 141.285 226.789 141.168 222.016 141.053C216.39 140.917 210.571 140.775 204.742 140.987C201.742 141.04 199.352 143.516 199.406 146.516C199.459 149.517 201.935 151.906 204.936 151.853H205.135C210.637 151.654 216.288 151.789 221.754 151.922C225.31 152.007 228.953 152.094 232.62 152.094C233.999 152.094 235.388 152.094 236.773 152.052C238.216 152.023 239.588 151.421 240.586 150.379C241.584 149.337 242.127 147.941 242.095 146.498Z" fill="#EFEFED"/>
<path d="M273.73 129.716L260.28 130.039C257.28 130.075 254.876 132.536 254.912 135.537C254.948 138.537 257.41 140.941 260.41 140.905H260.543L273.99 140.582C275.931 140.536 277.7 139.457 278.63 137.753C279.561 136.049 279.511 133.978 278.501 132.32C277.49 130.662 275.671 129.67 273.73 129.716Z" fill="#EFEFED"/>
<path d="M266.875 161.016C260.839 158.804 253.423 159.395 246.885 159.92C244.703 160.095 242.641 160.258 240.848 160.304C237.848 160.339 235.443 162.8 235.478 165.8C235.513 168.801 237.974 171.205 240.975 171.17H241.108C243.221 171.119 245.427 170.94 247.763 170.753C253.196 170.319 259.345 169.827 263.157 171.221C265.968 172.232 269.069 170.784 270.097 167.979C271.125 165.174 269.696 162.064 266.897 161.019L266.875 161.016Z" fill="#EFEFED"/>
<path d="M194.501 161.466C193.092 161.309 191.714 161.151 190.366 160.992C181.685 159.987 173.487 159.036 163.916 159.269C160.915 159.341 158.542 161.832 158.614 164.833C158.687 167.833 161.178 170.207 164.179 170.135C172.992 169.92 180.463 170.787 189.113 171.789L193.291 172.269C193.491 172.291 193.693 172.302 193.894 172.302C196.779 172.304 199.162 170.051 199.323 167.171C199.483 164.291 197.365 161.787 194.498 161.469L194.501 161.466Z" fill="#EFEFED"/>
<path d="M167.483 152.743C170.254 152.75 172.586 150.67 172.896 147.917C173.206 145.164 171.394 142.618 168.691 142.01C164.595 141.08 160.363 140.374 156.27 139.688C150.197 138.671 144.462 137.711 139.117 136.097C136.244 135.23 133.212 136.856 132.345 139.729C131.478 142.602 133.105 145.634 135.978 146.501C141.987 148.312 148.335 149.377 154.477 150.404C158.6 151.095 162.494 151.747 166.288 152.607C166.681 152.696 167.081 152.741 167.483 152.743Z" fill="#EFEFED"/>
<path d="M172.09 122.288C169.252 122.433 166.804 122.556 164.477 121.968C161.563 121.233 158.605 122.999 157.87 125.913C157.135 128.827 158.901 131.785 161.815 132.52C165.724 133.507 169.397 133.32 172.642 133.154C175.935 132.988 178.781 132.852 181.576 133.818C183.409 134.457 185.444 134.069 186.914 132.801C188.384 131.533 189.066 129.577 188.703 127.67C188.339 125.763 186.986 124.194 185.153 123.555C180.348 121.868 175.959 122.092 172.09 122.288Z" fill="#EFEFED"/>
<path d="M159.998 77.6309C162.992 77.8376 165.587 75.5784 165.793 72.5842C166 69.5902 163.74 66.9957 160.747 66.7889C153.201 66.2667 145.631 66.8764 138.311 67.468C135.054 67.7276 131.671 67.9993 128.444 68.1562C125.443 68.2272 123.068 70.717 123.139 73.7176C123.21 76.7184 125.7 79.0933 128.701 79.0223H128.966C132.38 78.8563 135.839 78.5786 139.183 78.31C146.104 77.7395 153.258 77.163 159.998 77.6309Z" fill="#EFEFED"/>
<path d="M197.465 103.734C200.214 103.73 202.527 101.673 202.853 98.9436C203.178 96.2137 201.413 93.6714 198.742 93.0215C192.705 91.5546 187.601 91.0083 182.681 91.301C180.743 91.4163 179.014 92.5567 178.145 94.2928C177.276 96.0287 177.4 98.0963 178.468 99.7169C179.537 101.337 181.389 102.264 183.327 102.149C187.139 101.923 191.223 102.375 196.179 103.58C196.6 103.683 197.032 103.735 197.465 103.734Z" fill="#EFEFED"/>
<path d="M207.326 130.645H207.459L218.986 130.368C221.987 130.332 224.39 127.871 224.354 124.87C224.318 121.869 221.857 119.466 218.856 119.502H218.724L207.196 119.779C204.196 119.815 201.792 122.277 201.828 125.277C201.864 128.278 204.326 130.681 207.326 130.645Z" fill="#EFEFED"/>
<ellipse cx="204.211" cy="84.701" rx="34.0166" ry="34.6351" fill="black"/>
<path d="M117.87 61.0137C119.41 58.347 123.259 58.347 124.798 61.0137L162.327 126.015C163.866 128.682 161.942 132.015 158.863 132.015H83.8057C80.7265 132.015 78.802 128.682 80.3416 126.015L117.87 61.0137Z" fill="#FC6E47"/>
<rect x="258.019" y="69.8577" width="72.981" height="72.981" rx="4" fill="#129ED8"/>
</svg>
