<svg width="36" height="36" viewBox="0 0 36 36" fill="none" xmlns="http://www.w3.org/2000/svg">
<path d="M34.7541 22.2585C34.6957 22.0422 34.6417 21.8259 34.5941 21.6398C34.3886 20.8092 34.1615 20.0003 33.9235 19.2151C33.6856 18.4299 33.4563 17.5971 33.2573 16.76C33.1535 16.3382 33.054 15.8948 32.9502 15.4449C32.4808 13.3921 31.9508 11.0647 30.9299 9.30178C29.4157 6.66934 27.6485 6.99597 25.4206 7.41127L25.3189 7.43074C23.2532 7.81576 13.9888 10.0913 11.458 10.9111C10.29 11.2896 9.05489 11.56 7.85872 11.8261C6.39282 12.1166 4.94768 12.5031 3.53261 12.9833C1.95142 13.5544 0.971552 14.2141 0.448093 15.0577C-0.376031 16.3815 0.0890264 18.4061 0.627627 20.7487C1.00832 22.4056 1.52962 24.0906 2.03361 25.7237C2.20666 26.2839 2.3797 26.8442 2.54842 27.4001C2.85125 28.4124 3.41364 30.1904 4.24426 32.6866C4.89317 34.6333 6.62362 35.9182 8.45356 35.9182C8.70923 35.9184 8.96404 35.8937 9.21495 35.8446C10.781 35.5353 11.8387 35.2995 12.3557 35.1438C13.1755 34.8994 14.0213 34.6636 14.9168 34.4149C16.2968 34.0298 17.7287 33.634 19.046 33.1971C20.5018 32.7147 21.9943 32.2734 23.437 31.8451C25.7018 31.1724 28.0443 30.4781 30.3112 29.615C30.6097 29.5004 30.9774 29.3987 31.3668 29.2841C32.7447 28.8904 34.4578 28.4016 35.0613 26.9912C35.6648 25.5809 35.1543 23.7532 34.7541 22.2585Z" fill="black"/>
<path fill-rule="evenodd" clip-rule="evenodd" d="M27.5495 10.891L27.5858 10.8324C27.7117 10.6293 27.9784 10.5668 28.1815 10.6927C28.3846 10.8186 28.4471 11.0853 28.3212 11.2884L28.2845 11.3474C28.2432 11.4141 28.22 11.4513 28.1809 11.5142C28.0692 11.6935 27.9447 11.8936 27.8101 12.1088C27.426 12.724 27.0394 13.3394 26.6754 13.9137L26.6183 14.0037C26.1019 14.8176 25.6786 15.4735 25.3797 15.9193C25.0475 16.415 24.7507 16.9017 24.2748 17.715C24.2274 17.7962 24.0566 18.0886 24.0652 18.0739C23.6326 18.8141 23.3425 19.2969 23.0622 19.7275C23.3523 19.8372 23.6702 19.9601 24.0094 20.0944C25.1022 20.5277 26.195 20.9923 27.2166 21.4705C28.3269 21.9905 29.2862 22.496 30.0517 22.978C30.6009 23.3236 31.045 23.6539 31.3759 23.9704C31.5487 24.1356 31.5548 24.4095 31.3895 24.5821C31.2245 24.7547 30.9507 24.761 30.778 24.5957C30.4947 24.3249 30.0947 24.0275 29.5907 23.7102C28.8598 23.2501 27.9302 22.7601 26.8497 22.2542C25.8456 21.784 24.7682 21.326 23.6906 20.8988C23.3133 20.7494 22.9629 20.6144 22.6488 20.4963C22.6186 20.4848 22.5894 20.474 22.561 20.4634C21.2206 22.3745 20.4109 23.2884 19.3554 23.7911C17.6487 24.6041 15.4242 24.4809 12.7914 23.6184C12.4009 23.4906 12.0047 23.3476 11.603 23.1899C10.7367 24.4982 9.50785 27.6084 8.45574 30.8162C8.38133 31.0433 8.13691 31.1669 7.91001 31.0924C7.68288 31.018 7.55916 30.7736 7.63378 30.5465C8.67724 27.3649 9.86822 24.3294 10.7901 22.8551C9.89612 22.4694 8.97617 22.0176 8.03308 21.5073C7.04824 20.9745 6.10602 20.4169 5.10798 19.7907C5.03465 19.7448 4.86702 19.6382 4.6665 19.5106C4.22437 19.2294 3.62218 18.8465 3.52073 18.7888C3.35677 18.6934 3.15215 18.5818 2.91464 18.4574C2.85667 18.4271 2.79697 18.396 2.73576 18.3644C2.45759 18.2212 2.15909 18.0724 1.86059 17.9266C1.7559 17.8755 1.65878 17.8286 1.57182 17.7869C1.51969 17.7618 1.4827 17.744 1.46324 17.7349C1.24736 17.6324 1.15543 17.3746 1.25775 17.1587C1.36006 16.9428 1.61811 16.8507 1.83398 16.9532C1.85475 16.9629 1.89304 16.9811 1.94625 17.0069C2.03493 17.0495 2.13357 17.0971 2.23999 17.149C2.54368 17.2971 2.84781 17.4488 3.13203 17.5952C3.19498 17.6279 3.25641 17.6597 3.31611 17.691C3.56399 17.8208 3.779 17.938 3.95226 18.0388C4.0708 18.1063 4.73032 18.5257 5.17785 18.8104C5.35955 18.9259 5.50642 19.0191 5.56785 19.0579C6.55139 19.6748 7.47826 20.2235 8.44471 20.7463C10.0657 21.623 11.6112 22.3215 13.0607 22.7963C15.5025 23.5962 17.5185 23.7078 18.9833 23.01C19.8933 22.5765 20.685 21.6507 22.043 19.6936C22.4224 19.1453 22.739 18.6285 23.3181 17.6374C23.3094 17.6523 23.4803 17.3596 23.5279 17.2783C24.0122 16.4505 24.3163 15.9519 24.6611 15.4376C24.9549 14.9993 25.3749 14.3485 25.8878 13.5401L25.9445 13.4506C26.3074 12.878 26.6931 12.2641 27.0764 11.6505C27.2105 11.4357 27.3349 11.2363 27.4463 11.0572C27.4852 10.9944 27.5081 10.9574 27.5495 10.891Z" fill="white"/>
<path d="M34.1355 2.10103C32.643 0.416007 29.578 -0.68066 27.2267 0.483063C26.0846 1.04762 24.8582 1.86958 24.4148 3.6779C24.1487 4.75942 23.8956 6.41199 24.7955 8.15325C25.6845 9.8837 27.4647 10.8938 29.5736 10.8938H29.7078C31.8427 10.8506 33.8976 9.40566 34.819 7.30101C35.6194 5.44295 35.375 3.49836 34.1355 2.10103Z" fill="#FC6E47"/>
<path d="M29.6409 5.76424C29.6941 6.20593 29.7456 6.60415 29.7949 6.94872C29.8399 7.26366 29.8828 7.53037 29.9228 7.7443C29.9669 7.97899 30.1929 8.13365 30.4278 8.08952C30.6625 8.04561 30.8172 7.81935 30.7733 7.58466C30.7357 7.3848 30.695 7.12978 30.6515 6.8263C30.6033 6.48886 30.5524 6.0967 30.4999 5.66085C30.4343 5.11554 30.3694 4.53086 30.3082 3.94597C30.2868 3.74135 30.2674 3.55122 30.2503 3.38055C30.2401 3.27846 30.233 3.20556 30.2293 3.16684C30.1916 2.77879 29.7002 2.63451 29.4588 2.9408C29.446 2.95681 29.4216 2.98774 29.3866 3.03143C29.3279 3.10476 29.2617 3.18631 29.1895 3.27435C28.9834 3.52569 28.7709 3.77704 28.5642 4.01065C28.496 4.08766 28.4296 4.16163 28.3649 4.23193C28.0874 4.53519 27.8542 4.76426 27.6905 4.89145C27.5017 5.03788 27.4675 5.30978 27.6139 5.4984C27.7604 5.68723 28.0323 5.72141 28.2209 5.57497C28.4326 5.41058 28.6948 5.15296 29.003 4.81638C29.0712 4.74219 29.1408 4.66454 29.2122 4.58386C29.2989 4.48587 29.3863 4.38529 29.4737 4.28297C29.5276 4.78891 29.5838 5.29096 29.6409 5.76424Z" fill="white"/>
</svg>
