<svg width="299" height="38" viewBox="0 0 299 38" fill="none" xmlns="http://www.w3.org/2000/svg">
<path d="M42.4005 15.7888C44.3999 16.8354 45.925 18.2571 46.9751 20.0541C48.0251 21.8522 48.5505 23.9448 48.5505 26.3307C48.5505 29.2405 47.7918 31.5032 46.275 33.1213C44.7582 34.7394 42.6001 35.8598 39.8005 36.48C37.0003 37.1015 33.4331 37.4116 29.1002 37.4116C28.8002 34.9932 28.4416 32.9744 28.0252 31.3563C27.608 29.7382 26.8831 28.2595 25.8502 26.9191C28.4831 27.1148 30.6167 27.2129 32.2501 27.2129C34.1501 27.2129 35.4915 27.0828 36.2751 26.8209C37.058 26.5595 37.4504 26.1512 37.4504 25.5949C37.4504 24.8433 37.008 24.255 36.1252 23.8298C35.2416 23.4053 33.9502 23.1927 32.2501 23.1927C29.9829 23.1927 27.433 23.7648 24.6002 24.9084V37.2159H13.1501V31.5282C11.0829 32.9988 8.53292 34.977 5.50028 37.461C4.8331 35.4346 4.07502 33.5796 3.22513 31.8959C2.37524 30.2127 1.3 28.5209 0 26.8209L4.60005 24.3694L8.65019 22.0648C10.3165 21.0519 11.8167 20.1854 13.1501 19.4658V13.2391C9.35024 13.3047 6.58292 13.3373 4.85028 13.3373V3.77569C6.58292 3.77569 9.35024 3.74375 13.1501 3.67754V0.833984H24.6002V3.33429L32.9501 2.94226V12.5032L24.6002 12.8959V14.8078C27.433 14.1544 30.1503 13.8274 32.7503 13.8274C33.9502 13.8274 35.1829 13.9093 36.4501 14.0725C35.583 10.0848 34.4332 6.37415 33.0002 2.94226L43.4002 2.10882C45.2001 6.45662 46.4829 10.902 47.2505 15.4455L42.4005 15.7888Z" fill="black"/>
<path d="M74.7003 18.7793H62.5005V37.5098H52.2V0.882812H74.7003V18.7793ZM66.4005 6.08031H62.5005V7.30578H66.4005V6.08031ZM66.4005 13.141V11.8662H62.5005V13.141H66.4005ZM98.1004 32.2635C98.1004 33.9304 97.8167 35.1071 97.2505 35.7936C96.6831 36.4801 95.3914 36.9383 93.3753 37.1666C91.3581 37.396 87.8828 37.5098 82.9505 37.5098C82.9505 36.5294 82.9001 35.4997 82.8 34.4206H72.6002V35.4997H63.5002V19.9072H86.8001V27.4093C87.3 27.4093 87.6417 27.3605 87.8253 27.2623C88.0083 27.1642 88.1167 27.001 88.1505 26.7716C88.183 26.5433 88.2002 26.0694 88.2002 25.3498V18.7793H75.6503V0.882812H98.1004V32.2635ZM77.7001 25.693H72.6002V27.4581H77.7001V25.693ZM88.2002 7.30578V6.08031H83.9004V7.30578H88.2002ZM83.9004 11.8662V13.141H88.2002V11.8662H83.9004Z" fill="black"/>
<path d="M119.525 34.7151C116.342 36.35 113.383 37.1666 110.65 37.1666C109.116 37.1666 107.675 36.8234 106.325 36.1369C104.975 35.4504 103.858 34.3475 102.975 32.8275C102.092 31.3076 101.633 29.3707 101.6 27.0173C101.567 23.7161 101.766 20.7006 102.2 17.9709C102.633 15.2418 103.383 11.5561 104.45 6.91379L105.35 3.04049L118.75 3.62884C117.583 7.5515 116.717 10.7064 116.15 13.0917C115.583 15.4781 115.05 18.4204 114.55 21.9179C114.483 22.5063 114.45 22.8821 114.45 23.0453C114.45 23.7318 114.617 24.075 114.95 24.075C115.417 24.075 116.258 23.4379 117.475 22.163C118.691 20.8882 120.533 18.7306 123 15.6907C123.4 18.6324 123.942 21.1257 124.625 23.1678C125.308 25.211 126.216 27.0829 127.35 28.7823C125.317 31.1037 122.708 33.0808 119.525 34.7151ZM135.9 33.6366C135.133 27.0992 133.983 21.4847 132.45 16.7936C130.917 12.1037 128.933 7.71528 126.5 3.62884L138.2 1.9126C140.933 6.03099 143.133 10.2318 144.8 14.514C146.467 18.7968 147.983 24.1732 149.35 30.6455L135.9 33.6366Z" fill="black"/>
<path d="M189.676 4.9768C192.992 5.51635 196.367 5.7539 199.8 5.68827C199.5 7.22504 199.208 8.99007 198.925 10.9833C198.642 12.9778 198.433 14.7428 198.301 16.279C196.5 16.0507 194.483 15.7238 192.25 15.298V18.4366H158.05V15.4943C155.783 15.9845 153.717 16.247 151.85 16.279C151.817 14.7759 151.692 13.0022 151.475 10.9589C151.258 8.9163 151.017 7.15883 150.75 5.68827C151.083 5.72079 151.633 5.73705 152.4 5.73705C154.333 5.73705 156.425 5.59011 158.675 5.29565C160.925 5.00177 162.883 4.56037 164.55 3.97203C166.05 3.48126 167.141 2.94229 167.825 2.35395C168.508 1.7656 168.916 0.980956 169.05 0H181.4C181.167 0.817754 180.85 1.66745 180.45 2.54967C183.283 3.62878 186.358 4.43782 189.676 4.9768ZM154.2 19.5639H196.1V37.7061H184.85V37.2159H165.45V37.7061H154.2V19.5639ZM184.85 29.2725V27.0172H165.45V29.2725H184.85ZM179.35 10.9833C177.717 10.2318 176.067 9.36526 174.4 8.38488C173.166 9.30021 171.8 10.1667 170.3 10.9833H179.35Z" fill="black"/>
<path d="M241.35 5.66326C243.917 7.08561 245.9 9.10386 247.3 11.7192C248.7 14.3345 249.4 17.3906 249.4 20.8881C249.4 24.6801 248.608 27.7606 247.025 30.1302C245.442 32.501 242.942 34.2579 239.525 35.4015C236.108 36.5462 231.617 37.1177 226.05 37.1177C225.683 35.0263 225.2 33.0563 224.6 31.2094C224 29.363 223.367 27.8506 222.7 26.674C222.767 30.4328 222.867 34.2086 223 38H210.9C210.833 36.3331 210.766 33.7672 210.7 30.3022L205.25 36.5294C203.883 31.757 202.083 27.8832 199.85 24.9084L210.85 16.1808V16.132H204V5.09931H211.2L211.4 0.392578H224C223.733 2.8441 223.55 4.59286 223.45 5.63886C226.083 4.23393 229.05 3.53059 232.351 3.53059C235.783 3.53059 238.783 4.24148 241.35 5.66326ZM231.65 25.9625C233.55 25.6854 234.833 25.1622 235.5 24.3938C236.166 23.626 236.5 22.4249 236.5 20.79C236.5 18.2403 236 16.3608 235 15.1511C234 13.9424 232.433 13.3372 230.3 13.3372C227.666 13.3372 225.183 14.4158 222.85 16.5728C222.75 19.809 222.7 23.0783 222.7 26.3795C226.767 26.3795 229.751 26.2407 231.65 25.9625Z" fill="black"/>
<path d="M299 13.2879C297.533 13.2879 295.367 13.321 292.5 13.3861L292.751 17.5045C292.95 20.3817 291.992 22.5388 289.875 23.9768C287.758 25.416 284.917 26.1345 281.35 26.1345C278.75 26.1345 276.4 25.9713 274.3 25.6443C273.9 23.7486 273.442 22.073 272.925 20.6181C272.408 19.1644 271.65 17.652 270.65 16.0827C274.617 16.671 277.367 16.9655 278.9 16.9655C280.067 16.9655 280.858 16.8023 281.275 16.4753C281.691 16.1489 281.867 15.5925 281.8 14.8079L281.75 13.8763C278.183 14.0726 273.883 14.4327 268.85 14.9548C268.75 16.7204 268.7 19.7771 268.7 24.1243C268.7 25.236 268.892 26.0288 269.275 26.5021C269.658 26.9766 270.333 27.2792 271.3 27.4093C272.267 27.5406 273.866 27.6056 276.1 27.6056C279.533 27.6056 282.625 27.5318 285.375 27.3849C288.125 27.2374 291.683 26.9028 296.05 26.3796C295.351 27.6544 294.825 29.2969 294.475 31.3076C294.125 33.3177 293.933 35.3365 293.9 37.3629C290.033 37.5592 286.533 37.6899 283.4 37.7549C280.266 37.82 275.55 37.8531 269.25 37.8531C265.417 37.8531 262.433 36.9703 260.3 35.2053C258.166 33.4402 257.1 30.9074 257.1 27.6056C257.1 22.9639 257.167 19.205 257.3 16.3278L250.8 17.2106V6.47236L258.25 5.73707C258.383 4.46224 258.583 3.0242 258.85 1.42238H270.8L270.15 4.85427C274.216 4.59292 277.833 4.41345 281 4.3153L280.75 0.784668H291.7L291.9 4.02084C293.467 3.98889 295.833 3.97205 299 3.97205V13.2879Z" fill="black"/>
</svg>
