<svg width="633" height="596" viewBox="0 0 633 596" fill="none" xmlns="http://www.w3.org/2000/svg">
<path d="M179.459 511.715C220.091 515.937 241.61 466.861 257.317 431.031C260.443 423.908 263.387 417.194 266.191 411.553C274.786 394.364 290.686 362.316 311.937 350.713C323.067 344.632 335.454 339.647 342.91 348.822C358.112 367.495 325.42 404.312 314.687 416.367L314.44 416.657C303.6 428.883 289.59 454.989 288.655 468.021C287.141 490.411 296.359 506.418 316.051 515.615C333.133 523.576 353.052 522.276 372.143 511.951C392.727 500.821 406.823 483.889 421.746 465.969C425.678 461.253 429.739 456.375 433.929 451.616C464.01 417.43 495.08 399.865 537.914 392.903C544.36 391.828 550.194 391.162 555.834 390.496C573.024 388.455 587.904 386.704 608.477 375.735C626.741 365.969 636.593 342.43 631.791 319.815C629.825 310.543 623.883 300.606 615.482 292.548C609.251 286.575 602.246 282.277 595.736 280.44C557.586 269.697 522.842 298.135 496.842 324.091L490.59 330.322C474.303 346.545 457.468 363.315 441.61 380.988C428.879 395.18 417.244 405.806 398.636 414.938C388.903 419.708 377.687 419.686 371.971 414.938C367.362 411.07 366.299 404.248 368.909 395.191C373.207 380.279 385.024 366.936 396.38 354.044C402.311 347.329 407.908 341.001 412.334 334.598C414.88 330.913 418.297 326.712 421.917 322.254C435.734 305.268 452.923 284.114 446.026 264.035C442.803 254.538 437.076 247.845 429.588 244.697C421.584 241.345 411.657 242.129 401.655 246.91C398.432 248.446 394.758 251.207 390.912 254.215C386.034 257.933 380.523 262.155 376.945 262.681C372.981 263.272 369.994 262.585 368.748 260.801C367.502 259.018 367.921 255.58 370.08 251.605C372.626 246.921 378.675 241.807 384.455 236.865C388.32 233.761 391.952 230.375 395.317 226.734C403.299 217.355 411.69 205.966 410.196 189.422C408.703 172.877 400.248 167.838 393.426 166.678C363.344 161.542 305.856 215.335 290.815 248.328C287.151 256.364 284.186 264.733 281.318 272.834C274.055 293.322 267.201 312.671 249.882 326.927C242.362 333.105 225.409 343.816 214.88 340.163C210.722 338.713 208.069 335.114 206.78 329.173C200.205 298.887 235.991 257.589 247.755 244.009C276.967 210.296 307.177 175.423 341.61 147.318C369.543 124.542 383.123 93.4931 376.311 68.2351C374.625 61.9824 370.381 57.0404 364.032 53.9463C353.46 48.7787 339.139 49.6489 331.028 53.0654C305.394 63.8948 281.726 84.4149 259.981 104.978C256.124 108.62 251.795 113.218 247.218 118.085C234.519 131.568 218.716 148.339 205.061 152.722C196.756 155.397 191.964 153.399 188.505 145.846C180.522 128.399 195.843 116.452 210.647 104.903C221.788 96.2112 232.306 88.0032 232.832 77.5927C233.316 68.0095 230.179 61.0585 223.496 56.9545C208.649 47.8333 180.888 56.1165 169.994 62.3262C109.035 97.2426 59.8948 151.809 23.8827 224.553C15.4277 241.656 4.61968 267.913 1.13878 295.943C0.392079 301.848 0.0117685 307.793 -1.15161e-05 313.745C-1.24309e-05 334.673 5.04936 352.948 15.0945 368.247C22.7439 379.892 32.6171 385.436 42.9093 383.932C55.9734 381.987 68.3069 368.515 73.6035 350.423C78.0942 335.071 79.1793 319.074 80.2322 303.614C81.747 281.482 83.3049 258.599 95.0367 237.907C100.57 228.152 113.096 215.55 123.604 218.042C127.235 218.912 129.62 220.427 130.877 222.673C133.713 227.733 130.877 236.37 128.191 244.718C125.022 254.452 121.745 264.518 127.375 270.298C130.812 273.822 134.626 275.251 138.698 274.531C147.895 272.931 157.8 260.221 168.963 235.683C178.17 215.421 190.299 207.75 197.884 207.32C201.306 206.938 204.638 208.577 206.425 211.521C213.752 223.822 194.22 260.124 154.179 308.62L153.664 309.254C151.332 312.08 148.894 314.948 146.541 317.72C133.574 332.976 120.166 348.758 114.482 369.364C109.111 389.024 108.638 412.338 109.229 428.367C110.819 471.158 141.674 507.793 179.459 511.715Z" fill="#F4F4F4"/>
<path d="M74.291 82.4918C82.0048 76.6688 89.5252 73.6499 96.7126 70.6417C105.662 66.9782 114.117 63.5081 121.014 55.3108C127.686 47.3606 131.5 38.6907 132.338 29.5265C133.219 20.0293 130.447 3.74216 119.295 0.58358C111.259 -1.70478 104.942 3.1835 99.377 7.50237C97.05 9.44243 94.5296 11.1381 91.8566 12.5625C85.4105 15.6352 80.5437 15.1732 74.8711 14.636C71.3065 14.2128 67.7128 14.0906 64.1277 14.2708C54.4585 14.9261 39.4177 22.973 26.214 43.6004C19.8324 53.6026 14.2028 66.9137 14.2028 78.6778C14.1545 82.2174 14.7582 85.7352 15.9862 89.056C19.2092 97.4359 23.8827 102.528 29.8453 104.183C41.9962 107.556 56.3817 96.3723 69.0697 86.5098C70.8639 85.1132 72.615 83.7488 74.291 82.4918Z" fill="#F4F4F4"/>
<path d="M478.998 160.822C472.143 154.892 458.768 154.677 447.498 165.958C443.361 169.966 441.001 175.464 440.944 181.224C440.939 183.363 441.264 185.492 441.911 187.531C444.06 194.159 449.184 198.919 455.351 199.95C459.724 200.681 468.437 200.079 477.612 187.81C487.034 175.229 484.53 165.614 478.998 160.822Z" fill="#F4F4F4"/>
<path d="M527.859 123.586C522.315 132.986 519.554 141.538 519.554 149.37C519.573 156.94 522.315 164.25 527.279 169.965C534.799 179.065 544.769 182.46 556.189 179.806C582.597 173.661 609.82 138.014 614.58 117.902C617.072 107.363 615.944 98.7359 611.357 92.9452C606.973 87.466 599.539 84.6297 589.87 84.7372C566.761 84.952 535.852 110.081 527.859 123.586Z" fill="#F4F4F4"/>
<path d="M484.369 529.796C484.346 536.654 486.313 543.372 490.031 549.134C495.499 557.783 504.137 562.112 515.708 562.027C543.974 561.726 581.511 534.534 592.051 517.044C602.182 500.241 604.481 477.175 589.268 465.604C571.606 452.164 542.147 460.791 520.79 475.273C501 488.616 484.369 509.426 484.369 529.796Z" fill="#F4F4F4"/>
<path d="M288.709 587.188C298.013 574.843 295.832 557.235 287.817 550.896C278.621 543.601 268.726 554.119 265.911 557.46C260.679 563.745 257.918 570.793 257.918 577.39C257.909 580.088 258.401 582.767 259.369 585.286C261.636 591.152 266.277 595.116 271.777 595.879C277.826 596.663 283.842 593.634 288.709 587.188Z" fill="#F4F4F4"/>
<path d="M105.308 549.048C103.718 540.711 100.731 535.082 97.7871 529.71C95.7201 526.029 93.9238 522.201 92.4154 518.258C90.0841 511.876 90.0196 507.6 89.9337 502.647C89.8155 496.105 89.6973 488.681 84.3793 474.972C79.577 462.585 71.6698 459.158 65.8898 458.47C55.9521 457.267 44.4029 463.434 37.1725 473.812C30.7264 483.094 27.1489 495.997 27.1489 510.275L27.1489 511.801C27.3852 525.359 30.7586 539.197 36.4097 549.779C51.2142 577.476 67.179 583.857 71.7235 585.146C78.3866 587.113 85.5697 586.185 91.513 582.589C100.913 577.153 107.22 559.115 105.308 549.048Z" fill="#F4F4F4"/>
</svg>
