<svg width="631" height="385" viewBox="0 0 631 385" fill="none" xmlns="http://www.w3.org/2000/svg">
<path d="M244.35 347.251C234.034 335.025 233.823 316.286 241.817 300.672C242.395 299.547 243.012 298.387 243.688 297.147C238.018 293.071 236.795 283.808 238.928 275.754C239.787 272.526 241.215 268.671 243.22 263.983C243.774 262.687 244.37 261.331 245.031 259.86C245.907 257.91 248.857 251.498 249.369 250.361C251.741 245.075 254.2 239.712 257.768 232.006C258.112 231.264 258.473 230.486 258.885 229.595C264.005 218.551 264.197 218.136 266.065 214.063C271.488 202.237 280.064 185.423 286.68 173.61C288.538 170.304 291.746 164.747 295.933 157.561L296.099 157.278C298.537 153.093 301.151 148.628 303.764 144.173C304.678 142.615 305.527 141.169 306.289 139.872C306.455 139.59 306.579 139.38 306.716 139.147C305.706 137.262 303.695 133.51 303.026 132.26C301.299 129.033 299.868 126.348 298.495 123.752C298.067 122.941 297.648 122.148 297.239 121.371C293.407 114.089 290.355 108.103 287.981 103.152C282.104 90.9136 280.111 85.9271 279.15 79.3678C278.539 75.2032 278.692 71.2385 279.692 67.3251C282.032 58.1525 292.927 54.7762 302.265 60.2446C307.8 63.4911 312.336 67.5633 320.192 75.6898C320.248 75.7477 322.523 78.105 323.175 78.7775C324.302 79.9394 325.231 80.8855 326.122 81.7746C326.985 82.6348 327.792 83.4212 328.569 84.1581C329.355 84.8988 333.749 89.0783 335.032 90.2841C347.191 101.711 355.398 107.617 364.798 110.387C379.686 114.77 394.716 115.831 423.26 115.831C430.978 115.831 449.449 116.021 475.418 116.347C478.469 116.385 481.598 116.425 484.796 116.466C495.545 116.605 553.297 116.754 564.04 116.903C567.8 116.955 571.253 117.003 574.322 117.047C575.396 117.062 576.346 117.075 577.162 117.087C577.986 117.098 577.986 117.098 578.159 117.101C579.18 117.116 580 117.948 580 118.969L580 280.855C580 281.897 579.147 282.738 578.105 282.723C577.38 282.713 577.38 282.713 574.119 282.666C570.948 282.62 567.415 282.57 563.61 282.515C552.738 282.359 495.168 282.203 485.021 282.057L484.733 282.053C466.516 281.791 452.722 281.592 445.116 281.481C437.223 281.351 428.951 281.095 419.606 280.71C412.423 280.414 406.445 280.13 393.902 279.506C378.832 278.758 372.285 278.449 364.331 278.142C364.067 278.436 363.773 278.765 363.449 279.125C362.279 280.43 360.97 281.884 359.553 283.45C355.504 287.923 351.403 292.395 347.499 296.572C347.026 297.078 346.559 297.578 346.095 298.07C339.168 305.443 333.789 310.876 330.504 313.708C328.396 315.522 326.203 317.505 323.676 319.863C322.497 320.964 321.273 322.119 319.739 323.576C319.082 324.201 316.438 326.72 315.772 327.353C302.622 339.852 294.941 346.161 285.477 351.241C279.724 354.345 272.706 353.85 268.378 349.895C260.859 356.032 250.371 354.386 244.35 347.251Z" fill="#FCB7A0"/>
<path d="M382.826 184.47C382.786 185.171 382.745 185.682 382.627 187.037C382.556 187.85 382.521 188.272 382.487 188.749C382.331 190.942 382.367 192.478 382.662 193.805C382.886 194.812 382.252 195.809 381.245 196.033C380.238 196.258 379.24 195.623 379.016 194.617C378.625 192.859 378.581 191.009 378.76 188.485C378.797 187.981 378.833 187.544 378.906 186.711C379.021 185.398 379.06 184.91 379.095 184.263C379.152 183.232 380.034 182.444 381.064 182.501C382.094 182.558 382.883 183.44 382.826 184.47Z" fill="#2D2721"/>
<path d="M312.169 178.927C310.539 185.722 312.013 194.083 316.872 202.29C321.305 209.776 327.49 214.14 336.343 217.494C337.307 217.859 337.794 218.937 337.428 219.902C337.063 220.867 335.984 221.352 335.02 220.987C325.445 217.361 318.59 212.524 313.657 204.193C308.319 195.178 306.671 185.83 308.535 178.056C308.776 177.052 309.784 176.434 310.787 176.675C311.79 176.916 312.409 177.924 312.169 178.927Z" fill="#2D2721"/>
<path d="M279.904 227.133C279.904 248.708 287.12 272.163 299.147 290.175C299.721 291.033 299.489 292.194 298.632 292.766C297.773 293.339 296.613 293.108 296.041 292.25C283.607 273.628 276.169 249.451 276.169 227.133C276.169 226.101 277.004 225.265 278.037 225.265C279.069 225.265 279.904 226.101 279.904 227.133Z" fill="#2D2721"/>
<path d="M286.017 265.24C285.012 266.846 283.985 268.457 282.932 270.076C276.663 279.72 257.128 306.841 256.258 308.115C247.763 320.557 243.564 329.115 242.569 337.178C242.443 338.202 241.51 338.93 240.486 338.804C239.462 338.677 238.735 337.744 238.861 336.721C239.949 327.912 244.366 318.907 253.172 306.009C254.089 304.666 273.59 277.594 279.8 268.04C280.841 266.438 281.856 264.847 282.851 263.258C283.398 262.384 284.551 262.119 285.425 262.666C286.299 263.213 286.565 264.366 286.017 265.24Z" fill="#2D2721"/>
<path d="M280.226 243.082C279.619 243.928 279.055 244.712 278.09 246.053C269.401 258.134 265.737 263.31 260.98 270.356C252.811 282.457 249.924 287.067 245.403 295.668C244.924 296.581 243.794 296.932 242.882 296.452C241.968 295.972 241.617 294.843 242.097 293.93C246.696 285.178 249.644 280.472 257.883 268.266C262.668 261.179 266.346 255.983 275.057 243.872C276.021 242.531 276.585 241.748 277.192 240.902C277.794 240.065 278.961 239.873 279.799 240.475C280.637 241.077 280.828 242.245 280.226 243.082Z" fill="#2D2721"/>
<path d="M267.766 346.882C268.29 347.772 267.993 348.917 267.104 349.44C266.215 349.964 265.07 349.667 264.546 348.777C262.709 345.655 261.659 342.132 261.488 338.513L261.486 338.393C261.536 335.494 262.52 332.361 264.313 328.858C265.546 326.446 267.085 323.986 269.208 320.909C269.273 320.813 273.181 315.265 274.062 313.914C283.377 299.679 287.59 293.117 292.627 284.852C293.164 283.971 294.313 283.691 295.195 284.229C296.075 284.765 296.355 285.914 295.818 286.795C290.754 295.107 286.524 301.692 277.19 315.958C276.267 317.372 272.314 322.984 272.283 323.03C270.244 325.985 268.784 328.321 267.639 330.558C266.097 333.572 265.275 336.174 265.223 338.398C265.374 341.39 266.246 344.301 267.766 346.882Z" fill="#2D2721"/>
<path d="M243.106 348.316C231.272 334.307 233.196 313.918 240.36 299.936C240.743 299.189 241.144 298.414 241.593 297.583C235.634 292.156 235.662 281.649 237.334 275.345C239.043 268.882 242.863 260.579 245.936 253.863C246.627 252.369 247.281 250.959 247.86 249.67C251.399 241.759 255.182 233.615 258.843 225.732L259.086 225.209L264.568 213.357C270.088 201.346 278.793 184.282 285.256 172.776C289.608 165.042 301.134 145.41 304.869 139.087L303.683 136.883C298.136 126.525 291.233 113.627 286.536 103.839L286.433 103.624C280.241 90.7165 274.898 79.5742 278.13 66.9001C279.224 62.4955 282.369 58.8848 286.582 57.1961C291.691 55.0667 297.725 55.6551 303.123 58.8212C310.287 63.0241 316.507 69.4686 322.54 75.7262C325.015 78.2853 327.35 80.7043 329.723 82.9458L332.45 85.5423C342.126 94.7606 353.081 105.202 365.288 108.798C383.538 114.178 406.514 114.178 423.288 114.178C424.222 114.178 425.278 114.178 426.501 114.178C427.897 112.247 429.706 110.652 431.797 109.508C432.982 108.841 434.313 108.475 435.673 108.443C438.218 106.655 441.435 106.116 444.424 106.977C450.887 108.621 456.631 115.056 458.434 120.333C464.336 137.331 469.221 161.166 471.201 182.508C471.733 188.242 471.967 194.014 471.967 199.758C471.967 217.765 469.697 235.557 467.297 251.248C465.42 262.975 460.768 274.084 453.726 283.648C450.252 288.411 445.591 291.035 441.248 290.653C438.291 290.349 435.61 288.778 433.898 286.347C432.663 287.13 431.177 287.41 429.742 287.131C427.276 286.655 425.231 284.703 423.718 282.462C413.444 282.069 403.17 281.528 393.205 281.061C383.968 280.603 374.432 280.127 365.027 279.753C359.423 286.039 339.809 307.772 331.553 314.908C327.332 318.541 323.231 322.454 318.87 326.611C308.801 336.193 298.388 346.112 286.237 352.631C280.287 355.825 273.161 355.433 268.332 351.931C265.117 354.256 261.211 355.427 257.246 355.256C251.78 354.985 246.665 352.474 243.106 348.316Z" fill="black"/>
<path fill-rule="evenodd" clip-rule="evenodd" d="M284.288 263.522C284.321 263.604 284.35 263.687 284.373 263.772C287.599 273.214 291.97 282.225 297.279 290.175C297.853 291.034 297.621 292.194 296.764 292.766C295.905 293.34 294.745 293.108 294.173 292.251C293.551 291.319 292.942 290.374 292.345 289.416C287.922 296.604 283.657 303.219 275.322 315.959C274.688 316.929 273.965 317.947 272.968 319.291C272.884 319.405 272.627 319.749 272.302 320.183C271.654 321.05 270.736 322.277 270.382 322.759C265.605 329.245 263.422 333.671 263.354 338.451C263.305 341.478 265.204 347.715 266.649 349.428C267.315 350.216 267.215 351.394 266.427 352.059C265.639 352.725 264.461 352.625 263.795 351.837C261.722 349.382 259.555 342.268 259.618 338.395C259.701 332.611 262.164 327.618 267.373 320.543C267.739 320.047 268.677 318.792 269.325 317.925C269.641 317.503 269.887 317.174 269.968 317.065C270.924 315.776 271.609 314.812 272.194 313.914C281.152 300.223 285.393 293.631 290.185 285.793C287.068 280.331 284.354 274.509 282.093 268.483C281.558 269.314 281.018 270.147 280.47 270.983C275.942 277.893 264.328 294.101 258.092 302.803L258.09 302.806C255.936 305.814 254.424 307.924 254.069 308.443C245.71 320.684 241.594 329.171 240.704 337.157C240.589 338.182 239.665 338.92 238.639 338.806C237.615 338.691 236.876 337.768 236.99 336.742C237.966 327.992 242.305 319.044 250.983 306.337C251.356 305.79 252.919 303.609 255.133 300.519C261.4 291.771 272.886 275.741 277.345 268.935C278.427 267.284 279.481 265.645 280.511 264.011C278.584 258.22 277.074 252.281 276.027 246.326C267.477 258.213 263.833 263.364 259.112 270.356C250.943 282.457 248.056 287.067 243.535 295.668C243.056 296.581 241.926 296.933 241.014 296.452C240.1 295.973 239.749 294.843 240.229 293.931C244.828 285.178 247.776 280.472 256.015 268.266C260.8 261.179 264.478 255.983 273.189 243.872C274.098 242.609 274.651 241.84 275.22 241.047C274.614 236.374 274.3 231.714 274.3 227.133C274.3 226.101 275.136 225.265 276.168 225.265C277.2 225.265 278.036 226.101 278.036 227.133C278.036 239.101 280.256 251.647 284.288 263.522ZM311.531 202.351C306.941 194.004 305.734 185.574 307.577 178.855C307.85 177.86 307.264 176.832 306.27 176.559C305.275 176.286 304.247 176.872 303.974 177.867C301.865 185.556 303.214 194.98 308.258 204.151C312.921 212.631 319.611 217.684 329.069 221.628C330.021 222.025 331.115 221.575 331.512 220.623C331.909 219.67 331.459 218.577 330.507 218.18C321.76 214.533 315.722 209.972 311.531 202.351ZM425.065 278.581C425.83 277.094 426.138 275.754 426.592 272.573L426.646 272.195C426.796 271.152 426.903 270.483 427.041 269.783C427.239 268.77 428.221 268.111 429.234 268.31C430.245 268.508 430.905 269.49 430.707 270.503C430.583 271.126 430.485 271.742 430.343 272.727L430.29 273.1C429.778 276.69 429.405 278.31 428.386 280.29C427.914 281.207 426.788 281.569 425.871 281.096C424.953 280.624 424.592 279.498 425.065 278.581ZM429.147 114.052C432.461 114.289 435.144 117.726 437.739 123.49C439.424 127.231 440.936 131.767 441.915 135.492C443.849 142.787 444.48 149.743 444.48 160.251C444.48 161.283 443.644 162.119 442.612 162.119C441.58 162.119 440.744 161.283 440.744 160.251C440.744 150.038 440.139 143.374 438.304 136.446C435.871 127.196 431.722 117.982 428.88 117.778C427.851 117.705 427.076 116.811 427.15 115.782C427.224 114.752 428.118 113.978 429.147 114.052ZM447.338 175.288L447.338 178.155C447.338 179.187 446.502 180.023 445.47 180.023C444.438 180.023 443.602 179.187 443.602 178.155L443.602 175.288C443.602 174.256 444.438 173.42 445.47 173.42C446.502 173.42 447.338 174.256 447.338 175.288ZM437.503 284.706C446.01 277.802 451.701 260.924 451.84 247.036C451.85 246.004 451.023 245.16 449.991 245.149C448.959 245.139 448.114 245.966 448.104 246.998C447.975 259.884 442.631 275.732 435.15 281.805C434.348 282.455 434.226 283.632 434.876 284.432C435.526 285.234 436.703 285.356 437.503 284.706Z" fill="white"/>
<path d="M294.079 129.81C294.556 129.895 294.946 129.961 295.802 130.104C302.946 131.296 305.975 132.357 309.133 135.804C313.845 140.937 314.562 148.101 313.619 160.244C313.095 166.881 312.301 173.917 311.176 182.289C310.59 186.652 310.143 189.79 308.941 198.062C308.636 200.166 308.453 201.421 308.262 202.751C306.776 213.128 305.795 221.552 303.797 240.178C301.246 263.963 299.987 274.341 297.849 287.33C297.096 291.943 296.654 293.876 295.629 296.076C294.216 299.108 291.987 301.233 288.645 302.473C284.231 304.097 278.521 304.41 271.304 303.786C267.816 303.485 265.499 303.17 259.243 302.227C258.603 302.131 258.132 302.061 257.685 301.995C254.11 301.471 250.495 301.074 245.432 300.614C244.456 300.525 243.717 300.459 241.896 300.299C234.535 299.649 231.182 299.312 227.013 298.734C220.694 297.881 214.364 297.334 198.889 296.183L198.668 296.167C184.47 295.111 178.229 294.578 171.921 293.785C164.339 292.818 158.233 292.129 144.599 290.654C140.299 290.19 138.437 289.987 136.073 289.727C123.998 288.399 115.301 287.339 106.701 286.092C103.561 285.637 101.192 285.344 94.8819 284.6C91.2399 284.171 89.3301 283.94 87.1496 283.657C78.4179 282.525 71.9413 281.337 66.0637 279.621C58.5034 277.434 53.8663 274.063 52.5255 267.925C51.931 265.38 52.2685 262.032 53.2094 256.477C54.6529 248.098 55.5925 239.638 56.0205 231.135C57.1524 210.609 58.6289 192.528 60.6808 175.31C61.3984 169.27 62.5323 159.804 64.5073 143.346L64.5226 143.217C64.7186 141.584 65.8922 131.809 66.2136 129.126C66.8322 123.97 67.2941 120.121 67.6816 116.887C68.5863 109.29 75.4023 103.812 83.0104 104.565C96.5409 105.862 112.519 107.422 122.505 108.428C130.059 109.194 136.146 109.918 149.619 111.601L149.725 111.614C161.494 113.084 166.724 113.714 173.261 114.415C191.715 116.408 200.776 117.441 210.06 118.594C210.815 118.688 211.59 118.785 212.406 118.888C214.627 119.166 223.629 120.311 225.813 120.586C232.338 121.41 238.879 122.224 246.83 123.197C263.643 125.236 283.317 127.933 294.079 129.81Z" fill="white"/>
<path d="M80.238 129.227C98.8901 132.337 125.013 135.799 149.561 138.557C160.343 139.772 166.532 140.527 205.22 145.303C207.053 145.529 208.716 145.734 210.306 145.93C239.589 149.538 256.022 151.484 266.131 152.475C275.971 153.438 291.909 155.08 297.675 155.75C298.862 155.889 299.934 155.039 300.072 153.854C300.21 152.667 299.361 151.594 298.175 151.456C292.375 150.782 276.418 149.137 266.553 148.172C256.494 147.187 240.075 145.242 210.834 141.639C209.246 141.443 207.583 141.238 205.751 141.012C167.035 136.233 160.849 135.478 150.044 134.261C125.566 131.51 99.5141 128.058 80.9495 124.962C79.7714 124.765 78.6583 125.561 78.4618 126.739C78.2656 127.916 79.0609 129.03 80.238 129.227Z" fill="#D7D7D7"/>
<path d="M84.6172 116.935L84.7178 116.184C84.8765 115.002 84.0457 113.914 82.862 113.755C81.6794 113.596 80.5907 114.427 80.4328 115.611L80.3323 116.361C80.1735 117.544 81.0043 118.632 82.1869 118.79C83.3706 118.949 84.4582 118.119 84.6172 116.935Z" fill="#F97560"/>
<path d="M95.5149 117.943L95.6174 117.181C95.7764 115.998 94.9468 114.909 93.7631 114.75C92.5806 114.59 91.492 115.421 91.3321 116.603L91.2297 117.365C91.0707 118.548 91.9002 119.637 93.084 119.796C94.2675 119.956 95.355 119.125 95.5149 117.943Z" fill="#FCD400"/>
<path d="M106.413 118.948L106.516 118.187C106.675 117.003 105.845 115.915 104.661 115.756C103.478 115.596 102.39 116.427 102.23 117.609L102.128 118.37C101.969 119.554 102.799 120.642 103.982 120.801C105.166 120.961 106.253 120.131 106.413 118.948Z" fill="black"/>
<path d="M347.791 149.641L336.479 147.628C335.304 147.419 334.182 148.203 333.972 149.378C333.763 150.554 334.546 151.676 335.722 151.885L347.034 153.897C348.209 154.106 349.332 153.323 349.541 152.148C349.75 150.972 348.966 149.85 347.791 149.641Z" fill="white"/>
<path d="M340.507 143.702C340.51 143.785 340.514 143.958 340.513 144.21C340.513 144.64 340.504 145.124 340.482 145.65C340.405 147.529 340.196 149.408 339.819 151.097C339.439 152.803 338.911 154.177 338.265 155.101C337.579 156.079 337.817 157.426 338.795 158.112C339.773 158.796 341.121 158.559 341.805 157.581C342.826 156.123 343.545 154.25 344.038 152.038C344.479 150.066 344.715 147.943 344.802 145.827C344.843 144.818 344.843 144.034 344.829 143.569C344.792 142.375 343.794 141.438 342.601 141.475C341.408 141.512 340.471 142.509 340.507 143.702Z" fill="white"/>
<path d="M318.921 113.524L321.933 114.06C323.109 114.269 324.231 113.486 324.44 112.31C324.649 111.135 323.866 110.012 322.69 109.803L319.678 109.268C318.504 109.059 317.381 109.842 317.171 111.017C316.962 112.193 317.746 113.315 318.921 113.524Z" fill="white"/>
<path d="M333.196 115.603L336.219 116.14C337.395 116.349 338.516 115.566 338.726 114.39C338.935 113.215 338.152 112.093 336.976 111.884L333.954 111.346C332.778 111.137 331.656 111.92 331.447 113.096C331.238 114.271 332.021 115.393 333.196 115.603Z" fill="white"/>
<path d="M327.657 103.54L327.12 106.562C326.911 107.738 327.694 108.86 328.87 109.069C330.045 109.278 331.167 108.495 331.376 107.32L331.914 104.297C332.123 103.122 331.34 102 330.164 101.79C328.989 101.581 327.867 102.365 327.657 103.54Z" fill="white"/>
<path d="M325.106 117.885L324.568 120.907C324.359 122.083 325.142 123.205 326.318 123.414C327.494 123.623 328.615 122.84 328.825 121.664L329.362 118.642C329.571 117.467 328.788 116.344 327.613 116.135C326.437 115.926 325.315 116.709 325.106 117.885Z" fill="white"/>
<path d="M248.384 89.5473C252.504 90.2309 256.656 90.7048 260.825 90.9672C262.016 91.0421 263.043 90.1371 263.118 88.9455C263.193 87.7539 262.289 86.7273 261.097 86.6523C257.074 86.3991 253.067 85.9419 249.092 85.2822C247.914 85.0868 246.8 85.8831 246.605 87.0609C246.41 88.2387 247.206 89.3519 248.384 89.5473Z" fill="black"/>
<path d="M253.598 81.6098C253.769 82.8574 253.758 84.6033 253.586 86.6862C253.374 89.2463 252.968 91.9122 252.548 94.1093C252.519 94.2574 252.499 94.3584 252.489 94.4076C252.251 95.5775 253.008 96.7186 254.178 96.9559C255.347 97.1933 256.489 96.4372 256.726 95.2672C256.739 95.2029 256.762 95.0864 256.793 94.9225C257.24 92.587 257.668 89.7829 257.894 87.0415C258.09 84.6713 258.103 82.6416 257.881 81.0218C257.719 79.8391 256.629 79.0119 255.445 79.1741C254.262 79.3365 253.436 80.4271 253.598 81.6098Z" fill="black"/>
<path d="M37.9612 91.7027C37.9816 91.7978 38.0037 92.1553 38.0075 92.6648C38.0136 93.5868 37.9649 94.9034 37.8716 96.5635C37.8099 97.6568 37.5087 102.047 37.5199 102.348C37.5612 103.541 38.5622 104.475 39.7552 104.433C40.9484 104.391 41.8818 103.39 41.8404 102.197C41.8387 102.157 42.1066 98.2508 42.1878 96.807C42.2862 95.0628 42.3374 93.6701 42.3305 92.635C42.3251 91.8568 42.2892 91.2813 42.196 90.83C41.955 89.6606 40.8121 88.9082 39.6428 89.1493C38.4725 89.3901 37.7202 90.5335 37.9612 91.7027Z" fill="black"/>
<path d="M32.6145 99.3318C32.7512 99.3347 33.0071 99.3401 33.3638 99.3469C33.9568 99.3581 34.6179 99.3693 35.3296 99.3798C37.3651 99.41 39.4027 99.4287 41.3104 99.4303C42.0492 99.4309 42.7543 99.4286 43.4238 99.4238C44.4022 99.4165 45.2948 99.4034 46.0899 99.3834C47.2831 99.3535 48.2258 98.3616 48.1966 97.1682C48.1663 95.9746 47.1748 95.0314 45.9816 95.0613C45.2141 95.0806 44.3467 95.0935 43.3915 95.1005C42.7352 95.1054 42.041 95.1074 41.3133 95.1068C39.4286 95.1053 37.4107 95.0868 35.3939 95.0568C34.6876 95.0463 34.0331 95.0353 33.4445 95.024C33.0932 95.0175 32.8417 95.0122 32.7093 95.0094C31.5162 94.9834 30.5267 95.9296 30.501 97.1233C30.4742 98.3167 31.4214 99.3058 32.6145 99.3318Z" fill="black"/>
<path d="M84.9735 63.6613L84.3014 67.439C84.0923 68.6145 84.8763 69.7369 86.0511 69.9459C87.227 70.1551 88.3489 69.3717 88.558 68.1962L89.2301 64.4185C89.4392 63.243 88.6563 62.1208 87.4804 61.9116C86.3056 61.7026 85.1826 62.4858 84.9735 63.6613Z" fill="black"/>
<path d="M82.5483 77.293L82.0107 80.3152C81.8016 81.4907 82.5856 82.6132 83.7604 82.8222C84.9363 83.0313 86.0582 82.2479 86.2673 81.0725L86.8049 78.0503C87.014 76.8748 86.2311 75.7525 85.0552 75.5433C83.8804 75.3344 82.7574 76.1176 82.5483 77.293Z" fill="black"/>
<path d="M79.4497 69.9653L74.7926 69.9163C73.5983 69.9036 72.6199 70.8612 72.6073 72.0551C72.5948 73.2488 73.5526 74.2269 74.747 74.2395L79.4041 74.2886C80.5974 74.301 81.5758 73.3434 81.5883 72.1497C81.6009 70.9558 80.643 69.9778 79.4497 69.9653Z" fill="black"/>
<path d="M90.9122 76.1362L95.555 76.512C96.7455 76.6084 97.788 75.7218 97.8845 74.5318C97.9809 73.3419 97.0938 72.299 95.9044 72.2028L91.2616 71.827C90.0711 71.7306 89.0285 72.6171 88.9321 73.8072C88.8357 74.9971 89.7228 76.0399 90.9122 76.1362Z" fill="black"/>
<path fill-rule="evenodd" clip-rule="evenodd" d="M249.918 245.302C249.943 246.417 251.06 247.173 252.105 246.784C252.172 246.759 252.295 246.712 252.468 246.648C252.754 246.539 253.072 246.418 253.414 246.287C253.86 246.116 254.306 245.943 254.746 245.77L257.142 251.05C257.634 252.138 258.917 252.62 260.003 252.126C261.09 251.633 261.572 250.352 261.079 249.265L258.744 244.117C259.038 243.985 259.304 243.862 259.54 243.747C259.967 243.54 260.299 243.361 260.553 243.195C260.753 243.065 260.917 242.936 261.067 242.773C261.548 242.25 261.807 241.54 261.293 240.71C260.647 239.655 259.61 238.309 258.252 236.715C257.925 236.332 257.582 235.938 257.224 235.533C256.172 234.342 255.038 233.117 253.901 231.922C253.503 231.504 253.132 231.12 252.799 230.778C252.598 230.571 252.453 230.425 252.375 230.345C251.343 229.303 249.569 230.058 249.602 231.523L249.918 245.302Z" fill="black"/>
<path d="M601.637 20.6409C599.612 30.1497 597.831 51.0523 597.831 51.0523C597.831 51.0523 596.2 41.8751 594.333 37.6801C587.143 21.4758 571.868 8.64344 553.073 14.5878C535.19 20.2358 525.15 39.7598 528.718 59.4504C530.841 71.1423 537.437 84.4236 544.975 94.0407C536.705 94.1467 528.621 94.3826 520.416 95.8803C504.6 98.7648 490.216 104.155 483.278 116.769C489.324 116.562 496.768 116.876 502.778 116.769C516.015 116.564 546.876 117.024 567.797 116.769C568.493 119.539 569.48 122.231 570.741 124.796C573.268 129.65 576.891 136.472 583.329 135.715C568.015 140.252 561.679 155.733 564.943 170.84C567.002 180.398 579.249 186.882 590.113 188.485C585.941 189.273 581.828 190.35 577.804 191.706C566.23 195.409 558.698 205.202 553.398 215.813C544.959 232.601 545.058 251.593 550.74 269.3C552.132 273.476 553.855 277.535 555.895 281.439C528.657 281.783 492.406 282.214 480.685 282.206L477.755 282.205C477.644 285.571 477.765 288.941 478.12 292.29C479.969 309.382 498.936 324.378 515.307 326.393C528.878 328.053 540.758 327.078 555.042 319.664C548.239 323.956 545.233 326.886 542.503 333.11C538.776 341.652 537.493 355.244 542.158 363.393C548.244 373.956 554.938 378.599 566.397 382.188C585.249 388.092 601.831 379.493 611.292 364.496C619.719 351.15 626.198 330.77 628.068 315.119C629.63 302.131 630.131 246.731 630.265 227.702C630.532 189.207 630.182 140.172 630.114 101.667C630.076 75.0666 630.339 42.3798 626.84 15.9811C625.914 8.90129 620.938 -6.46659 609.769 3.1847C605.227 7.14352 602.831 15.0099 601.637 20.6409Z" fill="white"/>
<path d="M566.748 170.396C563.477 155.302 570.234 141.439 583.82 137.43C586.005 136.785 585.336 133.54 583.074 133.807C578.934 134.296 576.245 131.357 572.347 123.883C569.662 118.722 567.661 109.671 568.014 104.073C568.078 103.049 567.3 102.168 566.275 102.104C565.249 102.04 564.365 102.816 564.301 103.839C563.904 110.123 566.053 119.843 569.046 125.593C571.092 129.518 572.332 131.558 574.156 133.55C575.125 134.61 576.151 135.477 577.239 136.132C565.402 142.49 559.916 156.437 563.111 171.179C564.766 178.838 572.783 185.2 582.037 188.437C580.532 188.875 578.933 189.369 577.235 189.914C566.336 193.409 558.228 202.038 551.749 214.975C543.504 231.404 542.838 250.638 549.019 269.86C552.599 280.972 560.879 295.105 569.05 304.219C569.734 304.983 570.911 305.048 571.677 304.365C572.443 303.681 572.508 302.509 571.824 301.745C563.992 293.011 555.978 279.331 552.561 268.725C546.662 250.381 547.294 232.143 555.077 216.635C561.152 204.505 568.596 196.583 578.373 193.447C582.852 192.01 586.672 190.948 589.8 190.354C592.911 190.807 596.004 190.876 598.902 190.496C600.769 190.251 601.132 187.713 599.409 186.957C596.969 185.889 593.825 185.825 589.665 186.57C579.114 184.809 568.438 178.215 566.748 170.396Z" fill="black"/>
</svg>
