<?xml version="1.0" encoding="UTF-8"?>
<svg id="_レイヤー_1" data-name="レイヤー_1" xmlns="http://www.w3.org/2000/svg" xmlns:xlink="http://www.w3.org/1999/xlink" version="1.1" viewBox="0 0 248.6 67.3">
  <!-- Generator: Adobe Illustrator 29.5.1, SVG Export Plug-In . SVG Version: 2.1.0 Build 141)  -->
  <defs>
    <style>
      .st0 {
        fill: none;
      }

      .st1 {
        fill: #fff;
      }

      .st2 {
        fill: #fc6e47;
      }

      .st3 {
        clip-path: url(#clippath);
      }
    </style>
    <clipPath id="clippath">
      <rect class="st0" x="215.1" y="39.6" width="33.5" height="26.2"/>
    </clipPath>
  </defs>
  <g class="st3">
    <path d="M224.6,40c-.6,4.9-1,9.2-1,12.9s.1,4.7.4,6.7c.3,2,.7,3.9,1.2,5.8l-8.9.4c-.4-2-.7-3.9-.9-5.8-.2-1.9-.3-3.9-.3-6.3,0-3.8.3-8.3.9-13.6h8.7ZM246.4,63.6l-2.7-1.9c-.4,1.3-1.2,2.4-2.5,3.1-1.3.7-2.9,1.1-4.7,1.1-4,0-6.9-.6-8.9-1.8-2-1.2-3-2.9-3-5.2s.8-3.9,2.5-5c1.7-1.2,3.9-1.7,6.7-1.7s.9,0,1.7,0v-3.1c-3.6,0-6.8.1-9.5.2v-7.7c3.1-.1,6.3-.2,9.5-.2v-1.8h8.3v1.8h4.3v7.5h-4.3v4.8c1.7.5,3.3,1.1,4.8,1.6l-2.2,8.2ZM235.5,57.6c-.4,0-.9-.1-1.4-.1s-.9,0-1.2.2c-.3.2-.4.3-.4.5s.2.5.5.7c.4.2.8.3,1.4.3s1.1-.4,1.1-1.3v-.4Z"/>
  </g>
  <g>
    <path d="M132,31.3c-.2,3.5-.2,6.2,0,8.8,0,.9.1,1.8,0,2.8,0,.8,0,1.5,0,2.2,0,0,0,.2,0,.3,0,0-.2.1-.2.1h0c-.2,0-.3-.1-.4-.3,0-.7,0-1.5,0-2.3,0-.9,0-1.8,0-2.7-.3-2.6-.3-5.3-.1-8.7,0-4.5,0-8.7-.2-10.3,0-.7-.1-1.5,0-2.3,0-1.5,0-3.6,0-5s.2-.4.4-.4.4.2.4.4c0,1.4,0,3.5,0,5,0,.7,0,1.4,0,2.2,0,1.6.3,6.9.2,10.2Z"/>
    <path class="st2" d="M143.4,8.5c-.7-2.6-3.2-6.1-6.2-7.4-3.1-1.3-6.7-1.5-9.6-.5-3.4,1.1-6.1,3.8-7.6,7.5-1.7,4.1-.3,7.8.2,9.2.7,1.9,3,5.4,4.4,6.8,2.1,2.3,4.1,4.2,5.7,5.6-.9.7-1.7,1.6-2.4,2.5,0,.1-.1.3,0,.4,0,.1.2.2.4.2,0,0,0,0,0,0,1.6-.3,5,0,5,0,.2,0,.3,0,.4-.2,0-.1,0-.3,0-.5-.6-.9-1.3-1.7-2.1-2.5.3-.2.6-.4.8-.6l.4-.3c2.4-1.7,4.2-3.3,5.7-4.9,4.6-5.3,6.2-10.5,4.8-15.4Z"/>
    <path d="M131,30.1c-.3,0-.6,0-.9,0-.1,0-.2,0-.3-.2,0-.1,0-.3,0-.4,0-.1.2-.2.3-.2.7,0,1.2,0,2.1,0,.1,0,.3,0,.3.2,0,.1,0,.2,0,.4,0,.1-.2.2-.3.2-.4,0-.8,0-1.2,0Z"/>
    <path class="st1" d="M121.7,9.7c-.1,0-.3,0-.4-.2,0-.1,0-.3,0-.4.5-1.3,1.2-2.5,2-3.6.5-.7,1.5-1.6,2.5-2.3.1,0,.3-.1.4,0,.1,0,.2.2.2.4,0,.2,0,.3-.2.4-1,.7-1.8,1.4-2.3,2.1-.8,1.1-1.4,2.2-1.9,3.4,0,.2-.2.3-.4.3Z"/>
    <path class="st1" d="M127.4,3.2c-.2,0-.4-.1-.4-.3,0-.2,0-.4.2-.5.2,0,.3-.2.5-.2.2,0,.5,0,.6.2,0,.2,0,.5-.2.6-.1,0-.3.1-.4.2,0,0-.1,0-.2,0Z"/>
    <path d="M17,46.7v4.6c2.2,0,4.3.1,6.5.1,6.1,0,12.2-.4,18.1-1v16c-5.8.6-11.8.9-18.1.9s-16-.5-23.4-1.5V24.2h17v6.7h24.5v15.9h-24.5ZM28.5,24.3h5.7v4.4h-5.7v-4.4ZM35.7,24.3h5.7v4.4h-5.7v-4.4Z"/>
    <path d="M208.3,66.8h-43l5.1-42.6h17l-3.3,27.6h6.5c-.7-6.3-1.8-12.7-2.1-13.7h16.5c.8,1.9,3.3,21,3.3,28.7Z"/>
    <g>
      <path d="M50.4,42.8c7.8,0,7.8,6,15.6,6s7.8-6,15.6-6,7.8,6,15.6,6,7.8-6,15.6-6,7.8,6,15.6,6,7.8-6,15.6-6,7.8,6,15.6,6"/>
      <path d="M159.8,56.8c-6.6,0-10.4-2.9-12.7-4.7-1.6-1.2-1.8-1.3-2.9-1.3s-1.4.1-2.9,1.3c-2.3,1.7-6.1,4.7-12.7,4.7s-10.4-2.9-12.7-4.7c-1.6-1.2-1.8-1.3-2.9-1.3s-1.4.1-2.9,1.3c-2.3,1.7-6.1,4.7-12.7,4.7s-10.4-2.9-12.7-4.7c-1.6-1.2-1.7-1.3-2.9-1.3s-1.4.1-2.9,1.3c-2.3,1.7-6.1,4.7-12.7,4.7s-10.4-2.9-12.7-4.7c-1.6-1.2-1.8-1.3-2.9-1.3v-16c6.6,0,10.4,2.9,12.7,4.7,1.6,1.2,1.8,1.3,2.9,1.3s1.4-.1,2.9-1.3c2.3-1.7,6.1-4.7,12.7-4.7s10.4,2.9,12.7,4.7c1.6,1.2,1.7,1.3,2.9,1.3s1.4-.1,2.9-1.3c2.3-1.7,6.1-4.7,12.7-4.7s10.4,2.9,12.7,4.7c1.6,1.2,1.8,1.3,2.9,1.3s1.4-.1,2.9-1.3c2.3-1.7,6.1-4.7,12.7-4.7s10.4,2.9,12.7,4.7c1.6,1.2,1.8,1.3,2.9,1.3v16Z"/>
    </g>
  </g>
</svg>