<svg width="18" height="17" viewBox="0 0 18 17" fill="none" xmlns="http://www.w3.org/2000/svg">
<path d="M17.9171 13.9449C17.8101 12.7979 17.7901 11.6449 17.8571 10.4949C18.0511 7.46489 17.7431 4.42489 16.9471 1.49489C16.7031 0.65889 15.9471 0.0768877 15.0771 0.0548877H14.1671C9.0771 -0.0951123 3.90709 -0.0751085 1.68709 1.96489C-0.53291 4.00489 -0.172895 8.96489 0.577105 14.1649C0.637105 14.5449 0.687099 14.8779 0.727099 15.1649C0.858099 16.1669 1.7161 16.9139 2.7271 16.9049H2.8571C4.4671 16.8049 6.1371 16.7549 7.7571 16.7149C10.5871 16.6919 13.4141 16.5219 16.2271 16.2049C16.7501 16.1359 17.2241 15.8629 17.5471 15.4449C17.8661 15.0149 18.0001 14.4739 17.9171 13.9449Z" fill="#FC6E47"/>
</svg>
