<svg width="167" height="88" viewBox="0 0 167 88" fill="none" xmlns="http://www.w3.org/2000/svg">
<path d="M41.7484 9.9994C42.1473 10.0029 42.5439 9.93741 42.9207 9.80627C47.3221 8.22841 56.9959 6.73745 65.565 6.975C67.4849 7.0283 69.0846 5.51514 69.1379 3.59528C69.1912 1.67536 67.6781 0.0757078 65.7582 0.0223848C58.4888 -0.170744 47.1927 0.887603 40.5761 3.26116C39.0005 3.84148 38.0649 5.46492 38.3527 7.11907C38.6405 8.77322 40.0694 9.9853 41.7484 9.9994Z" fill="#F5F5F5"/>
<path d="M66.7296 11.0732C64.8124 10.9664 63.1716 12.4342 63.065 14.3515C62.9584 16.2687 64.4261 17.9094 66.3433 18.0162C69.472 18.1861 72.564 18.0162 75.5575 17.852C80.4939 17.5816 85.1561 17.3267 89.6135 18.5511C89.9144 18.6326 90.2247 18.6742 90.5366 18.6747C92.2771 18.674 93.749 17.3862 93.9807 15.6611C94.2123 13.9361 93.1327 12.3055 91.454 11.8457C85.9073 10.3238 80.4456 10.6212 75.1771 10.9109C72.2492 11.0712 69.4778 11.2238 66.7296 11.0732Z" fill="#F5F5F5"/>
<path d="M95.6275 7.47324C97.3753 7.56401 99.1309 7.69726 100.991 7.83825C104.316 8.09125 107.727 8.35197 111.124 8.35197C112.246 8.35197 113.368 8.323 114.483 8.25734C115.724 8.18357 116.832 7.45296 117.388 6.34111C117.945 5.22927 117.866 3.90483 117.182 2.86676C116.497 1.82869 115.311 1.23468 114.069 1.30851C110.05 1.54799 105.713 1.21774 101.516 0.899077C99.6987 0.760024 97.8195 0.617109 95.9867 0.512819C94.7447 0.448314 93.5628 1.05128 92.8859 2.09461C92.2089 3.13793 92.1402 4.46308 92.7053 5.57091C93.2704 6.6787 94.3836 7.401 95.6256 7.46551L95.6275 7.47324Z" fill="#F5F5F5"/>
<path d="M108.726 32.9971C110.409 32.9962 111.849 31.7897 112.146 30.133C112.442 28.4762 111.509 26.8452 109.931 26.2608C105.672 24.6868 99.6601 24.7254 94.3548 24.7602C92.2304 24.7737 90.2276 24.7872 88.5957 24.6945C87.3259 24.5688 86.0893 25.1489 85.3741 26.2057C84.659 27.2626 84.5804 28.6262 85.1694 29.7584C85.7583 30.8903 86.9201 31.6087 88.1959 31.6298C90.048 31.736 92.1589 31.7225 94.3954 31.707C99.1077 31.6761 104.448 31.6414 107.517 32.775C107.903 32.9203 108.313 32.9954 108.726 32.9971Z" fill="#F5F5F5"/>
<path d="M113.648 20.521C113.596 21.4434 113.912 22.3488 114.528 23.0373C115.144 23.7258 116.009 24.1409 116.932 24.1905C118.421 24.2697 119.912 24.4396 121.491 24.6192C123.761 24.878 126.101 25.1446 128.531 25.1446H128.863C130.783 25.1351 132.332 23.5709 132.322 21.6508C132.312 19.731 130.748 18.1824 128.828 18.1919H128.792C126.667 18.2112 124.543 17.9698 122.279 17.7129C120.667 17.5295 118.996 17.3383 117.306 17.2475C115.393 17.1444 113.757 18.6085 113.648 20.521Z" fill="#F5F5F5"/>
<path d="M45.7654 48.6252C51.1113 49.898 57.1388 51.329 62.4248 51.329C62.6604 51.329 62.8941 51.329 63.1258 51.329C65.0457 51.3051 66.5827 49.7292 66.5587 47.8093C66.5348 45.8894 64.9588 44.3524 63.0389 44.3764H62.954C58.4096 44.4903 52.5481 43.094 47.3761 41.8657C45.5453 41.4292 43.8148 41.0179 42.1385 40.6664C40.2873 40.3305 38.5049 41.5283 38.1165 43.369C37.728 45.2099 38.8745 47.0257 40.7035 47.4665C42.2891 47.789 43.9771 48.1907 45.7654 48.6252Z" fill="#F5F5F5"/>
<path d="M103.069 48.9111C107.727 50.4947 114.375 51.6709 119.131 52.3777C119.302 52.4023 119.475 52.4146 119.647 52.4144C121.465 52.4098 122.972 51.0057 123.105 49.1928C123.238 47.3799 121.952 45.7706 120.155 45.5004C115.68 44.8341 109.473 43.7448 105.307 42.3292C104.126 41.9101 102.812 42.1591 101.865 42.9804C100.919 43.8018 100.489 45.0687 100.738 46.2967C100.987 47.5246 101.877 48.5233 103.069 48.9111Z" fill="#F5F5F5"/>
<path d="M110.114 70.7018C110.073 68.7825 108.484 67.2599 106.564 67.3008C103.474 67.3665 100.321 67.2912 97.2672 67.2178C93.6673 67.1309 89.9437 67.0401 86.2144 67.1753C84.2945 67.2095 82.7657 68.7935 82.7999 70.7134C82.8341 72.6333 84.4181 74.1621 86.338 74.1279H86.4655C89.9862 74.0005 93.6016 74.0874 97.0992 74.1724C99.3742 74.2264 101.705 74.2824 104.052 74.2824C104.934 74.2824 105.823 74.2824 106.709 74.2554C107.632 74.2367 108.51 73.8516 109.149 73.1849C109.788 72.5182 110.135 71.6248 110.114 70.7018Z" fill="#F5F5F5"/>
<path d="M130.356 59.9638L121.75 60.1705C119.83 60.1934 118.292 61.7684 118.315 63.6883C118.338 65.6082 119.913 67.1461 121.833 67.1231H121.918L130.522 66.9165C131.764 66.8869 132.896 66.1969 133.491 65.1065C134.087 64.0161 134.055 62.6908 133.408 61.6301C132.761 60.5693 131.598 59.9343 130.356 59.9638Z" fill="#F5F5F5"/>
<path d="M125.97 79.9913C122.108 78.5757 117.362 78.9542 113.179 79.2903C111.783 79.4023 110.464 79.5066 109.317 79.5355C107.397 79.5579 105.858 81.1325 105.881 83.0524C105.903 84.9723 107.478 86.5106 109.398 86.4882H109.483C110.835 86.4554 112.246 86.3414 113.741 86.2217C117.217 85.9436 121.152 85.6288 123.591 86.521C125.39 87.168 127.373 86.2412 128.031 84.4464C128.689 82.6515 127.775 80.6621 125.984 79.9933L125.97 79.9913Z" fill="#F5F5F5"/>
<path d="M79.6616 80.2788C78.7602 80.1784 77.8784 80.0774 77.0157 79.9756C71.4613 79.3325 66.2159 78.7242 60.0918 78.8729C58.1719 78.9192 56.6531 80.5133 56.6995 82.4332C56.7458 84.3531 58.3399 85.8719 60.2598 85.8255C65.8992 85.6884 70.6791 86.2427 76.2142 86.8839L78.8871 87.1909C79.0153 87.2054 79.1444 87.2126 79.2734 87.2122C81.1191 87.2135 82.6441 85.7722 82.7468 83.9294C82.8495 82.0863 81.4942 80.4845 79.6596 80.2808L79.6616 80.2788Z" fill="#F5F5F5"/>
<path d="M62.3745 74.6977C64.1475 74.7022 65.6396 73.3717 65.8377 71.61C66.0359 69.8482 64.8765 68.2196 63.1471 67.83C60.5263 67.2352 57.8186 66.7833 55.1998 66.3449C51.314 65.694 47.6446 65.0799 44.2243 64.0466C42.386 63.492 40.4461 64.5327 39.8914 66.371C39.3368 68.2093 40.3774 70.1491 42.2157 70.7038C46.0609 71.8626 50.1224 72.5443 54.0526 73.201C56.6908 73.6432 59.1821 74.0604 61.6098 74.6108C61.8608 74.6676 62.1173 74.6968 62.3745 74.6977Z" fill="#F5F5F5"/>
<path d="M65.3217 55.2109C63.5063 55.3036 61.94 55.3828 60.451 55.0062C58.5865 54.5359 56.6937 55.6659 56.2234 57.5304C55.7529 59.3948 56.8831 61.2877 58.7476 61.758C61.2486 62.3895 63.599 62.2698 65.6751 62.1635C67.7822 62.0573 69.6034 61.9704 71.3918 62.5884C72.5646 62.9973 73.8667 62.7493 74.8073 61.9378C75.7478 61.1264 76.1839 59.875 75.9515 58.6546C75.719 57.4344 74.8532 56.4309 73.6803 56.022C70.6057 54.9424 67.7976 55.0854 65.3217 55.2109Z" fill="#F5F5F5"/>
<path d="M57.585 26.6374C59.5006 26.7697 61.1608 25.3242 61.293 23.4083C61.4253 21.4927 59.9796 19.8325 58.0639 19.7002C53.2357 19.3661 48.392 19.7562 43.7086 20.1348C41.6248 20.3009 39.4598 20.4747 37.3952 20.5751C35.4753 20.6205 33.9556 22.2136 34.001 24.1335C34.0463 26.0536 35.6395 27.5731 37.5594 27.5278H37.7293C39.9136 27.4215 42.1269 27.2439 44.2668 27.072C48.6952 26.707 53.2724 26.3381 57.585 26.6374Z" fill="#F5F5F5"/>
<path d="M81.5581 43.3393C83.3171 43.3369 84.7971 42.021 85.0052 40.2743C85.2134 38.5276 84.0842 36.9009 82.375 36.4851C78.5124 35.5465 75.2466 35.1969 72.0986 35.3843C70.8587 35.458 69.7525 36.1877 69.1965 37.2986C68.6404 38.4092 68.7192 39.7322 69.4031 40.7691C70.087 41.8058 71.272 42.3991 72.5119 42.3253C74.9511 42.1805 77.5642 42.4702 80.7354 43.2408C81.0046 43.3066 81.2809 43.3398 81.5581 43.3393Z" fill="#F5F5F5"/>
<path d="M87.8676 60.5586H87.9526L95.3282 60.3809C97.2481 60.3582 98.786 58.7832 98.763 56.8631C98.74 54.9432 97.165 53.4055 95.2451 53.4283H95.1602L87.7845 53.606C85.8646 53.629 84.3268 55.2039 84.3497 57.1238C84.3727 59.0439 85.9477 60.5816 87.8676 60.5586Z" fill="#F5F5F5"/>
<ellipse cx="85.8744" cy="31.1611" rx="21.7654" ry="22.1611" fill="black"/>
<path d="M29.3819 18.1659C30.9215 15.4992 34.7705 15.4992 36.3101 18.1659L57.8273 55.4348C59.3669 58.1015 57.4424 61.4348 54.3632 61.4348H11.3287C8.24953 61.4348 6.32503 58.1015 7.86463 55.4348L29.3819 18.1659Z" fill="#FC6E47"/>
<rect x="120.303" y="21.6635" width="46.6967" height="46.6967" rx="4" fill="#129ED8"/>
</svg>
