<svg width="100" height="100" viewBox="0 0 100 100" fill="none" xmlns="http://www.w3.org/2000/svg">
<rect width="100" height="100" fill="white"/>
<path d="M87.5887 60.5369C87.5646 60.0093 87.5504 59.484 87.5358 59.0316C87.4865 57.0153 87.3763 55.0377 87.2292 53.1094C87.082 51.1811 86.979 49.1477 86.948 47.1197C86.9241 46.0961 86.9213 45.0249 86.9118 43.9366C86.8784 38.9732 86.8457 33.3467 85.3951 28.769C83.2531 21.9388 79.0195 21.7892 73.6805 21.6088L73.4366 21.6018C68.4864 21.4344 46.0056 21.9467 39.7634 22.5427C36.8823 22.8182 33.902 22.8106 31.0136 22.8129C27.4919 22.7338 23.9691 22.8864 20.4676 23.2699C16.5376 23.7777 13.9461 24.7963 12.3113 26.4707C9.73963 29.0969 9.7774 33.9934 9.82227 39.6591C9.85343 43.6663 10.1938 47.81 10.5208 51.8253C10.6334 53.2028 10.7459 54.5803 10.8507 55.9457C11.0314 58.4298 11.4189 62.8084 12.0575 68.9765C12.5581 73.7875 15.8852 77.6269 20.0965 78.5601C20.6847 78.691 21.2837 78.7642 21.8862 78.7791C25.6479 78.8659 28.2024 78.8627 29.4715 78.7679C31.4828 78.6235 33.5494 78.5122 35.7371 78.3964C39.1093 78.2141 42.6065 78.0334 45.8609 77.6996C49.457 77.3319 53.1168 77.0775 56.6555 76.8277C62.2104 76.4345 67.9555 76.0312 73.6125 75.201C74.3579 75.0894 75.256 75.043 76.2105 74.9777C79.5822 74.7744 83.774 74.523 85.882 71.5852C87.99 68.6473 87.7473 64.1807 87.5887 60.5369Z" fill="#515151"/>
<path fill-rule="evenodd" clip-rule="evenodd" d="M76.8054 30.7026L76.919 30.5862C77.3122 30.183 77.9579 30.1752 78.3611 30.5685C78.7644 30.9617 78.7722 31.6074 78.3789 32.0106L78.2642 32.1278C78.1351 32.26 78.0629 32.3338 77.9407 32.4587C77.5924 32.8145 77.2036 33.2114 76.7842 33.6381C75.5865 34.8579 74.3831 36.077 73.2524 37.213L73.0751 37.3909C71.4718 39.0008 70.1632 40.2942 69.2479 41.1677C68.2305 42.1392 67.2993 43.1079 65.7894 44.7369C65.639 44.8995 65.0967 45.4853 65.1241 45.4559C63.751 46.9387 62.8373 47.9018 61.9725 48.75C62.5841 49.1503 63.2532 49.5952 63.9652 50.0773C66.2591 51.6316 68.537 53.2582 70.6442 54.8797C72.9342 56.6426 74.8841 58.2952 76.4 59.7946C77.4876 60.8702 78.3411 61.8568 78.9414 62.7538C79.2548 63.2223 79.1291 63.8555 78.6608 64.1685C78.193 64.4816 77.5596 64.3564 77.2466 63.888C76.7326 63.1203 75.9639 62.2319 74.9658 61.2446C73.5184 59.8131 71.6288 58.2115 69.4003 56.4962C67.3294 54.9019 65.0834 53.2987 62.8213 51.766C62.0293 51.2296 61.2918 50.7403 60.6292 50.3083C60.5654 50.2665 60.5037 50.2267 60.4439 50.1879C56.3845 53.9023 54.0552 55.5926 51.3696 56.2111C47.0274 57.212 41.971 55.7939 36.3517 52.4665C35.5184 51.9732 34.6794 51.4421 33.8354 50.8744C31.1746 53.4432 26.7605 59.9743 22.7034 66.82C22.4164 67.3047 21.7909 67.4643 21.3067 67.1773C20.8219 66.8903 20.6618 66.2647 20.9494 65.7801C24.9732 58.9902 29.262 52.6121 32.1355 49.6892C30.2748 48.3458 28.3881 46.8368 26.4779 45.1815C24.4832 43.4532 22.5992 41.6894 20.6217 39.7394C20.4764 39.5965 20.145 39.2656 19.7486 38.8696C18.8745 37.997 17.6839 36.8088 17.4799 36.6242C17.1512 36.321 16.7372 35.9598 16.2541 35.5525C16.1361 35.4532 16.0146 35.3511 15.8898 35.2472C15.3227 34.7758 14.7116 34.2811 14.099 33.7934C13.8841 33.6225 13.6846 33.465 13.5057 33.3246C13.3986 33.2402 13.3225 33.1805 13.2823 33.1497C12.8378 32.8037 12.7577 32.1634 13.1033 31.7188C13.4488 31.2742 14.0897 31.1937 14.5342 31.5398C14.577 31.5728 14.6559 31.6341 14.7652 31.7205C14.9476 31.8638 15.1503 32.0236 15.3687 32.1973C15.9921 32.6932 16.6146 33.1972 17.194 33.6792C17.3222 33.7864 17.4474 33.8909 17.5688 33.9935C18.0731 34.4186 18.5081 34.7981 18.8554 35.1184C19.0938 35.3342 20.3977 36.6357 21.2824 37.519C21.6417 37.8775 21.9321 38.1669 22.0538 38.2874C24.0026 40.2086 25.8558 41.9442 27.8133 43.6402C31.0967 46.4844 34.2972 48.8799 37.3908 50.7117C42.6024 53.7978 47.1849 55.0828 50.9118 54.2239C53.227 53.6904 55.521 51.9636 59.6442 48.1521C60.797 47.0837 61.7893 46.0559 63.6273 44.0703C63.5998 44.1003 64.1423 43.5139 64.2933 43.351C65.83 41.6929 66.7841 40.7006 67.8399 39.6927C68.7394 38.834 70.038 37.5504 71.6305 35.9517L71.8066 35.7745C72.9338 34.6419 74.1345 33.4259 75.3295 32.2091C75.7476 31.7832 76.1356 31.3877 76.4833 31.0323C76.6049 30.9078 76.6765 30.8344 76.8054 30.7026Z" fill="white"/>
<path d="M93.1261 21.0044C90.5506 16.3654 84.0562 12.2786 78.0518 13.7577C75.1355 14.4745 71.8939 15.7406 69.9513 19.676C68.7875 22.0293 67.3623 25.7033 68.5451 30.1694C69.7086 34.6051 73.2902 37.8376 78.1437 38.9131L78.4523 38.9815C83.3876 39.9707 88.8534 37.6934 92.0473 33.3198C94.8367 29.4519 95.2658 24.8521 93.1261 21.0044Z" fill="#FC6E47"/>
</svg>
