<svg width="100" height="100" viewBox="0 0 100 100" fill="none" xmlns="http://www.w3.org/2000/svg">
<rect width="100" height="100" fill="white"/>
<path d="M49.78 86.56C70.0931 86.56 86.56 70.0931 86.56 49.78C86.56 29.4669 70.0931 13 49.78 13C29.4669 13 13 29.4669 13 49.78C13 70.0931 29.4669 86.56 49.78 86.56Z" fill="#FCD400"/>
<path d="M75.2461 39.9197C77.6488 46.8661 76.563 55.9019 72.7603 62.9944C69.6349 68.8256 64.9968 72.8311 59.4068 74.4765C58.3322 74.7928 57.7178 75.9201 58.0341 76.9947C58.3504 78.0683 59.4778 78.6826 60.5514 78.3673C67.2281 76.4016 72.7147 71.6622 76.3339 64.9104C80.6465 56.8671 81.8712 46.6704 79.0792 38.5936C78.7133 37.5363 77.5586 36.9746 76.5002 37.3406C75.4418 37.7066 74.8812 38.8613 75.2461 39.9197Z" fill="white"/>
<path d="M50.8607 76.9973L50.3437 77.0987C49.2448 77.3147 48.528 78.3801 48.744 79.4791C48.9589 80.578 50.0244 81.2938 51.1233 81.0788L51.6403 80.9774C52.7393 80.7615 53.456 79.696 53.2401 78.5971C53.0252 77.4982 51.9597 76.7824 50.8607 76.9973Z" fill="white"/>
<path d="M49.5022 22.1631C50.6204 22.1154 51.4893 21.1695 51.4406 20.0503C51.393 18.9321 50.4471 18.0643 49.3279 18.112C44.4252 18.3228 39.623 19.5738 35.2414 21.7839L35.1258 21.8478C30.5111 24.5647 26.5381 28.2488 23.4805 32.6456C22.8408 33.5651 23.0679 34.8292 23.9874 35.4679C24.9069 36.1076 26.1711 35.8805 26.8097 34.961C29.5206 31.062 33.0394 27.7926 37.127 25.3757C40.9784 23.4424 45.1957 22.3486 49.5022 22.1631Z" fill="white"/>
</svg>
