<svg width="100" height="100" viewBox="0 0 100 100" fill="none" xmlns="http://www.w3.org/2000/svg">
<rect width="100" height="100" fill="white"/>
<path d="M87.3755 35.4782C87.3289 34.7379 86.7383 34.1441 85.9906 34.0861C85.8898 34.0786 85.6987 34.0638 85.4286 34.0437C84.9788 34.0102 84.4687 33.9722 83.9091 33.932C82.3112 33.816 80.636 33.6999 78.9644 33.592C77.9948 33.5295 77.0529 33.4707 76.1487 33.4179C73.0268 33.2348 70.4939 33.1217 68.7502 33.0994C68.2883 33.0935 67.8933 33.0882 67.1065 33.0771C63.6716 33.0295 62.2047 33.0123 60.3256 33.0034C55.9083 32.9833 52.259 33.0503 48.6978 33.243C44.8613 33.4491 41.7928 33.4521 34.9268 33.3368C30.982 33.2705 29.239 33.2512 27.0461 33.2646C22.7973 33.2914 19.1963 33.4744 15.7268 33.8837C15.0565 33.9633 14.5217 34.4745 14.4186 35.1345C13.871 38.6421 13.5159 42.4302 13.1939 47.5726C13.1127 48.8681 13.0698 49.6032 12.9163 52.3266C12.7192 55.8149 12.6094 57.5895 12.4567 59.5495C12.2777 61.8502 12.1565 64.8555 12.0828 68.4019C11.9993 72.4534 11.9858 76.7438 12.0121 80.6146C12.0151 80.9821 12.0174 81.3103 12.0204 81.5938C12.0219 81.7642 12.0234 81.8817 12.0242 81.9443C12.0332 82.7367 12.6689 83.3826 13.4693 83.4138C13.5874 83.4183 13.8108 83.4265 14.1283 83.4384C14.6571 83.4585 15.2551 83.4808 15.9111 83.5046C17.7858 83.573 19.7469 83.6415 21.7005 83.7055C22.777 83.7405 23.8234 83.774 24.83 83.8037C28.4672 83.9124 31.4078 83.9801 33.4073 83.9949C36.393 84.0158 39.5134 83.9719 43.1386 83.8692C45.3066 83.8082 47.0451 83.7479 50.9313 83.6035C56.7147 83.39 59.2717 83.3074 62.468 83.2509C64.791 83.2084 67.8256 83.041 71.4087 82.7732C72.8982 82.6615 74.4584 82.5343 76.0667 82.3944C78.2385 82.2062 80.39 82.0038 82.4256 81.8014C83.138 81.7307 83.7849 81.6645 84.3544 81.6057C84.6967 81.57 84.9382 81.5447 85.0653 81.5313C85.7153 81.4613 86.2448 80.9844 86.3765 80.3511C87.3296 75.7705 87.8291 69.2151 87.963 61.1686C88.0661 54.9897 87.9472 48.3755 87.6877 41.8796C87.6192 40.1757 87.5463 38.6124 87.4733 37.2224C87.4477 36.735 87.4236 36.3042 87.4026 35.9344C87.3898 35.7119 87.38 35.5586 87.3755 35.4782Z" fill="#91D5DD"/>
<path fill-rule="evenodd" clip-rule="evenodd" d="M42.4438 33.7558C41.6832 33.2445 40.4188 32.4146 39.0788 31.5342H39.0781C37.113 30.2434 34.9832 28.8449 34.0362 28.1867C26.7906 23.1463 22.689 18.8259 22.1148 14.1379C21.3565 7.9754 24.4302 5.67472 29.1097 7.73893C32.3003 9.14645 36.324 12.6182 38.6237 15.7465C41.526 19.6942 43.3271 22.9468 44.3647 26.7371C44.5511 26.2009 44.73 25.7038 44.9037 25.2414C45.3641 24.0177 45.7795 23.0597 46.1688 22.3639C48.4655 18.2701 52.0565 13.5633 54.7178 11.6761C56.76 10.2271 59.2169 9.0094 61.3751 8.62758C64.7161 8.03641 67.2419 9.49664 67.9082 13.1551C68.3304 15.4649 67.2756 17.7512 65.1832 20.067C63.8096 21.5875 62.3191 22.8278 60.0538 24.5049C56.6006 27.0044 53.0477 29.3465 49.4013 31.5274C54.9461 32.9304 59.0238 38.1629 60.3031 44.3736C60.4708 45.1884 59.9505 45.9852 59.1413 46.1546C58.3313 46.3233 57.5393 45.7999 57.3708 44.9851C56.0653 38.6456 51.3708 33.6888 45.4711 34.2197C45.4861 34.5067 45.4996 34.7981 45.5108 35.0948C45.5145 35.1807 45.51 35.2673 45.4988 35.3524C44.4343 43.3569 43.8863 51.4225 43.8579 59.4978C43.9155 70.3189 44.1596 76.3459 44.9927 83.3135C45.0908 84.1396 44.5054 84.8896 43.685 84.9891C42.8637 85.0885 42.1181 84.4996 42.0193 83.6734C41.1697 76.5643 40.9219 70.4417 40.8635 59.5008C40.8919 51.3253 41.4437 43.1732 42.5142 35.0828C42.4954 34.6279 42.4722 34.1866 42.4438 33.7558ZM36.2162 17.5373C34.2084 14.8074 30.5815 11.6776 27.9075 10.4982C25.3532 9.37163 24.6136 9.92514 25.0867 13.7681C25.5172 17.2843 29.1891 21.1522 35.7393 25.7091C36.6301 26.3281 38.6656 27.6648 40.5955 28.933L40.5977 28.9338C41.0753 29.2478 41.547 29.5574 41.9931 29.8511C41.2003 25.3529 39.4868 21.9866 36.2162 17.5373ZM64.9631 13.6989C65.3704 15.928 62.9165 18.6444 58.2924 22.0694C54.4947 24.8174 50.5668 27.3757 46.5207 29.7351C46.6816 29.2426 46.8238 28.8088 46.9212 28.5204C47.1996 27.6935 47.4586 26.96 47.7042 26.3078C48.1152 25.2143 48.4782 24.3776 48.7777 23.8437C50.873 20.1069 54.2305 15.7073 56.4433 14.1379C58.1576 12.9224 60.2485 11.8854 61.8932 11.594C63.716 11.2717 64.6158 11.792 64.9631 13.6989Z" fill="#FC6E47"/>
<path d="M43.3008 33.2353C40.4942 32.8371 36.3793 33.1854 34.7504 34.0921C30.4598 36.6397 26.9935 40.4937 24.8445 45.1248C24.4895 45.8904 23.5973 46.2149 22.8524 45.8505C22.1074 45.4861 21.7906 44.5702 22.1455 43.8054C24.5545 38.6135 28.4408 34.2939 33.2903 31.4157C35.6253 30.1146 40.3313 29.7165 43.7103 30.1959C44.5277 30.3118 45.0986 31.0866 44.9858 31.9258C44.8729 32.765 44.1183 33.3519 43.3008 33.2353Z" fill="#FC6E47"/>
<path d="M87.3927 56.9958C84.3735 56.7659 82.1343 56.5836 76.4151 56.1066C64.7505 55.1333 59.2981 54.7296 52.6836 54.421C47.7616 54.1911 43.1961 54.0883 38.8172 54.1241C26.9751 54.2262 21.2365 54.4818 13.6811 55.445C12.8593 55.5502 12.1124 54.9424 12.0112 54.0875C11.9108 53.2334 12.4952 52.4556 13.3163 52.3512C21.0132 51.3701 26.844 51.1098 38.7933 51.0069C43.2291 50.9711 47.8455 51.0747 52.8185 51.3069C59.4794 51.6179 64.9558 52.0231 76.6548 52.9988C82.3665 53.4757 84.6013 53.6581 87.6107 53.8864C88.4363 53.9495 89.0566 54.6961 88.9959 55.5549C88.936 56.4137 88.2175 57.0582 87.3927 56.9958Z" fill="#FC6E47"/>
</svg>
