<svg width="100" height="100" viewBox="0 0 100 100" fill="none" xmlns="http://www.w3.org/2000/svg">
<rect width="100" height="100" fill="white"/>
<path d="M10.2009 48.9488C10.3016 47.0773 10.3221 46.6803 10.3528 45.8968C10.3921 44.8749 10.381 44.0052 10.3161 41.4474C10.2598 39.2306 10.2427 38.0471 10.2658 36.6721C10.3648 30.669 11.3243 26.5601 13.9766 23.9729C15.6139 22.4373 17.4689 21.2363 19.4357 20.4317C23.9583 18.495 29.0674 17.951 36.4822 18.0878C43.9235 18.221 50.7057 18.185 62.784 18.0092C64.7551 17.9785 66.826 18.0254 69.1983 18.1417C70.7801 18.2192 72.1084 18.3027 74.8307 18.4871C75.6835 18.5449 75.8611 18.5569 76.2392 18.5821C79.8135 18.819 82.7722 19.4079 84.8526 20.6341C87.9633 22.4757 89.3701 25.949 89.8703 30.9716C89.9958 32.2351 90.0402 33.0837 90.1281 35.3882C90.1383 35.6424 90.1418 35.7434 90.1477 35.8903C90.2143 37.5229 90.2886 38.6772 90.5396 42.1887C90.683 44.196 90.7581 45.3265 90.8281 46.5779C91.1047 51.5133 91.0654 55.2162 90.5788 58.5562C89.4802 66.0471 86.0246 71.4861 80.3615 73.301C78.0976 74.0213 74.6173 74.4144 69.9649 74.6001C67.596 74.6945 65.8392 74.719 61.8911 74.7436C60.1795 74.7544 59.4283 74.7632 58.8103 74.7858C52.104 75.0443 45.3986 75.0325 37.6389 74.7858C36.553 74.7524 35.7011 74.775 32.9541 74.8851C30.4486 74.9853 29.064 75.0187 27.4865 74.9902C21.4597 74.8792 17.2409 73.7256 14.4862 70.6715C11.1672 66.9993 9.97894 61.8708 10.0003 54.7174C10.0003 53.0509 10.0575 51.5914 10.2009 48.9488Z" fill="#1FAD66"/>
<path d="M31.9741 61.4953C31.5409 65.7847 30.1411 69.9159 27.884 73.5684C25.3749 77.2875 22.5451 80.8559 19.456 84.1853C18.272 85.4616 19.5848 87.4889 21.2094 86.8928C27.4417 84.6041 33.4312 81.6851 39.0885 78.1808C43.2918 75.6173 49.7038 70.04 54.525 65.0637C55.5711 63.9847 54.7703 62.1647 53.2811 62.233C51.4982 62.3145 49.0155 62.0198 43.5954 61.1822L43.3263 61.1406C37.7166 60.2737 35.6186 60.0035 33.6093 60C32.7666 59.9985 32.0594 60.6448 31.9741 61.4953Z" fill="#1FAD66"/>
<path d="M37 47.4798V45.5202C37 43.576 34.9855 42 32.5 42C30.0145 42 28 43.576 28 45.5202V47.4798C28 49.4239 30.0145 51 32.5 51C34.9855 51 37 49.4239 37 47.4798Z" fill="white"/>
<path d="M55 47.4798V45.5202C55 43.576 52.9855 42 50.5 42C48.0145 42 46 43.576 46 45.5202V47.4798C46 49.4239 48.0145 51 50.5 51C52.9855 51 55 49.4239 55 47.4798Z" fill="white"/>
<path d="M73 47.4798V45.5202C73 43.576 70.9855 42 68.5 42C66.0145 42 64 43.576 64 45.5202V47.4798C64 49.4239 66.0145 51 68.5 51C70.9855 51 73 49.4239 73 47.4798Z" fill="white"/>
</svg>
