<svg width="36" height="29" viewBox="0 0 36 29" fill="none" xmlns="http://www.w3.org/2000/svg">
<path d="M16.3922 8.7049C16.2785 8.84875 13.5657 12.2243 12.2112 15.2308C11.83 16.0633 11.9223 17.036 12.4526 17.7821C12.9832 18.5286 13.8714 18.935 14.7829 18.8485C15.6943 18.7625 16.4906 18.1963 16.8718 17.3638C17.9752 14.9429 20.3693 11.9353 20.3917 11.9081C20.9872 11.1957 21.1507 10.2172 20.8195 9.35009C20.4879 8.48287 19.7137 7.86264 18.7952 7.72871C17.8762 7.59469 16.9574 7.96823 16.3922 8.7049Z" fill="black"/>
<path d="M4.02954 13.185C5.28955 13.2741 6.42742 12.4326 6.7112 11.2017C6.74179 11.0732 6.76084 10.9421 6.76831 10.8103L7.29996 3.44212C7.3995 2.03002 6.33499 0.804377 4.92289 0.704833C3.51079 0.605289 2.28514 1.6698 2.1856 3.0819L1.65427 10.4663C1.56491 11.8711 2.62565 13.0849 4.02954 13.185Z" fill="black"/>
<path d="M27.3717 18.4642C25.6867 19.4136 23.9467 20.3909 22.3784 21.3427C21.1686 22.078 20.7836 23.6545 21.5188 24.8648C22.2541 26.0746 23.831 26.4597 25.0408 25.7244C26.5345 24.8162 28.2375 23.8588 29.8848 22.9331C31.1291 22.2308 32.4225 21.4911 33.642 20.7912C34.457 20.3414 34.9642 19.4847 34.9663 18.5538C34.9689 17.6226 34.466 16.7636 33.6529 16.31C32.8399 15.856 31.8446 15.8789 31.0534 16.3697C29.8604 17.0595 28.5933 17.7728 27.3717 18.4642Z" fill="black"/>
</svg>
