<?xml version="1.0" encoding="UTF-8"?>
<svg id="_レイヤー_1" data-name="レイヤー_1" xmlns="http://www.w3.org/2000/svg" version="1.1" viewBox="0 0 303.2 97">
  <!-- Generator: Adobe Illustrator 29.5.1, SVG Export Plug-In . SVG Version: 2.1.0 Build 141)  -->
  <defs>
    <style>
      .st0 {
        fill: #fcb7a0;
      }

      .st1 {
        fill: #fff;
      }

      .st2 {
        fill: #fc6e47;
      }

      .st3 {
        fill: #dc8173;
      }
    </style>
  </defs>
  <g>
    <path d="M111.8,75.2v4.6c2.2,0,4.3.1,6.5.1,6.1,0,12.2-.4,18.1-1v16c-5.8.6-11.8.9-18.1.9s-16-.5-23.4-1.5v-41.7h17v6.7h24.5v15.9h-24.5ZM123.4,52.8h5.7v4.4h-5.7v-4.4ZM130.6,52.8h5.7v4.4h-5.7v-4.4Z"/>
    <path d="M303.2,95.3h-43l5.1-42.6h17l-3.3,27.6h6.5c-.7-6.3-1.8-12.7-2.1-13.7h16.5c.8,1.9,3.3,21,3.3,28.7Z"/>
    <g>
      <path d="M21.1,60.5v7.3h-6.2l-.7,4.9H5.9l.7-4.9H0v-7.3h21.1ZM20.5,59.5H.6v-7.3h13.3v2.4h6.6v4.9ZM17.5,53.9h-2.8v-2.2h2.8v2.2ZM21.1,53.9h-2.8v-2.2h2.8v2.2Z"/>
      <path d="M43.2,56v7.5h-1.5c0,3.3-.6,8.1-.9,9.2h-7.7c.4-1.5.8-7.4.8-9.2h-2.5v5.6h-7.7v-5.6h-1.7v-7.5h1.7v-4.3h7.7v4.3h2.4v-4.3h2.1v2.9h5.7v1.3h1.5ZM39.6,53.9h-2.8v-2.2h2.8v2.2ZM40.4,53.9v-2.2h2.8v2.2h-2.8Z"/>
      <path d="M65.4,59.8l-5.5,1.1v11.9h-9v-10.1l-6.6,1.3v-8.3l21.1-4.2v8.3Z"/>
      <path d="M81.3,59.5l-14.8-.7v-7.2l14.8.7v7.2ZM87.6,60.3v7.9c-4.9,1.9-9.4,2.9-9.4,2.9,0,0-4.5,1-11.7,1.8v-7.9c6.5-.5,11.7-1.8,11.7-1.8,0,0,5.1-1.3,9.4-2.9Z"/>
      <path d="M14.5,96.8c0-1.7-.4-2.9-1.1-3.8l-3.3,3.8H.4l11.5-13H.8v-7.5h20.5v7.5l-2.7,3.2c2.8,2.9,3.5,5.6,3.5,9.8h-7.6Z"/>
      <path d="M44,76.3c-1,9.2-1.3,11.3-1.3,11.3-.2,2.2-1.3,8.5-1.7,9.2h-8.4c.3-.6.9-3.4,1.4-5.9h-3.9l-.3,1.9h-7l2.2-16.5h19.1ZM31,84.6h3.9c0-.4.1-.9.2-1.4h-3.8l-.2,1.4Z"/>
      <path d="M59.8,82l-14.8-.7v-5.7l13.3.7v2.5h1.5v3.3ZM66.1,85.1v7.2c-4.9,1.9-9.4,2.9-9.4,2.9,0,0-4.5,1-11.7,1.8v-7.2c5.3-.4,10.1-1.4,10.1-1.4l-10.1-.5v-5.7l14.8.7v4.3s3.6-1.1,6.3-2.1ZM59.2,78v-2.2h2.8v2.2h-2.8ZM65.6,78h-2.8v-2.2h2.8v2.2Z"/>
      <path d="M88.3,85.5h-1.7v11.3h-8.1v-10.9l-3.2,10.9h-8.3l3.6-11.3h-3.4v-7.5h11.2v-2.3h8.1v2.3h1.7v7.5Z"/>
    </g>
    <g>
      <path d="M145.3,71.2c7.8,0,7.8,6,15.6,6s7.8-6,15.6-6,7.8,6,15.6,6,7.8-6,15.6-6,7.8,6,15.6,6,7.8-6,15.6-6,7.8,6,15.6,6"/>
      <path d="M254.7,85.2c-6.6,0-10.4-2.9-12.7-4.7-1.6-1.2-1.8-1.3-2.9-1.3s-1.4.1-2.9,1.3c-2.3,1.7-6.1,4.7-12.7,4.7s-10.4-2.9-12.7-4.7c-1.6-1.2-1.8-1.3-2.9-1.3s-1.4.1-2.9,1.3c-2.3,1.7-6.1,4.7-12.7,4.7s-10.4-2.9-12.7-4.7c-1.6-1.2-1.7-1.3-2.9-1.3s-1.4.1-2.9,1.3c-2.3,1.7-6.1,4.7-12.7,4.7s-10.4-2.9-12.7-4.7c-1.6-1.2-1.8-1.3-2.9-1.3v-16c6.6,0,10.4,2.9,12.7,4.7,1.6,1.2,1.8,1.3,2.9,1.3s1.4-.1,2.9-1.3c2.3-1.7,6.1-4.7,12.7-4.7s10.4,2.9,12.7,4.7c1.6,1.2,1.7,1.3,2.9,1.3s1.4-.1,2.9-1.3c2.3-1.7,6.1-4.7,12.7-4.7s10.4,2.9,12.7,4.7c1.6,1.2,1.8,1.3,2.9,1.3s1.4-.1,2.9-1.3c2.3-1.7,6.1-4.7,12.7-4.7s10.4,2.9,12.7,4.7c1.6,1.2,1.8,1.3,2.9,1.3v16Z"/>
    </g>
  </g>
  <g>
    <path class="st0" d="M208.5,17.9c0-.1,0-.2.2-.2.7-.3,1.5-.5,2.2-.6,0,0,0,0,.1,0,.6-.1.8-.2,1.2-.2.4,0,.8.2,1.1.6.5.6.8,1.3.9,2.1,0,.5,0,1.2-.3,1.6-.3.5-.7.9-1.4,1.3-.1,0-.2.2-.4.2,0,0-.1,0-.2.1,0,0-.1,0-.2.1-.3.2-.5.3-.9.6t0,0c-.7.5-1,.7-1.4.9-.7.4-1.3.8-2,1.3-.2.2-.5,0-.5-.3l1.5-7.6Z"/>
    <path class="st0" d="M210.4,35.4c1.9-.3,5.5-1.4,6.2-2.2.7-.7.9-1.6.9-2.9,0-.4,0-.7,0-1.3v-.2c-.1-1.2-.4-2.4-.7-3.6-.4-1.4-1-1.7-2.8-1.6-1.8.1-3.6.4-5.3.7-.2,0-.3.2-.2.3l1.6,10.5c0,.2.2.3.3.2Z"/>
    <path class="st3" d="M216.8,28.4c-.4,0-1,.1-1.6.2-.5,0-.9.1-1.6.2-2,.2-2.4.3-3.1.3-.2,0-.3.2-.3.3,0,.2.2.3.3.3.7,0,1.1-.1,3.1-.3.7,0,1.2-.1,1.6-.2.6,0,1.1-.1,1.6-.2.2,0,.3-.2.3-.3,0-.2-.2-.3-.3-.3Z"/>
    <path class="st0" d="M206.4,31.8c-1.1-1.4-2.2-2.3-3.3-2.9-1.6-.8-3.4-1.4-5.1-1.4-2,0-3.7.5-4.9,1.8-.3.3-.5.7-.7,1.1l-.9-2.8c0-.2-.3-.3-.5-.1-.6.5-1.4,1.6-2.4,3.3-.7,1.1-1.3,2.3-2,3.4-.2.3-.3.6-.5,1-.4.9-.9,2.1-1.4,3.4-.2.6-.5,1.3-.8,2.1-.1.3-.6,1.6-.7,1.9-1.4,4-2.3,8.4-3.2,15.3-.2,1.4-.3,3.4-.5,5.9,0,1.7-.1,7.2-.2,9,0,.6,0,1.2,0,1.8,0,.2,0,.4,0,.5,0,0,0,0,0,.1t0,0c0,.2.1.3.3.3h23.4c.2,0,.3-.1.3-.3,0-6.3.3-18.1.9-20.8.5-2.2,1.3-4.9,2.3-7.4.5-1.1,1-2.4,1.7-4,.2,0,.4,0,.7-.1,1-.3,1.4-.3,1.9-.5,2.1-.7,3.3-1.6,3.6-3.2.2-1.3-.4-3-1.3-3.8-.6-.6-1.5-.8-2.7-.6-.4,0-.7.1-1.2.2,0,0-.3,0-.4,0,0,0,0,0-.1,0-.9-1.5-1.6-2.5-2.3-3.4Z"/>
    <path class="st3" d="M206.7,37.7c-1.8.2-2.8,1.7-2.3,3.3,0,0,.2.7.3.9.2.6.4,1,.7,1.2.8.7,1.5.8,2.6.5.2,0,.3-.2.2-.4,0-.2-.2-.3-.4-.2-.9.2-1.5.1-2.1-.4-.2-.1-.3-.5-.5-1,0-.2-.3-.8-.3-.9-.4-1.3.4-2.4,1.8-2.6.2,0,.3-.2.3-.3,0-.2-.2-.3-.3-.3Z"/>
    <path d="M205.3,38.6h0c-1.5.3-6,.5-7.9.4-.2,0-.4,0-.7,0,0,0,0,0-.2,0-1.9,0-2.7,0-3.6-.4-1.2-.5-2-1.4-2.3-2.9-.4-1.6-.6-3.3-.9-5.5,0-.8-.1-1.3-.3-3,0-.3,0-.6,0-.8-.2-2.2-.4-4.6-.7-8.4,0,.4-.3-3.6-.3-4.6-.1-1.4-.2-2.6-.3-3.7-.2-2.7-.2-5.3.1-6.4.4-1.3,1.6-2.3,3-2.5,3.5-.5,7.9-.9,10.3-.9.2,0,.4,0,.8,0,1.2,0,1.7,0,2.4,0,2.2.2,3.8.7,4.6,2,.5.7.8,1.6.9,2.9,0,.3,0,.7.1,1.1,0,.2,0,.3,0,.5,0,0,0,.4,0,.5,0,.1,0,.2,0,.3q0,0,0,.2c.3,3.2.3,3.3.4,4.5,0,.8.2,1.6.2,2.3.8,6.5,1.2,12,1.4,17.3,0,2.4-.3,4-1.5,5.1-.6.5-1.6.9-2.8,1.2-.5.1-1.1.3-1.7.4-.2,0-.4,0-.7.1-.1,0-.5,0-.5,0Z"/>
    <path class="st1" d="M204.6,37.4c-1.7.2-3.5.3-5.3.3-2.6,0-4.7.3-5.4-2.8-.6-2.7-.8-6.3-1.1-9.1-.4-4.6-.8-10.9-1.2-15.5,0-1.2-.4-5.5,0-6.6s1.6-1.5,2.5-1.6c2-.4,4.5-.7,6.8-.6,2.1,0,5.6-.2,7,1.8.8,1.1.9,3.9,1,5.3.2,2.1.4,4.3.6,6.4.6,5.2,1.1,11.2,1.3,16.5,0,1.5,0,3.4-1.3,4.4-1.2,1-4.1,1.5-5.1,1.6Z"/>
    <path class="st1" d="M190.7,1.8c-.7.5-1,1.7-.9,3.6,0,.5,0,1,0,1.7,0,0,0,.5,0,.6,0,.2,0,.4,0,.5,0,1.3.1,2.7.3,4.7,0,.3,0,.6,0,.9,0,.2.1,1.5.1,1.9,0,.7,0,1.3.1,1.8.3,4.8.8,9.9,1.4,15.6.2,1.6.5,3,1.1,4.1,0,.1.3.2.4.1.1,0,.2-.3.1-.4-.5-1-.8-2.4-1-3.9-.6-5.7-1.1-10.8-1.4-15.6,0-.5,0-1.1-.1-1.8,0-.4-.1-1.7-.1-1.9,0-.3,0-.6,0-.9-.1-2-.2-3.5-.3-4.7,0-.1,0-.3,0-.5,0,0,0-.5,0-.6,0-.7,0-1.1,0-1.6,0-1.7.2-2.8.7-3.1.1,0,.2-.3,0-.4,0-.1-.3-.2-.4,0Z"/>
    <path class="st0" d="M186.9,43.5c-.2,0-.4-.2-.2-.4.4-.7.8-1.4,1.4-2.2.2-.3.5-.7.8-1.2,0-.1.5-.7.4-.6.2-.3.3-.5.4-.6.3-.5.6-.9.8-1.3,1.8-2.9,3.8-5.3,5.8-6.9,1.2-.9,2.6-.7,3.5.6.5.7.5,1.4.2,2.3-.1.3-.3.7-.5,1.2-.3.7-.3.7-.4.9-.4.8-.6,2.2-.6,3.5,0,.6,0,1.2.2,1.9.1.6.3,1.1.5,1.9,0,.1,0,.3.1.5,0,0,.1.4.1.5,0,.2,0,.4-.3.4l-12-.3Z"/>
    <path class="st1" d="M189.4,11.9c0-.8,0-1.6-.1-2.4,0-.2-.1-.3-.3-.3-.2,0-.3.1-.3.3,0,.8,0,1.6.1,2.5,0,.2.2.3.3.3.2,0,.3-.2.3-.3Z"/>
    <path class="st1" d="M189.7,16c0-.8-.1-1.6-.2-2.5,0-.2-.1-.3-.3-.3-.2,0-.3.1-.3.3,0,.9.1,1.7.2,2.5,0,.2.2.3.3.3.2,0,.3-.2.3-.3Z"/>
    <path class="st3" d="M198.2,39.3c0,1,.3,1.8.8,2.9,0,0,0,.1,0,.2q0,0,0,.1c0,0,0,0,0,.1,0,.2.1.3.2.4,0,.2.2.2.4.2.2,0,.2-.2.2-.4,0-.1,0-.2-.2-.4,0,0,0,0,0-.1q0,0,0-.1c0,0,0-.1,0-.2-.5-1.1-.7-1.8-.8-2.8,0-.2-.2-.3-.3-.3-.2,0-.3.2-.3.3Z"/>
    <path class="st3" d="M186.9,42.7c.4-.7.8-1.3,1.3-2.2.2-.3.4-.7.8-1.2,0-.1.5-.7.4-.7.2-.3.3-.5.4-.6.3-.5.6-.9.8-1.3,0-.1,0-.3,0-.4-.1,0-.3,0-.4,0-.2.4-.5.8-.8,1.3-.1.2-.3.4-.4.6,0,0-.3.5-.4.7-.3.5-.5.8-.8,1.2-.5.8-1,1.5-1.3,2.2,0,.1,0,.3.1.4.1,0,.3,0,.4-.1Z"/>
    <path class="st3" d="M199.1,51.3c.3,0,.6.2.9.3.2,0,.3,0,.4-.2,0-.2,0-.3-.2-.4-.3-.1-.6-.2-1-.3-.2,0-.3,0-.4.2s0,.3.2.4Z"/>
    <path d="M215,70.1c-.6-1.1-1.7-1.9-2.9-2-.6,0-1.2,0-1.7.4.3-1.6-.3-3.4-1.4-4.1-1.2-.7-2.5-1.2-4.2-.6,0-.8,0-2.3,0-3,0-.8,0-1.5,0-2.2s0-1.8,0-2.7c0-.1,0-.2-.1-.3,0,0-.2,0-.3,0-3.1,1.4-7.4,1.9-11.7,1.3-1.6-.2-3.3-.7-4.9-1.1-.8-.2-1.7-.5-2.6-.7-1.3-.3-2.8-.9-4.6-1.7,0,0-.2,0-.3,0,0,0-.1.1-.2.2-.2,1-.9,3.8-1,4.8,0,.1,0,.4,0,.7-.2,1.5-.4,3-.5,4.2-1.3-.2-2.7.3-3.9,1.4-.9.8-1.5,1.9-1.7,2.8-.4-.3-.8-.6-1.3-.6-.6,0-1.2.2-1.8.8-1.3,1.3-1.8,3.9-1.1,5.6.4,1.1,1.3,2.3,2.4,2.3h40.1c2,0,3-1.5,3.5-2.2.6-1,.7-2.3.2-3.4Z"/>
    <path class="st1" d="M189.6,59.6c0-.2.2-.3.4-.2.2,0,.3.2.2.3-.2,1.1-.4,2.5-.6,4.1,0,.6-.1,1.3-.2,2.1,0,.4,0,1.5-.1,1.8,2.3.3,4.5.3,6.6,0,0-.9,0-1.7.2-3.5,0-.2,0-.3,0-.5,0-1,.1-1.7.2-2.3,0-.2.1-.3.3-.3.2,0,.3.1.3.3,0,.7,0,1.4-.2,2.4,0,.1,0,.2,0,.5-.2,1.7-.2,2.5-.2,3.3.4,0,.9-.1,1.3-.2.3-1.2.4-2.5.4-3.8,0-.2.1-.3.3-.3.2,0,.3.1.3.3,0,1.2,0,2.5-.3,3.7.6-.2,1.3-.3,1.9-.6,1.4-.5,2.7-1,3.9-1.8,0-.4,0-.8.1-1.1,0-.2.2-.3.3-.2.2,0,.3.2.2.3,0,.4,0,.8-.1,1.2,0,.1,0,.2-.1.2-1.3.8-2.7,1.4-4.2,1.9-.8.3-1.5.5-2.3.7,0,0-.1,0-.2,0-3.2.7-6.6.6-10.4,0-2-.3-3.9-.9-6.7-2,0,0-.2,0-.3-.1,0,0-.2,0-.3-.1-.7-.3-1.1-.4-1.4-.7-.4-.4-.6-.9-.5-1.6,0-.2.2-.3.3-.3.2,0,.3.2.3.3-.1.9.2,1.2,1.5,1.7,0,0,.3,0,.3.1.1,0,.2,0,.3.1.8.3,1.5.6,2.1.8.1-1.7.5-3.9,1-6.8,0-.2.2-.3.3-.2.2,0,.3.2.2.3-.6,2.9-.9,5.2-1,6.9,1.4.4,2.5.7,3.7.9,0-1.8.3-4,.6-5.2,0-.2.2-.3.4-.2.2,0,.3.2.2.4-.3,1.1-.5,3.3-.6,5.1h0c.2,0,.5,0,.7,0,0-.4,0-1.4.1-1.8,0-.8.1-1.5.2-2.1.2-1.7.3-3.1.6-4.2ZM202,56.6c.2,0,.3.1.3.3,0,.5,0,1,0,1.9,0,.7,0,1,0,1.3,0,.6,0,1.2,0,1.7-.1,1.2-.2,2.2-.2,2.8,0,.2-.1.3-.3.3-.2,0-.3-.1-.3-.3,0-.7,0-1.7.2-2.9,0-.5,0-1,0-1.6,0-.4,0-.7,0-1.3,0-1,0-1.4,0-2,0-.2.1-.3.3-.3ZM181.6,54.3c0-.2.2-.3.3-.2.2,0,.3.2.2.3-.8,3.8-1.3,6.9-1.3,8.9,0,.2-.1.3-.3.3-.2,0-.3-.1-.3-.3,0-2,.6-5.2,1.3-9ZM192.9,57.4c0-.2.2-.3.3-.2.2,0,.3.2.2.3-.1.8-.2,1.6-.3,2.7,0,.3,0,.5,0,1.1,0,1-.1,1.4-.2,2,0,.2-.2.3-.3.3-.2,0-.3-.2-.3-.3,0-.5.1-1,.2-1.9,0-.6,0-.8,0-1.1.1-1.1.2-1.9.4-2.7ZM183,54.8c0-.2.2-.3.3-.2.2,0,.3.2.2.3-.5,2.2-.9,4.8-1.2,7.5,0,.2-.2.3-.3.3-.2,0-.3-.2-.3-.3.4-2.7.8-5.3,1.3-7.5ZM203.2,56.4c.2,0,.3.1.3.3,0,.8,0,1.7,0,3,0,.2,0,.3,0,.7,0,.9,0,1.3,0,1.8s-.1.3-.3.3-.3-.1-.3-.3c0-.5,0-.9,0-1.8,0-.3,0-.5,0-.7,0-1.3,0-2.1,0-2.9,0-.2.1-.3.3-.3Z"/>
    <path d="M235.3,66.7h0c-.1,0-.2,0-.3-.1s-.1-.2-.1-.3c0-.6,0-2.8,0-4.5v-1.7c0-.8,0-1.5.1-2.2,0-.5,0-.9,0-1.4,0-.1,0-.3.2-.3.1,0,.3,0,.4,0,.1,0,.2.2.2.4,0,.5,0,1,0,1.5,0,.7,0,1.4-.1,2.1v1.7c0,1.7,0,4,0,4.5,0,.2-.2.4-.4.4Z"/>
    <path d="M237.2,66.7c-.2,0-.4-.2-.4-.4,0-1,0-5.9,0-6.8v-.6c0-.8,0-1.6,0-2.4,0-.1,0-.3.2-.4.1,0,.3,0,.4,0,.1,0,.2.2.2.3,0,.8,0,1.6,0,2.5v.6c0,1,0,5.9,0,6.7,0,.2-.2.4-.4.4h0Z"/>
    <path d="M238.9,66.7c-.2,0-.4-.2-.4-.4,0-.8,0-2.3,0-3.9,0-2.3,0-4.9,0-5.9,0-.2.2-.4.4-.4.2,0,.4.2.4.4,0,1.1,0,3.6,0,5.9,0,1.6,0,3.2,0,3.9,0,.2-.2.4-.4.4Z"/>
    <path d="M233.6,66.7h0c-.2,0-.4-.2-.4-.4,0-1.1.1-3.9.1-6.3,0-1.5,0-2.9,0-3.6,0-.2.2-.4.4-.4.2,0,.4.2.4.4,0,.7,0,2.1,0,3.6,0,2.4,0,5.2-.1,6.4,0,.2-.2.4-.4.4Z"/>
    <path d="M240.6,66.7c-.2,0-.4-.2-.4-.4,0-.8,0-5.4,0-6.3,0-.8,0-1.5,0-2.2,0-.4,0-.7,0-1.1,0-.1,0-.2.1-.3,0,0,.2-.1.3-.1.1,0,.2,0,.3.1,0,0,.1.2.1.3,0,.4,0,.7,0,1.1,0,.7,0,1.5,0,2.2,0,1,0,5.5,0,6.4,0,.2-.2.4-.4.4Z"/>
    <path d="M242.4,66.7c-.2,0-.4-.2-.4-.4,0-.9,0-5.8,0-6.7,0-.8,0-1.4,0-2.2,0-.2,0-.5,0-.8,0-.2.2-.4.4-.4.2,0,.4.2.4.4,0,.3,0,.5,0,.8,0,.7,0,1.3,0,2.1,0,.9,0,5.8,0,6.8,0,.2-.2.4-.4.4Z"/>
    <path class="st2" d="M244.2,53.5c0,0,0-.2,0-.2-.3-1.6-.7-3.3-2.3-4.5-1.9-1.5-4.7-1.8-7.1-.7-2.3,1-3,2.8-3.8,4.8v.3c-.5,1-.7,2-.7,3,0,.7.1,1.1.4,1.4.3.2.6.3.9.3.2,0,.5,0,.8,0h.3c.7,0,1.5-.1,2.2-.2,1,0,2-.1,3-.2.7,0,1.4-.1,2.1-.2,1.3,0,2.7-.2,4-.6,0,0,.1,0,.2,0,.5-.5.3-1.7,0-3Z"/>
    <path d="M247.2,51.1c-.1,0-.2,0-.3,0,0,0-.1.2-.2.3,0,.5-.3.9-.7,1.3-.2-.2-.4-.4-.7-.5.2-.6.3-1.2.4-1.8,0-.1,0-.3-.2-.4-.1,0-.3,0-.4,0-.1,0-.2.2-.2.3,0,.5-.2,1.1-.3,1.6-.7,0-1.4.3-1.8.8-.7.8-.8,2-.3,3.3.2.4.7.9,1.9.9h.2c.9,0,1.7-.5,2-1.3.2-.7.3-1.4,0-2.1,0,0,0-.2-.1-.3.5-.5.9-1.1,1-1.8,0-.1,0-.2,0-.3,0,0-.2-.2-.3-.2Z"/>
    <path d="M241,55.4c-.5-1.6-1.5-2.4-3-2.5-2.3,0-3.7,2.1-3.9,4.3,0,.1,0,.2.1.3,0,0,.2.1.3.1h.3c1,0,2-.1,3-.2.7,0,1.4-.1,2.1-.2.3,0,.5,0,.8,0,.2,0,.3-.1.4-.3.2-.5.2-1,0-1.5Z"/>
    <path d="M233.8,50.3c-.3-.2-.6-.4-1-.5-.2,0-.3,0-.4.2-.6.9-1,1.9-1.4,2.9v.3c-.2.4-.4.8-.5,1.2,0,.2,0,.4.3.5.3,0,.6,0,.9,0,.4,0,.8,0,1.2-.1,1.2-.3,1.8-1,1.8-2.3,0-.9-.2-1.6-.8-2.2Z"/>
    <path d="M238.7,51.7c.6,0,1.1-.2,1.5-.6.7-.6,1.1-1.5,1.2-2.5,0-.2,0-.3-.2-.4-1.3-.8-2.9-1.1-4.4-.8-.1,0-.2,0-.3.2,0,.1-.1.3-.2.4-.4.8,0,2.2.6,2.9.5.5,1.1.8,1.8.8Z"/>
  </g>
</svg>