<svg width="31" height="31" viewBox="0 0 31 31" fill="none" xmlns="http://www.w3.org/2000/svg">
<path d="M26.6167 21.1067C26.6094 20.9452 26.605 20.7843 26.6006 20.6458C26.5855 20.0286 26.5517 19.4232 26.5067 18.8329C26.4617 18.2426 26.4301 17.6201 26.4206 16.9993C26.4133 16.6859 26.4124 16.358 26.4095 16.0248C26.3993 14.5054 26.3893 12.783 25.9453 11.3816C25.2895 9.29072 23.9935 9.24494 22.3591 9.18971L22.2844 9.18756C20.769 9.13632 13.887 9.29314 11.9761 9.4756C11.0942 9.55993 10.1818 9.5576 9.29757 9.5583C8.2195 9.53411 7.14106 9.58082 6.06917 9.69821C4.86608 9.85367 4.07277 10.1655 3.5723 10.6781C2.78504 11.482 2.79661 12.981 2.81034 14.7154C2.81988 15.9421 2.92408 17.2106 3.02419 18.4398C3.05864 18.8615 3.09309 19.2832 3.12517 19.7012C3.18048 20.4616 3.29911 21.802 3.49459 23.6902C3.64784 25.163 4.66635 26.3384 5.95555 26.624C6.13564 26.6641 6.319 26.6865 6.50343 26.6911C7.655 26.7177 8.43699 26.7167 8.8255 26.6877C9.44121 26.6434 10.0738 26.6094 10.7436 26.5739C11.7759 26.5181 12.8465 26.4628 13.8427 26.3606C14.9436 26.2481 16.064 26.1702 17.1473 26.0937C18.8478 25.9733 20.6065 25.8499 22.3383 25.5957C22.5665 25.5616 22.8414 25.5474 23.1336 25.5274C24.1657 25.4651 25.449 25.3882 26.0943 24.4888C26.7396 23.5895 26.6653 22.2221 26.6167 21.1067Z" fill="#515151"/>
<path fill-rule="evenodd" clip-rule="evenodd" d="M23.3157 11.9735L23.3504 11.9379C23.4708 11.8145 23.6685 11.8121 23.7919 11.9325C23.9153 12.0529 23.9177 12.2505 23.7973 12.374L23.7622 12.4098C23.7227 12.4503 23.7006 12.4729 23.6632 12.5111C23.5566 12.62 23.4376 12.7415 23.3092 12.8722C22.9425 13.2456 22.5741 13.6188 22.228 13.9665L22.1737 14.021C21.6829 14.5138 21.2823 14.9098 21.0021 15.1772C20.6906 15.4746 20.4056 15.7711 19.9434 16.2698C19.8973 16.3196 19.7313 16.4989 19.7397 16.4899C19.3193 16.9438 19.0396 17.2387 18.7749 17.4983C18.9621 17.6209 19.167 17.7571 19.3849 17.9046C20.0871 18.3805 20.7845 18.8784 21.4295 19.3748C22.1306 19.9145 22.7275 20.4204 23.1915 20.8794C23.5245 21.2087 23.7858 21.5107 23.9695 21.7853C24.0655 21.9287 24.027 22.1225 23.8836 22.2184C23.7404 22.3142 23.5465 22.2759 23.4507 22.1325C23.2934 21.8975 23.058 21.6255 22.7525 21.3233C22.3094 20.885 21.7309 20.3947 21.0487 19.8696C20.4148 19.3816 19.7272 18.8908 19.0347 18.4216C18.7923 18.2574 18.5665 18.1076 18.3637 17.9754C18.3441 17.9626 18.3252 17.9504 18.3069 17.9385C17.0643 19.0756 16.3512 19.593 15.5291 19.7824C14.1998 20.0888 12.6519 19.6546 10.9317 18.6361C10.6766 18.485 10.4197 18.3225 10.1614 18.1487C9.34682 18.9351 7.99556 20.9344 6.75357 23.03C6.66569 23.1784 6.47421 23.2273 6.32597 23.1394C6.17758 23.0516 6.12857 22.8601 6.2166 22.7117C7.44841 20.6331 8.76133 18.6806 9.64096 17.7859C9.07136 17.3746 8.4938 16.9126 7.90905 16.4059C7.2984 15.8769 6.72165 15.3369 6.1163 14.7399C6.0718 14.6962 5.97034 14.5949 5.84901 14.4737C5.58142 14.2066 5.21695 13.8428 5.1545 13.7863C5.05388 13.6935 4.92714 13.5829 4.77924 13.4582C4.74313 13.4278 4.70593 13.3966 4.66774 13.3648C4.49412 13.2205 4.30706 13.069 4.11952 12.9197C4.05374 12.8674 3.99264 12.8192 3.9379 12.7762C3.90509 12.7504 3.88181 12.7321 3.86951 12.7227C3.73343 12.6167 3.70892 12.4207 3.8147 12.2846C3.92048 12.1485 4.11666 12.1239 4.25274 12.2298C4.26585 12.2399 4.28998 12.2587 4.32345 12.2851C4.37928 12.329 4.44134 12.3779 4.50821 12.4311C4.69903 12.5829 4.88961 12.7372 5.06699 12.8847C5.10623 12.9176 5.14455 12.9496 5.18171 12.981C5.33609 13.1111 5.46926 13.2273 5.57558 13.3253C5.64856 13.3914 6.04771 13.7898 6.31856 14.0602C6.42853 14.17 6.51745 14.2586 6.55468 14.2954C7.15128 14.8836 7.71859 15.4149 8.31784 15.9341C9.32296 16.8048 10.3027 17.5381 11.2498 18.0989C12.8452 19.0436 14.248 19.437 15.3889 19.174C16.0977 19.0107 16.7999 18.4821 18.0621 17.3153C18.415 16.9882 18.7188 16.6736 19.2815 16.0658C19.273 16.0749 19.4391 15.8954 19.4853 15.8456C19.9558 15.338 20.2479 15.0342 20.5711 14.7256C20.8464 14.4628 21.244 14.0698 21.7315 13.5804L21.7854 13.5262C22.1305 13.1795 22.498 12.8072 22.8638 12.4347C22.9918 12.3043 23.1106 12.1832 23.217 12.0745C23.2543 12.0363 23.2762 12.0139 23.3157 11.9735Z" fill="white"/>
<path d="M29.3278 6.80908C28.5394 5.38898 26.5513 4.13788 24.7132 4.59067C23.8204 4.8101 22.8281 5.19771 22.2334 6.40244C21.8771 7.12284 21.4408 8.24757 21.8029 9.61476C22.1591 10.9726 23.2555 11.9622 24.7413 12.2914L24.8358 12.3124C26.3466 12.6152 28.0198 11.918 28.9976 10.5792C29.8515 9.3951 29.9828 7.98699 29.3278 6.80908Z" fill="#FC6E47"/>
</svg>
