<svg width="21" height="21" viewBox="0 0 21 21" fill="none" xmlns="http://www.w3.org/2000/svg">
<path d="M10.22 20.44C15.8644 20.44 20.44 15.8644 20.44 10.22C20.44 4.57562 15.8644 0 10.22 0C4.57562 0 0 4.57562 0 10.22C0 15.8644 4.57562 20.44 10.22 20.44Z" fill="#FCD400"/>
<path d="M17.2962 7.48015C17.9639 9.41034 17.6622 11.9211 16.6055 13.8919C15.737 15.5122 14.4483 16.6252 12.895 17.0824C12.5964 17.1703 12.4257 17.4835 12.5136 17.7821C12.6015 18.0804 12.9147 18.2511 13.213 18.1635C15.0683 17.6173 16.5928 16.3004 17.5985 14.4243C18.7968 12.1893 19.1371 9.35597 18.3613 7.11168C18.2596 6.81787 17.9388 6.66181 17.6447 6.7635C17.3506 6.8652 17.1948 7.18605 17.2962 7.48015Z" fill="#E2B420"/>
<path d="M10.5203 17.7828L10.3766 17.811C10.0713 17.871 9.87212 18.167 9.93212 18.4724C9.99184 18.7778 10.2879 18.9766 10.5933 18.9169L10.7369 18.8888C11.0423 18.8288 11.2414 18.5327 11.1814 18.2273C11.1217 17.922 10.8257 17.7231 10.5203 17.7828Z" fill="#E2B420"/>
<path d="M10.1428 2.54611C10.4535 2.53287 10.6949 2.27004 10.6814 1.95904C10.6682 1.64833 10.4054 1.4072 10.0944 1.42044C8.73207 1.47904 7.39767 1.82664 6.18017 2.44075L6.14805 2.4585C4.86576 3.21345 3.76179 4.23714 2.91219 5.45886C2.73443 5.71436 2.79754 6.06564 3.05304 6.24311C3.30854 6.42086 3.65981 6.35776 3.83728 6.10226C4.59054 5.01885 5.56832 4.11037 6.70412 3.4388C7.77429 2.9016 8.94616 2.59766 10.1428 2.54611Z" fill="#E2B420"/>
</svg>
