<svg width="26" height="26" viewBox="0 0 26 26" fill="none" xmlns="http://www.w3.org/2000/svg">
<path d="M24.7256 9.29966C24.7103 9.05551 24.5177 8.8597 24.2738 8.84057C24.2409 8.83811 24.1786 8.83321 24.0905 8.82658C23.9438 8.81554 23.7774 8.80302 23.5949 8.78977C23.0737 8.75149 22.5273 8.71322 21.982 8.67764C21.6657 8.65703 21.3585 8.63765 21.0636 8.62022C20.0453 8.55986 19.2191 8.52256 18.6503 8.5152C18.4997 8.51324 18.3709 8.51152 18.1142 8.50784C16.9938 8.49214 16.5153 8.48649 15.9024 8.48355C14.4616 8.47692 13.2713 8.49901 12.1097 8.56256C10.8582 8.63053 9.85737 8.63151 7.61784 8.59348C6.3311 8.57164 5.76257 8.56526 5.04731 8.56968C3.66144 8.57851 2.48683 8.63887 1.35517 8.77383C1.13654 8.80009 0.962074 8.96866 0.928459 9.1863C0.749826 10.343 0.634012 11.5922 0.528992 13.288C0.502493 13.7152 0.488501 13.9576 0.438444 14.8557C0.374157 16.006 0.338335 16.5912 0.288523 17.2375C0.230124 17.9962 0.190617 18.9873 0.166571 20.1567C0.139334 21.4928 0.134918 22.9076 0.143507 24.184C0.144487 24.3053 0.145227 24.4135 0.14621 24.507C0.1467 24.5631 0.147192 24.6019 0.147438 24.6225C0.150383 24.8839 0.357721 25.0968 0.618799 25.1071C0.657322 25.1086 0.7302 25.1113 0.833748 25.1152C1.00625 25.1219 1.20132 25.1292 1.41528 25.1371C2.02675 25.1597 2.66644 25.1822 3.30368 25.2033C3.65481 25.2149 3.99612 25.2259 4.32443 25.2357C5.51082 25.2715 6.46998 25.2939 7.12219 25.2988C8.09608 25.3056 9.11389 25.2912 10.2963 25.2573C11.0035 25.2372 11.5706 25.2173 12.8382 25.1697C14.7246 25.0993 15.5586 25.0721 16.6012 25.0534C17.3589 25.0394 18.3488 24.9842 19.5175 24.8959C20.0033 24.8591 20.5122 24.8171 21.0369 24.771C21.7452 24.7089 22.447 24.6422 23.111 24.5754C23.3434 24.5521 23.5544 24.5303 23.7401 24.5109C23.8518 24.4991 23.9306 24.4908 23.972 24.4863C24.184 24.4633 24.3568 24.306 24.3997 24.0972C24.7106 22.5867 24.8735 20.4249 24.9172 17.7714C24.9508 15.7339 24.912 13.5527 24.8274 11.4106C24.8051 10.8487 24.7813 10.3332 24.7575 9.87482C24.7491 9.7141 24.7413 9.57203 24.7344 9.45008C24.7302 9.37671 24.727 9.32616 24.7256 9.29966Z" fill="#91D5DD"/>
<path fill-rule="evenodd" clip-rule="evenodd" d="M9.84731 8.7177C9.59801 8.55109 9.18358 8.28068 8.74436 7.99384H8.74411C8.1 7.57327 7.40192 7.11761 7.09152 6.90315C4.71655 5.26087 3.37215 3.85316 3.18394 2.3257C2.93538 0.317809 3.94288 -0.431807 5.47672 0.240763C6.5225 0.699367 7.84138 1.83054 8.59517 2.84982C9.54648 4.13607 10.1369 5.19584 10.4769 6.43081C10.538 6.2561 10.5967 6.09416 10.6536 5.9435C10.8045 5.54477 10.9407 5.23265 11.0683 5.00592C11.8211 3.67207 12.9982 2.13848 13.8705 1.52358C14.5398 1.05148 15.3452 0.65471 16.0526 0.530306C17.1477 0.337687 17.9756 0.813466 18.194 2.00549C18.3323 2.75805 17.9866 3.50301 17.3008 4.25754C16.8505 4.75295 16.362 5.15708 15.6195 5.70353C14.4876 6.51792 13.323 7.28103 12.1278 7.99163C13.9453 8.44876 15.2819 10.1536 15.7012 12.1772C15.7562 12.4427 15.5856 12.7023 15.3204 12.7575C15.0549 12.8125 14.7953 12.642 14.7401 12.3765C14.3121 10.3109 12.7734 8.69586 10.8396 8.86885C10.8445 8.96234 10.8489 9.05729 10.8526 9.15397C10.8538 9.18194 10.8524 9.21016 10.8487 9.23789C10.4998 11.846 10.3201 14.4739 10.3108 17.1051C10.3297 20.6308 10.4097 22.5946 10.6828 24.8648C10.715 25.1339 10.5231 25.3783 10.2541 25.4107C9.98497 25.4431 9.74058 25.2512 9.70819 24.9821C9.42969 22.6657 9.34847 20.6708 9.32933 17.106C9.33865 14.4423 9.5195 11.7861 9.87038 9.15005C9.86425 9.00184 9.85664 8.85805 9.84731 8.7177ZM7.80605 3.43332C7.14795 2.54384 5.95912 1.52407 5.08264 1.13981C4.24543 0.772734 4.003 0.953082 4.15808 2.20523C4.29917 3.35088 5.50272 4.61112 7.64974 6.09588C7.94174 6.29758 8.60891 6.73311 9.24148 7.14632L9.24222 7.14656C9.39877 7.24889 9.55336 7.34974 9.6996 7.44543C9.43975 5.97982 8.87808 4.88299 7.80605 3.43332ZM17.2286 2.18265C17.3621 2.90896 16.5578 3.79402 15.0421 4.90998C13.7973 5.80535 12.5099 6.63889 11.1836 7.40764C11.2364 7.24717 11.283 7.10584 11.3149 7.01186C11.4062 6.74244 11.4911 6.50344 11.5716 6.29095C11.7063 5.93466 11.8253 5.66205 11.9234 5.48808C12.6102 4.27054 13.7107 2.83706 14.4361 2.3257C14.998 1.92967 15.6833 1.59179 16.2224 1.49683C16.8199 1.39181 17.1148 1.56137 17.2286 2.18265Z" fill="#FC6E47"/>
<path d="M10.1479 8.74627C9.22626 8.61892 7.87499 8.73032 7.34007 9.02036C5.93113 9.83524 4.79285 11.068 4.08715 12.5493C3.9706 12.7942 3.67762 12.898 3.43298 12.7814C3.18834 12.6649 3.08431 12.3719 3.20086 12.1273C3.99195 10.4666 5.26813 9.08489 6.86061 8.16424C7.6274 7.74809 9.17277 7.62074 10.2823 7.7741C10.5508 7.81115 10.7383 8.05898 10.7012 8.32742C10.6642 8.59586 10.4163 8.78357 10.1479 8.74627Z" fill="#FC6E47"/>
<path d="M24.6932 16.3391C23.7043 16.2667 22.9709 16.2092 21.0977 16.0591C17.2772 15.7526 15.4914 15.6255 13.325 15.5283C11.7129 15.4559 10.2176 15.4236 8.78336 15.4349C4.90474 15.467 3.02517 15.5475 0.550577 15.8508C0.281401 15.8839 0.0367699 15.6925 0.00364494 15.4233C-0.0292358 15.1544 0.162149 14.9095 0.43108 14.8766C2.95205 14.5677 4.8618 14.4857 8.77551 14.4534C10.2284 14.4421 11.7404 14.4747 13.3692 14.5478C15.5508 14.6457 17.3445 14.7733 21.1762 15.0805C23.047 15.2307 23.7789 15.2881 24.7646 15.36C25.035 15.3799 25.2381 15.615 25.2183 15.8854C25.1986 16.1558 24.9633 16.3587 24.6932 16.3391Z" fill="#FC6E47"/>
</svg>
