<svg width="28" height="22" viewBox="0 0 28 22" fill="none" xmlns="http://www.w3.org/2000/svg">
<path d="M1.53993 8.79129C1.57287 8.25968 1.57957 8.14691 1.58962 7.92436C1.60246 7.63406 1.59883 7.38703 1.57761 6.66045C1.55919 6.03075 1.55361 5.69456 1.56115 5.304C1.59353 3.59875 1.90727 2.43159 2.77453 1.69666C3.30991 1.26046 3.91647 0.9193 4.55959 0.690746C6.03844 0.140603 7.70905 -0.0139243 10.1336 0.0249309C12.5668 0.0627813 14.7845 0.0525377 18.734 0.00260087C19.3785 -0.00610807 20.0556 0.00720632 20.8314 0.0402556C21.3486 0.0622792 21.7829 0.0859769 22.6731 0.13837C22.9519 0.154783 23.01 0.158189 23.1336 0.165363C24.3024 0.232634 25.2698 0.399918 25.9501 0.748248C26.9672 1.27137 27.4273 2.25799 27.5908 3.6847C27.6319 4.0436 27.6464 4.28466 27.6751 4.93929C27.6785 5.0115 27.6796 5.04019 27.6816 5.08192C27.7033 5.54567 27.7276 5.87354 27.8097 6.87102C27.8566 7.44124 27.8811 7.76235 27.904 8.11783C27.9945 9.51977 27.9816 10.5716 27.8225 11.5204C27.4633 13.6482 26.3333 15.1932 24.4816 15.7088C23.7413 15.9134 22.6033 16.025 21.082 16.0778C20.3074 16.1046 19.733 16.1116 18.442 16.1186C17.8823 16.1216 17.6367 16.1241 17.4346 16.1306C15.2417 16.204 13.0491 16.2006 10.5118 16.1306C10.1568 16.1211 9.87819 16.1275 8.97994 16.1587C8.16068 16.1872 7.70793 16.1967 7.19209 16.1886C5.22142 16.1571 3.84194 15.8294 2.94118 14.9618C1.85591 13.9187 1.46736 12.4619 1.47434 10.4299C1.47434 9.95653 1.49303 9.54196 1.53993 8.79129Z" fill="#1FAD66"/>
<path d="M4.41389 13.3636C4.26651 14.8017 3.7903 16.1868 3.02241 17.4113C2.16882 18.6582 1.20609 19.8546 0.155158 20.9708C-0.24763 21.3987 0.198989 22.0784 0.751672 21.8786C2.87196 21.1112 4.90963 20.1326 6.83425 18.9577C8.26425 18.0983 10.4457 16.2284 12.0859 14.56C12.4417 14.1982 12.1693 13.5881 11.6627 13.6109C11.0561 13.6383 10.2115 13.5395 8.36753 13.2587L8.27597 13.2447C6.36754 12.9541 5.65379 12.8635 4.9702 12.8623C4.68353 12.8618 4.44292 13.0785 4.41389 13.3636Z" fill="#1FAD66"/>
<path d="M10.3508 8.06673V7.60058C10.3508 7.13809 9.97589 6.76318 9.51336 6.76318C9.05084 6.76318 8.67596 7.13809 8.67596 7.60058V8.06673C8.67596 8.5292 9.05084 8.90413 9.51336 8.90413C9.97589 8.90413 10.3508 8.5292 10.3508 8.06673Z" fill="white"/>
<path d="M15.5538 8.06673V7.60058C15.5538 7.13809 15.1789 6.76318 14.7164 6.76318C14.2539 6.76318 13.879 7.13809 13.879 7.60058V8.06673C13.879 8.5292 14.2539 8.90413 14.7164 8.90413C15.1789 8.90413 15.5538 8.5292 15.5538 8.06673Z" fill="white"/>
<path d="M20.7596 8.06673V7.60058C20.7596 7.13809 20.3848 6.76318 19.9222 6.76318C19.4597 6.76318 19.0848 7.13809 19.0848 7.60058V8.06673C19.0848 8.5292 19.4597 8.90413 19.9222 8.90413C20.3848 8.90413 20.7596 8.5292 20.7596 8.06673Z" fill="white"/>
</svg>
