<svg width="800" height="100" viewBox="0 0 800 100" fill="none" xmlns="http://www.w3.org/2000/svg">
<path d="M345.175 65.434C345.175 66.9218 346.247 68.0032 348.394 68.6819C350.539 69.3606 353.982 69.6999 358.724 69.6999C363.143 69.6999 368.941 69.4088 376.116 68.8274C383.289 68.2453 393.059 67.3411 405.423 66.1127C404.333 68.764 403.484 71.656 402.877 74.7901C402.267 77.9263 401.707 81.4645 401.195 85.407L400.522 89.6729C392.771 90.5137 385.276 91.1117 378.038 91.4661C370.798 91.8228 362.054 92 351.805 92C343.605 92 337.279 91.3379 332.828 90.0122C328.374 88.688 325.124 86.2312 323.075 82.6432C321.024 79.056 320 73.772 320 66.7914V21.9981H345.175V37.4141C361.83 36.0567 376.532 33.8917 389.28 30.9176C386.717 30.0782 384.603 28.5422 382.938 26.3123C381.271 24.0824 380.44 21.5464 380.44 18.7012C380.44 16.4397 381 14.3236 382.121 12.351C383.241 10.3798 384.779 8.82858 386.734 7.69671C388.687 6.56701 390.784 6 393.027 6C395.269 6 397.366 6.56701 399.321 7.69671C401.274 8.82858 402.812 10.3798 403.933 12.351C405.054 14.3236 405.615 16.4397 405.615 18.7012C405.615 21.7402 404.702 24.4066 402.877 26.6999C401.051 28.9953 398.728 30.4982 395.91 31.2086C397.511 37.3499 400.009 44.2341 403.405 51.8603C393.155 53.4115 383.481 54.6399 374.386 55.5448C365.289 56.4504 355.553 57.1925 345.175 57.7746V65.434ZM388.127 23.6948C389.472 25.0853 391.106 25.7792 393.027 25.7792C394.949 25.7792 396.582 25.0853 397.928 23.6948C399.273 22.3057 399.946 20.6407 399.946 18.7012C399.946 16.8273 399.273 15.1961 397.928 13.8049C396.582 12.4158 394.949 11.7206 393.027 11.7206C391.106 11.7206 389.472 12.4158 388.127 13.8049C386.782 15.1961 386.109 16.8273 386.109 18.7012C386.109 20.6407 386.782 22.3057 388.127 23.6948Z" fill="#CDCDCD"/>
<path d="M800 68H430V45H800V68Z" fill="#CDCDCD"/>
<path d="M292 68H0V45H292V68Z" fill="#CDCDCD"/>
</svg>
