<svg width="200" height="200" viewBox="0 0 200 200" fill="none" xmlns="http://www.w3.org/2000/svg">
<g clip-path="url(#clip0_102_59)">
<rect width="200" height="200" fill="white"/>
<mask id="mask0_102_59" style="mask-type:alpha" maskUnits="userSpaceOnUse" x="16" y="12" width="169" height="189">
<rect x="16" y="12" width="168.863" height="188.115" fill="#D9D9D9"/>
</mask>
<g mask="url(#mask0_102_59)">
<path d="M137.352 115.585C141.471 93.9215 143.122 81.8063 143.268 67.7314C143.3 63.4755 143.029 59.2254 142.46 55.0103C141.982 51.5959 139.104 47.6244 135.542 45.5135C134.59 44.9489 130.32 42.1815 129.464 41.6479C127.413 40.3701 125.65 39.3702 123.96 38.5613C120.045 36.6875 116.806 35.9917 114.168 36.7756C110.944 37.729 108.76 40.5682 106.841 45.2223C106.326 46.4721 104.811 50.6686 104.955 50.2859C103.684 53.6569 101.248 60.9747 99.5731 66.4131C99.6763 65.7438 99.7894 65.0559 99.9126 64.3464C100.267 62.3051 100.68 60.2169 101.26 57.468C101.238 57.5716 102.238 52.8718 102.492 51.6337C102.922 49.5394 103.22 47.9254 103.428 46.5126C103.487 46.1118 103.549 45.7132 103.639 45.144C104.264 41.1952 104.4 39.9322 104.217 38.2959C103.959 35.9872 102.853 34.4431 100.682 33.7269C96.8722 32.4684 93.2562 35.5644 90.2415 42.2061C89.5313 43.7724 88.7829 45.5252 87.999 47.4531C87.1821 49.4623 86.332 51.6466 85.4498 53.9957C83.1452 60.1292 78.1444 74.5678 78.4118 73.8531C77.725 75.6917 77.0931 77.921 76.1802 81.5366C76.2434 81.2867 75.363 84.7979 75.1297 85.7021C75.0208 86.1245 74.9171 86.5186 74.8181 86.888C74.7973 86.8185 74.7765 86.7481 74.7553 86.6763C74.7784 86.7549 73.9256 83.8476 73.6703 83.0111C72.0919 77.8363 70.6549 74.6968 68.4574 72.5016C67.1693 71.2752 65.3991 70.7298 63.6626 71.0161C61.0298 71.5051 59.9192 72.6426 59.507 75.1964C59.1821 77.1999 59.1575 79.335 59.3565 82.0267C59.4234 82.9324 59.496 83.7096 59.651 85.2385C59.78 86.514 59.8227 86.9463 59.8783 87.5789C60.0973 90.0457 60.2523 92.0432 60.5791 96.4601C60.9103 100.944 61.062 102.901 61.2813 105.38C61.6833 109.915 62.1246 113.548 63.1891 121.577C63.3797 123.014 63.4565 123.595 63.5575 124.365C64.3909 130.713 64.8716 134.885 65.2176 139.174C65.7081 145.166 65.9728 152.409 65.7833 156.119C65.7081 157.588 53.9657 229.819 53.9657 229.819C53.8802 230.284 54.2369 230.712 54.7096 230.712L109.736 230.712C110.095 230.712 110.404 230.46 110.477 230.109L121.215 180.748C122.871 174.455 135.556 125.024 137.352 115.585Z" fill="#FCB7A0"/>
<path d="M116.841 70.6219C116.852 70.5682 116.873 70.4676 116.902 70.3262C116.951 70.0906 117.005 69.827 117.063 69.5423C117.229 68.7281 117.395 67.9048 117.55 67.1235C117.574 67.0048 117.574 67.0048 117.597 66.8857C117.827 65.7232 118.008 64.7763 118.124 64.1179C118.43 62.3696 118.78 60.6792 119.364 58.0472C119.427 57.7617 119.474 57.5499 119.594 57.0114C120.155 54.4936 120.403 53.3478 120.685 51.927C120.943 50.6295 121.138 49.5665 121.548 47.2597C121.689 46.4633 121.744 46.1559 121.82 45.7365C121.959 44.962 122.08 44.3066 122.198 43.6808C122.577 41.6179 122.63 39.6597 122.225 38.104C122.12 37.6997 121.706 37.4573 121.303 37.5628C120.898 37.668 120.656 38.0809 120.761 38.4852C121.101 39.7883 121.053 41.5426 120.712 43.4032C120.592 44.0302 120.471 44.6897 120.331 45.4687C120.255 45.8896 120.2 46.1975 120.058 46.995C119.65 49.2916 119.457 50.3478 119.201 51.632C118.922 53.0381 118.676 54.176 118.118 56.6824C117.997 57.2217 117.95 57.4335 117.887 57.7197C117.299 60.3722 116.945 62.0811 116.634 63.8566C116.52 64.5013 116.341 65.4396 116.113 66.5922C116.09 66.7106 116.09 66.7106 116.067 66.829C115.912 67.6076 115.746 68.4282 115.581 69.2397C115.523 69.5237 115.469 69.7866 115.421 70.0214C115.392 70.1621 115.371 70.2623 115.36 70.3156C115.275 70.7244 115.538 71.1249 115.947 71.2092C116.356 71.2939 116.757 71.0311 116.841 70.6219Z" fill="#DC8173"/>
<path d="M128.395 74.8194C128.512 74.3066 128.644 73.75 128.827 72.9921C128.851 72.8927 129.202 71.4432 129.307 71.0056C129.449 70.415 129.57 69.9052 129.682 69.4177C130.176 67.2769 130.5 65.6153 130.677 64.1983C131.076 61.0062 131.544 57.8576 132.078 54.7798C132.142 54.4107 132.405 52.9252 132.466 52.5728C132.541 52.144 132.606 51.7639 132.667 51.4009C133.17 48.402 133.389 46.4624 133.282 45.2474C133.245 44.831 132.878 44.5236 132.462 44.5603C132.046 44.5969 131.738 44.9638 131.775 45.3797C131.866 46.417 131.655 48.2908 131.175 51.1509C131.115 51.5101 131.05 51.8872 130.976 52.313C130.915 52.6632 130.653 54.1494 130.588 54.5211C130.049 57.6228 129.577 60.7952 129.176 64.0107C129.007 65.3657 128.691 66.9835 128.208 69.0778C128.097 69.5603 127.977 70.0659 127.837 70.6521C127.732 71.0881 127.381 72.5361 127.356 72.637C127.172 73.4009 127.039 73.9629 126.92 74.4836C126.827 74.8909 127.082 75.2963 127.489 75.3889C127.897 75.4816 128.302 75.2267 128.395 74.8194Z" fill="#DC8173"/>
<path d="M102.5 134.95C101.343 134.711 100.192 134.851 98.351 135.292C97.9449 135.39 97.6945 135.798 97.7917 136.204C97.8893 136.61 98.2973 136.86 98.7035 136.763C100.334 136.372 101.325 136.252 102.194 136.432C102.602 136.516 103.003 136.253 103.087 135.844C103.172 135.435 102.909 135.035 102.5 134.95Z" fill="#DC8173"/>
<path d="M133.621 75.5858C132.782 75.4361 131.911 75.1978 129.527 74.4975L129.42 74.4661C127.223 73.8209 126.163 73.5369 125.214 73.3728C123.973 73.1576 122.899 72.843 121.035 72.1975C120.918 72.157 120.808 72.1188 120.581 72.0398C118.935 71.4684 118.106 71.2033 117.067 70.9484C116.602 70.8334 116.118 70.7298 115.534 70.6164C115.275 70.5664 115.084 70.5305 114.601 70.4409C112.47 70.0461 111.528 69.8215 110.415 69.3737C108.071 68.4298 106.049 67.8198 101.735 66.6611L101.561 66.6146C98.0627 65.6753 96.5092 65.2268 94.6449 64.5706C94.2508 64.4322 93.819 64.6391 93.6802 65.0332C93.5418 65.4272 93.7486 65.8591 94.1427 65.9978C96.0554 66.6706 97.6335 67.1263 101.169 68.0755L101.343 68.1224C105.598 69.2652 107.581 69.8631 109.85 70.7771C111.087 71.2744 112.097 71.5153 114.326 71.9282C114.804 72.0171 114.993 72.0522 115.245 72.1014C115.807 72.2103 116.268 72.309 116.706 72.4172C117.685 72.6577 118.482 72.9122 120.084 73.4688C120.312 73.5479 120.422 73.5861 120.54 73.6269C122.476 74.2974 123.613 74.6306 124.957 74.8635C125.826 75.0137 126.86 75.2908 128.994 75.9175L129.101 75.9489C131.553 76.6693 132.437 76.9109 133.355 77.075C133.767 77.1484 134.16 76.8746 134.233 76.4635C134.306 76.0521 134.033 75.6592 133.621 75.5858Z" fill="#DC8173"/>
<path d="M84.7185 95.1848C88.2967 94.1917 96.2828 96.7126 98.6951 99.4728C101.967 103.189 103.952 109.644 103.679 115.089C103.658 115.506 103.979 115.861 104.396 115.882C104.813 115.903 105.168 115.581 105.19 115.164C105.482 109.344 103.377 102.502 99.8322 98.4752C97.0444 95.2854 88.4616 92.5762 84.3139 93.7274C83.9115 93.8389 83.6755 94.256 83.7875 94.6584C83.899 95.0608 84.3161 95.2967 84.7185 95.1848Z" fill="#DC8173"/>
<path d="M133.782 97.4728C131.391 97.6819 128.982 97.4944 126.652 96.9173C125.888 96.7388 125.185 96.586 123.956 96.3262C122.593 96.0381 122.476 96.0131 121.939 95.8959C118.265 95.0923 115.89 94.3673 113.723 93.257C108.949 90.813 104.546 87.5611 102.118 84.3592C101.865 84.0264 101.391 83.9614 101.058 84.2136C100.725 84.4662 100.66 84.9405 100.912 85.2736C103.501 88.6869 108.075 92.0647 113.033 94.6033C115.344 95.7873 117.825 96.544 121.616 97.3734C122.158 97.4921 122.276 97.5171 123.644 97.8064C124.863 98.0639 125.558 98.2152 126.298 98.388C128.78 99.0029 131.356 99.2037 133.914 98.9794C134.33 98.9431 134.638 98.5763 134.601 98.1599C134.565 97.744 134.198 97.4361 133.782 97.4728Z" fill="#DC8173"/>
<path d="M119.343 142.411C120.323 142.135 121.156 141.876 121.956 141.59C126.537 139.949 129.418 137.56 130.31 133.671C131.012 130.616 130.657 125.649 129.758 119.633C129.67 119.055 129.331 116.818 129.249 116.279C128.723 112.803 128.377 110.456 128.043 108.075C127.865 106.799 127.7 105.583 127.547 104.407C125.708 90.179 123.856 78.5557 121.51 67.1371C120.455 61.9721 118.969 58.6439 116.095 56.9183C114.794 56.14 112.927 55.7192 110.586 55.5539C109.023 55.4439 107.476 55.4533 105.558 55.538C105.355 55.5467 104.652 55.58 104.51 55.586C101.319 55.7271 90.525 57.5151 87.3227 58.4037C86.9302 58.513 86.546 58.6148 85.9466 58.7702C85.8036 58.8072 85.8036 58.8072 85.6607 58.8439C82.115 59.7613 80.5982 60.3067 79.0776 61.471C77.0215 63.0453 76.0179 65.3767 76.1427 68.7431C76.255 71.7647 76.5522 74.9851 77.0355 78.7391C77.3105 80.875 77.5967 82.8539 78.1061 86.22C78.142 86.4563 78.2971 87.4796 78.3383 87.7508C78.4276 88.3415 78.499 88.8157 78.5671 89.2706C79.2765 94.0026 80.1395 99.2345 81.5262 107.341C81.6003 107.773 81.6771 108.223 81.7599 108.706C83.8448 120.872 83.9257 121.348 84.5776 125.372C85.4293 130.63 87.1083 137.834 88.4307 140.453C90.0357 143.632 93.809 145.692 97.1871 145.557C104.26 145.322 112.411 144.306 117.014 143.043C117.155 143.004 118.812 142.56 119.343 142.411Z" fill="black"/>
<path d="M103.098 58.762C100.046 59.0986 93.2659 60.0553 90.3919 60.8381C85.506 62.1806 81.1949 62.4756 81.4256 69.3582C81.6185 75.4806 82.9761 83.1384 83.8837 89.2382C85.3585 99.1688 87.8922 112.809 89.4956 122.736C89.9267 125.417 91.5188 134.221 93.0012 136.35C94.4836 138.479 96.9039 138.668 98.6094 138.619C102.69 138.487 110.034 137.942 114.454 136.728C118.478 135.628 125.206 134.459 126.934 129.649C127.947 126.832 126.673 120.872 126.238 117.945C125.561 113.407 124.831 108.706 124.238 104.062C122.778 92.6342 120.743 79.9921 118.395 68.6283C117.729 65.4782 116.595 61.4999 113.641 59.8284C110.922 58.2401 105.099 58.5427 103.098 58.762Z" fill="white"/>
<path d="M79.2971 62.6432C78.2318 65.0548 78.1199 67.0095 78.5733 70.5404C79.8848 80.6416 82.0918 94.3852 84.4481 107.573C84.8047 109.578 86.1956 117.617 86.171 117.477C86.3892 118.729 86.5855 119.843 86.7727 120.894C87.2495 123.569 87.6659 125.808 88.0509 127.751C88.0974 127.987 88.2823 128.935 88.2695 128.868C88.364 129.353 88.44 129.734 88.5183 130.116C88.7244 131.12 88.9214 131.997 89.1343 132.835C90.0563 136.464 91.1707 138.933 92.7688 140.142C95.666 142.342 100.07 142.716 105.973 141.76C106.526 141.67 109.727 141.202 110.714 141.048C113.082 140.679 115.143 140.308 117.113 139.873C123.539 138.457 127.867 136.623 129.59 134.005C129.819 133.657 129.722 133.187 129.373 132.958C129.025 132.728 128.556 132.825 128.326 133.174C126.901 135.339 122.829 137.065 116.788 138.396C114.852 138.822 112.82 139.189 110.481 139.553C109.505 139.706 106.298 140.174 105.731 140.267C100.202 141.163 96.1621 140.819 93.6825 138.936C92.4485 138.003 91.4407 135.77 90.6005 132.463C90.394 131.65 90.2019 130.794 90.0003 129.812C89.9228 129.435 89.8479 129.058 89.7537 128.578C89.7674 128.646 89.5821 127.695 89.5348 127.457C89.1517 125.525 88.7372 123.295 88.2619 120.628C88.0751 119.579 87.8792 118.467 87.6614 117.217C87.6863 117.36 86.2947 109.318 85.9373 107.307C83.5848 94.1409 81.3812 80.4192 80.0735 70.3464C79.6522 67.0655 79.7498 65.3622 80.6808 63.2544C80.8499 62.8724 80.6771 62.4258 80.2947 62.2568C79.9128 62.0881 79.4662 62.2609 79.2971 62.6432Z" fill="white"/>
<path d="M78.4286 83.6002C78.7005 85.3935 78.9456 86.8506 79.0949 87.5449C79.1827 87.9529 79.585 88.2131 79.9935 88.125C80.4015 88.0372 80.6617 87.6349 80.5736 87.2268C80.4329 86.5722 80.1916 85.1363 79.9239 83.3733C79.8615 82.9604 79.4758 82.6764 79.0628 82.7392C78.6498 82.8019 78.3658 83.1873 78.4286 83.6002Z" fill="white"/>
<path d="M77.4046 76.465C77.5048 77.2868 77.7585 79.1356 78.0308 81.0196C78.0906 81.433 78.474 81.7196 78.8874 81.6599C79.3007 81.6001 79.5874 81.2167 79.5276 80.8033C79.2568 78.9295 79.0046 77.0901 78.9059 76.282C78.8556 75.8671 78.4782 75.5722 78.0637 75.6229C77.6489 75.6731 77.3539 76.0506 77.4046 76.465Z" fill="white"/>
</g>
</g>
<defs>
<clipPath id="clip0_102_59">
<rect width="200" height="200" fill="white"/>
</clipPath>
</defs>
</svg>
