<?xml version="1.0" encoding="UTF-8"?>
<svg id="_レイヤー_2" data-name="レイヤー 2" xmlns="http://www.w3.org/2000/svg" viewBox="0 0 2000 2000">
  <defs>
    <style>
      .cls-1 {
        fill: #f7f9fc;
      }

      .cls-2 {
        fill: #031228;
      }
    </style>
  </defs>
  <rect class="cls-1" width="1999.9999997" height="2000"/>
  <g>
    <g>
      <path class="cls-2" d="m443.7417919,950.4188003c30.5196741,14.8911661,62.1481611,22.979591,96.0666255,23.1111088,2.4733362.0095903,4.5547129,1.8581875,4.8955437,4.3079463l3.2175482,23.1264814c.3540713,2.5449262-1.2798101,4.9389826-3.7756521,5.5495469-18.7642696,4.5903513-37.6692113,8.1506259-50.538698,21.8714085-1.7223783,1.8363108-4.5460947,2.0933639-6.5785386.6074984l-18.2192423-13.3196014c-2.3257878-1.7003213-2.7592146-5.0288449-.900931-7.2304724,16.9002987-20.0228648,43.3585664-27.5812972,68.0074937-33.3178718,2.86309-.6663304,5.6773305,1.2724268,6.0823893,4.1839913l2.9403603,21.1353254c.405519,2.9148729-1.7817779,5.5397753-4.7209595,5.6885741-39.3507346,1.9921663-79.545856-3.0719504-116.1548253-18.4221552-2.7482926-1.1523639-3.8925278-4.4367892-2.4499376-7.0444678l15.5830759-28.168536c1.2840378-2.3210735,4.1618086-3.2419485,6.5457478-2.0787763Z"/>
      <path class="cls-2" d="m440.4527264,1089.6047493c-21.1109644,44.3512883,77.0458384,26.8603045,107.4192614,18.1492049,2.7192438-.7798793,5.5376468.8463734,6.2254721,3.5903477l9.1812446,36.6271742c.6993861,2.7900941-1.0895167,5.5865868-3.9141906,6.1297105-61.2005362,11.7675397-187.1832981,10.1902725-148.6653421-79.3087621,1.1521628-2.677127,4.3232703-3.8337846,6.9107752-2.4924023l20.641701,10.7008156c2.3976928,1.2429823,3.3618224,4.1653446,2.2010783,6.6039115Z"/>
    </g>
    <g>
      <path class="cls-2" d="m1133.9879291,958.19957c32.8471004,10.6372931,68.270057,15.9810712,102.8407469,15.3881087,2.3227208-.0398397,4.3743403,1.4969971,4.9538413,3.7466188l5.8911929,22.8696c.6020647,2.3372142-.5534386,4.7684812-2.7433286,5.7830913-13.5309241,6.2690874-26.3848384,13.1889263-35.1157911,25.22208-1.4308332,1.9719996-4.1000461,2.5846689-6.2728668,1.4824365l-18.3208901-9.2938541c-2.7196897-1.3796491-3.571983-4.8433637-1.828949-7.3457577,11.3165919-16.2467121,28.5528284-29.8760021,45.9272809-38.4614549,2.8466928-1.4066715,6.2667664.1665634,7.0588585,3.2414577l4.9373902,19.1669015c.7760796,3.0127335-1.3576676,6.0053393-4.460344,6.2339475-38.6458435,2.8474639-77.0335229,3.2127626-114.4872481-6.531096-2.7114507-.7054036-4.3269012-3.4913953-3.5761759-6.190649l8.8688739-31.8882818c.7587767-2.7282026,3.6333993-4.2955839,6.327409-3.4231486Z"/>
      <path class="cls-2" d="m1132.4766856,1083.4652126c2.7783043.4946432,4.5721562,3.188946,4.0115581,5.9546966-4.4149528,21.7814825,4.5880752,33.3700411,28.4361629,34.1707122,25.2076245,1.1884352,54.2568851-4.7543788,79.6497656-9.9009342,2.9719042-.6023369,5.7840208,1.5598858,5.9755522,4.5861607l2.2923372,36.2198884c.1683911,2.6606507-1.7728605,4.9860245-4.4220753,5.284486-62.73987,7.0682961-163.408298,13.1265902-144.9696807-76.5053885.5483678-2.665671,3.1035661-4.4248623,5.7829232-3.9478354l23.2434568,4.1382143Z"/>
    </g>
    <g>
      <path class="cls-2" d="m801.8623597,841.1659094c6.5022088,78.614935,16.1200985,155.7889713,44.5988126,229.624226.9372685,2.4300065-.1247361,5.1716537-2.4674409,6.309695l-20.6260972,10.0197647c-2.5579993,1.2426273-5.6491922.1076529-6.7776004-2.502745-33.2084255-76.8225581-51.4868526-155.244965-61.2780773-238.0431906-.3235941-2.736432,1.6381563-5.2209094,4.3738509-5.5506795l36.5981721-4.4116711c2.8149322-.3393217,5.3446708,1.7289391,5.5783801,4.5546005Z"/>
      <path class="cls-2" d="m887.1157448,1033.962825c1.1794348,2.5875496-.0345056,5.6368515-2.6670081,6.7122165-19.9360967,8.1438023-40.4754323,13.8588265-59.5968981,22.8053494-16.7113363,8.511343-32.3832385,16.2980854-31.4641439,35.6653183.281347,5.9285668,1.7853923,11.3676401,7.622328,13.4470901,27.9225566,9.9476102,60.6878848.0277634,89.8674952-6.1248207,2.7732757-.5847512,5.4747736,1.2474234,5.9599071,4.0398485l6.2301439,35.8606656c.5231501,3.0112481-1.7516157,5.7759011-4.8071059,5.8485716-33.6822962.801086-69.5008311,7.1209865-102.7343126-1.5021896-32.1554311-8.3434516-46.3348004-44.538242-35.4899248-74.4644414,17.2737648-44.0326021,68.2115365-57.7413863,103.782228-79.8727735,2.5505813-1.5869217,5.9165559-.5462457,7.1624714,2.1871552l16.1348199,35.3980101Z"/>
    </g>
    <g>
      <path class="cls-2" d="m1499.7528276,844.2710991c9.0363507,74.5382306,18.8242679,152.3618417,39.808568,224.5285392.6809492,2.3418392-.4137082,4.8306246-2.6072265,5.8966361l-18.7633328,9.1186513c-2.6766285,1.3007946-5.9018249-.0048423-6.8990115-2.8087726-26.1345182-73.486116-42.7280023-151.9490472-56.4540042-228.5204555-.4830115-2.6945117,1.2943368-5.27387,3.982682-5.7901005l35.0273533-6.7261403c2.84519-.5463486,5.5562973,1.4255288,5.9049717,4.3016423Z"/>
      <path class="cls-2" d="m1576.6098871,1031.2817691c.8393633,2.8337223-.9482157,5.7670603-3.84961,6.3295761-32.5968684,6.3198081-75.6902506,17.3782408-88.0117512,49.5239861-3.1056742,8.1024394-3.50258,21.2544511,4.2593046,26.1767825,25.0360895,15.8770626,62.0415427,2.617244,91.4104396-3.3917558,2.9159393-.5966134,5.707355,1.4513429,5.9949419,4.4137648l4.049447,41.713201c.287733,2.9639271-2.0583179,5.5101874-5.0360223,5.47969-41.1829411-.4217922-93.8103441,6.7383163-125.1478595-24.2696927-.1096569-.1085038-.2170095-.2218195-.3192312-.3373549-20.2037374-22.835142-16.552658-59.4495069.8927629-82.698337,24.4123396-31.8433586,63.1926679-45.8203085,99.2346722-59.7211216,2.7225913-1.050059,5.7608846.4482685,6.5896397,3.246177l9.9332663,33.5350844Z"/>
    </g>
  </g>
</svg>